<svg width="88" height="88" viewBox="0 0 88 88" fill="none" xmlns="http://www.w3.org/2000/svg">
<circle cx="44" cy="44" r="44" fill="#E31E24"/>
<path d="M67.1129 62.0671L58.2502 49.5121V35.4999H60.5002C60.637 35.4998 60.7712 35.4624 60.8883 35.3915C61.0053 35.3207 61.1008 35.2191 61.1643 35.0979C61.2278 34.9767 61.2569 34.8405 61.2485 34.7039C61.2401 34.5673 61.1945 34.4357 61.1167 34.3231L54.3667 24.5731C54.294 24.4788 54.2006 24.4024 54.0937 24.3499C53.9868 24.2973 53.8693 24.27 53.7502 24.27C53.6311 24.27 53.5136 24.2973 53.4067 24.3499C53.2998 24.4024 53.2064 24.4788 53.1337 24.5731L51.4552 26.9971C51.4336 26.9354 51.4038 26.8769 51.3667 26.8231L44.6167 17.0731C44.544 16.9788 44.4506 16.9024 44.3437 16.8499C44.2368 16.7973 44.1193 16.77 44.0002 16.77C43.8811 16.77 43.7636 16.7973 43.6567 16.8499C43.5498 16.9024 43.4564 16.9788 43.3837 17.0731L36.6337 26.8231C36.5966 26.8769 36.5668 26.9354 36.5452 26.9971L34.8667 24.5731C34.794 24.4788 34.7006 24.4024 34.5937 24.3499C34.4868 24.2973 34.3693 24.27 34.2502 24.27C34.1311 24.27 34.0136 24.2973 33.9067 24.3499C33.7998 24.4024 33.7064 24.4788 33.6337 24.5731L26.8837 34.3231C26.8058 34.4357 26.7602 34.5673 26.7519 34.7039C26.7435 34.8405 26.7726 34.9767 26.8361 35.0979C26.8996 35.2191 26.995 35.3207 27.1121 35.3915C27.2292 35.4624 27.3634 35.4998 27.5002 35.4999H29.7502V49.5121L20.8874 62.0671C20.8081 62.1794 20.7612 62.3114 20.7518 62.4485C20.7423 62.5857 20.7708 62.7228 20.8341 62.8449C20.8973 62.967 20.9929 63.0693 21.1104 63.1407C21.2279 63.2122 21.3627 63.2499 21.5002 63.2499H66.5002C66.6377 63.2499 66.7725 63.2122 66.89 63.1407C67.0075 63.0693 67.1031 62.967 67.1663 62.8449C67.2296 62.7228 67.258 62.5857 67.2486 62.4485C67.2392 62.3114 67.1923 62.1794 67.1129 62.0671ZM37.2502 27.9999H39.5002V29.4999H41.0002V27.2499C41.0002 27.051 40.9212 26.8602 40.7805 26.7196C40.6399 26.5789 40.4491 26.4999 40.2502 26.4999H38.6819L44.0002 18.8176L49.3184 26.4999H47.7502C47.5513 26.4999 47.3605 26.5789 47.2199 26.7196C47.0792 26.8602 47.0002 27.051 47.0002 27.2499V29.4999H48.5002V27.9999H50.7502H50.7622L48.2122 31.6824C47.8935 30.8221 47.319 30.0801 46.566 29.556C45.813 29.032 44.9176 28.751 44.0002 28.751C43.0828 28.751 42.1874 29.032 41.4344 29.556C40.6814 30.0801 40.1069 30.8221 39.7882 31.6824L37.2382 27.9999H37.2502ZM49.2502 37.7694C48.6049 37.273 47.8143 37.0026 47.0002 36.9999H46.4827C47.061 36.6145 47.5429 36.1013 47.8912 35.4999H49.2502V37.7694ZM47.0002 41.4999V57.2499H44.7502V48.2499H43.2502V57.2499H41.0002C41.0002 54.9841 41.0002 48.3541 41.0002 48.2544V41.4999H39.5002V47.4999H38.7502V40.7499C38.7502 40.1532 38.9872 39.5809 39.4092 39.1589C39.8312 38.7369 40.4035 38.4999 41.0002 38.4999H47.0002C47.5969 38.4999 48.1692 38.7369 48.5912 39.1589C49.0131 39.5809 49.2502 40.1532 49.2502 40.7499V47.4999H48.5002V41.4999H47.0002ZM41.5177 36.9999H41.0002C40.1861 37.0026 39.3955 37.273 38.7502 37.7694V35.4999H40.1092C40.4574 36.1013 40.9394 36.6145 41.5177 36.9999ZM44.0002 36.2499C43.4068 36.2499 42.8268 36.0739 42.3335 35.7443C41.8401 35.4147 41.4556 34.9461 41.2286 34.3979C41.0015 33.8498 40.9421 33.2466 41.0578 32.6646C41.1736 32.0827 41.4593 31.5481 41.8789 31.1286C42.2984 30.709 42.833 30.4233 43.4149 30.3075C43.9969 30.1918 44.6001 30.2512 45.1482 30.4782C45.6964 30.7053 46.165 31.0898 46.4946 31.5832C46.8242 32.0765 47.0002 32.6565 47.0002 33.2499C47.0002 34.0455 46.6841 34.8086 46.1215 35.3712C45.5589 35.9338 44.7958 36.2499 44.0002 36.2499ZM54.3127 61.7499L50.7194 49.5384L49.2809 49.9614L52.7489 61.7499H35.2514L38.7194 49.9614L37.2809 49.5384L33.6877 61.7499H22.9477L31.1129 50.1826C31.2023 50.056 31.2502 49.9049 31.2502 49.7499V34.7499C31.2502 34.551 31.1712 34.3602 31.0305 34.2196C30.8899 34.0789 30.6991 33.9999 30.5002 33.9999H28.9319L34.2502 26.3176L39.5677 33.9999H38.0002C37.8013 33.9999 37.6105 34.0789 37.4699 34.2196C37.3292 34.3602 37.2502 34.551 37.2502 34.7499V48.2499C37.2502 48.4488 37.3292 48.6396 37.4699 48.7802C37.6105 48.9209 37.8013 48.9999 38.0002 48.9999H39.5002C39.5002 49.2249 39.5002 49.4791 39.5002 49.7731V57.9999C39.5002 58.1988 39.5792 58.3896 39.7199 58.5302C39.8605 58.6709 40.0513 58.7499 40.2502 58.7499H47.7502C47.9491 58.7499 48.1399 58.6709 48.2805 58.5302C48.4212 58.3896 48.5002 58.1988 48.5002 57.9999V48.9999H50.0002C50.1991 48.9999 50.3899 48.9209 50.5305 48.7802C50.6712 48.6396 50.7502 48.4488 50.7502 48.2499V40.7499C50.7502 40.6899 50.7352 40.6344 50.7322 40.5751H50.7502V34.7499C50.7502 34.551 50.6712 34.3602 50.5305 34.2196C50.3899 34.0789 50.1991 33.9999 50.0002 33.9999H48.4327L53.7502 26.3176L59.0684 33.9999H57.5002C57.3013 33.9999 57.1105 34.0789 56.9699 34.2196C56.8292 34.3602 56.7502 34.551 56.7502 34.7499V49.7499C56.7501 49.9049 56.7981 50.056 56.8874 50.1826L65.0527 61.7499H54.3127Z" fill="white"/>
</svg>
