<svg width="88" height="88" viewBox="0 0 88 88" fill="none" xmlns="http://www.w3.org/2000/svg">
<circle cx="44" cy="44" r="44" fill="#E31E24"/>
<path d="M28.6982 50.0868C29.0299 50.0868 29.2988 49.8179 29.2988 49.4862V43.0957C29.2988 40.706 31.243 38.7619 33.6327 38.7619C36.0223 38.7619 37.9665 40.706 37.9665 43.0957V44.6326C37.9665 44.9643 38.2354 45.2332 38.5671 45.2332C38.8988 45.2332 39.1677 44.9643 39.1677 44.6326V36.6243C39.1677 34.2346 41.1118 32.2905 43.5015 32.2905C45.8912 32.2905 47.8353 34.2346 47.8353 36.6243V38.1613C47.8353 38.493 48.1042 38.7619 48.4359 38.7619C48.7676 38.7619 49.0365 38.493 49.0365 38.1613V33.5505C49.0365 32.253 49.6267 31.0258 50.6113 30.2091L50.9483 31.2704L53.3703 28.616L49.8607 27.8452L50.226 28.9955C48.8374 29.9572 47.9543 31.5161 47.8467 33.2019C46.8322 31.9167 45.2622 31.0893 43.5015 31.0893C40.4495 31.0893 37.9665 33.5723 37.9665 36.6243V39.6587C36.9517 38.3818 35.3868 37.5607 33.6327 37.5607C30.5806 37.5607 28.0977 40.0437 28.0977 43.0957V49.4862C28.0977 49.8179 28.3666 50.0868 28.6982 50.0868Z" fill="white"/>
<path d="M63.2398 37.6915C63.5715 37.6915 63.8404 37.4226 63.8404 37.0909V34.2783C63.8404 33.9466 63.5715 33.6777 63.2398 33.6777H56.8837V29.2165H63.2398C63.4621 29.2165 63.6662 29.0937 63.7703 28.8974C63.8745 28.7009 63.8617 28.4631 63.737 28.2791L62.2664 26.1083L63.737 23.9376C63.8617 23.7535 63.8745 23.5156 63.7703 23.3193C63.6662 23.1228 63.4621 23 63.2398 23H56.2831C55.9514 23 55.6825 23.2689 55.6825 23.6006V33.6777H53.371C53.0394 33.6777 52.7705 33.9466 52.7705 34.2783V40.1491H43.5022C43.1705 40.1491 42.9016 40.418 42.9016 40.7496V46.6204H33.6334C33.3017 46.6204 33.0328 46.8893 33.0328 47.221V51.4739H23.7646C23.433 51.4739 23.1641 51.7428 23.1641 52.0745V55.1213C23.1641 55.453 23.433 55.7219 23.7646 55.7219C24.0963 55.7219 24.3652 55.453 24.3652 55.1213V52.6751H33.0329V62.7988H24.3652V57.9298C24.3652 57.5981 24.0963 57.3292 23.7646 57.3292C23.433 57.3292 23.1641 57.5981 23.1641 57.9298V63.3994C23.1641 63.7311 23.433 64 23.7646 64H63.2399C63.5716 64 63.8405 63.7311 63.8405 63.3994V39.9018C63.8405 39.5702 63.5716 39.3013 63.2399 39.3013C62.9082 39.3013 62.6393 39.5702 62.6393 39.9018V62.7988H53.9716V34.8789H62.6393V37.0909C62.6392 37.4226 62.9081 37.6915 63.2398 37.6915ZM61.0439 26.445L62.1076 28.0153H56.8838V24.2012H62.1076L61.0439 25.7713C60.9061 25.9748 60.9061 26.2416 61.0439 26.445ZM34.234 52.0745V47.8216H42.9016V51.536C42.9016 51.8677 43.1705 52.1366 43.5022 52.1366C43.8339 52.1366 44.1028 51.8677 44.1028 51.536V41.3502H52.7705V62.7988H44.1028V54.3449C44.1028 54.0132 43.8339 53.7443 43.5022 53.7443C43.1705 53.7443 42.9016 54.0132 42.9016 54.3449V62.7988H34.234V52.0745Z" fill="white"/>
</svg>
