<svg width="88" height="88" viewBox="0 0 88 88" fill="none" xmlns="http://www.w3.org/2000/svg">
<circle cx="44" cy="44" r="44" fill="#E31E24"/>
<g clip-path="url(#clip0)">
<path d="M39.6661 37.6149L39.6222 37.571H39.56H31.8121C30.3632 37.571 29.2594 36.4671 29.2594 35.0182V19.7027C29.2594 18.2539 30.3632 17.15 31.8121 17.15H53.434C54.8825 17.15 55.9868 18.2539 55.9868 19.7027V35.0182C55.9868 36.4671 54.8825 37.571 53.434 37.571H45.6861H45.6239L45.58 37.6149L42.6231 40.5719L39.6661 37.6149ZM42.7291 38.3677L45.0277 36.0692H48.7491H48.9231L48.8975 35.8971L48.2686 31.6731C48.263 31.2419 47.9424 30.9298 47.6305 30.8235L43.3702 29.0846L44.459 26.9067C44.5754 26.7771 44.5752 26.6343 44.5749 26.4819C44.5749 26.4745 44.5749 26.4671 44.5749 26.4596V23.3064C44.5749 23.002 44.4728 22.7367 44.2832 22.5471C44.0937 22.3576 43.8284 22.2555 43.524 22.2555H41.7222C41.4178 22.2555 41.1525 22.3576 40.9629 22.5471C40.7733 22.7367 40.6712 23.002 40.6712 23.3064V26.4596V26.4666C40.6712 26.5511 40.6712 26.6296 40.6846 26.7095C40.6988 26.795 40.7271 26.8766 40.7767 26.976L41.7881 29.0836L37.5255 30.8235C37.187 30.939 36.9867 31.2689 36.8917 31.6483L36.8899 31.6554L36.8889 31.6626L36.2585 35.8971L36.2329 36.0692H36.4069H40.2185L42.517 38.3677L42.6231 38.4738L42.7291 38.3677ZM50.4925 35.94L50.5106 36.0692H50.6411H53.434C53.7384 36.0692 54.0037 35.9671 54.1933 35.7775C54.3829 35.5879 54.4849 35.3226 54.4849 35.0182V19.7027C54.4849 19.3983 54.3829 19.1331 54.1933 18.9435C54.0037 18.7539 53.7384 18.6518 53.434 18.6518H31.8121C31.5077 18.6518 31.2424 18.7539 31.0529 18.9435C30.8633 19.1331 30.7612 19.3983 30.7612 19.7027V35.0182C30.7612 35.3226 30.8633 35.5879 31.0529 35.7775C31.2424 35.9671 31.5077 36.0692 31.8121 36.0692H34.605H34.7355L34.7536 35.9399L35.3835 31.4385C35.5561 30.4954 36.1544 29.731 37.0027 29.3918L37.0028 29.3918L37.0044 29.3911L39.6174 28.3098L39.7663 28.2482L39.6942 28.1041L39.4237 27.5636C39.4237 27.5636 39.4237 27.5635 39.4237 27.5635C39.2542 27.2242 39.1694 26.8869 39.1694 26.4596V23.3064C39.1694 21.8575 40.2733 20.7536 41.7222 20.7536H43.524C44.9724 20.7536 46.0767 21.8575 46.0767 23.3064V26.4596C46.0767 26.7993 45.9908 27.2264 45.822 27.5634L45.822 27.5636L45.5519 28.1042L45.4799 28.2482L45.6287 28.3098L48.2413 29.3911L48.2429 29.3918C49.0913 29.7311 49.69 30.4955 49.8622 31.4385L50.4925 35.94Z" fill="white" stroke="#E31E24" stroke-width="0.3"/>
<path d="M45.3246 53.8774H29.2582V53.1265C29.2582 52.8221 29.1561 52.5568 28.9666 52.3672C28.777 52.1776 28.5117 52.0756 28.2073 52.0756H27.4564V41.5646H28.2073C28.5117 41.5646 28.777 41.4625 28.9666 41.2729C29.1561 41.0834 29.2582 40.8181 29.2582 40.5137V39.7628H38.8682V41.2646H30.7297H30.6257L30.5892 41.3619C30.3319 42.0485 29.8207 42.6406 29.0608 42.8938L28.9582 42.9279V43.0361V50.5139V50.6179L29.0556 50.6544C29.7421 50.9117 30.3342 51.4229 30.5874 52.1828L30.6215 52.2854H30.7297H46.9461H46.9915L47.0293 52.2602C47.7974 51.748 48.7312 51.6639 49.5818 52.0892L57.1493 55.8732L57.181 55.889H57.2164H59.7392H59.8892V55.739V37.7208V37.5708H59.7392H58.0874V36.0689H61.3911V55.739V55.889H61.5411H66.7965V68.2018H57.1267H57.1126L57.0987 68.2044L43.3178 70.8164C43.3172 70.8165 43.3167 70.8166 43.3162 70.8167C42.8107 70.9006 42.2992 70.8181 41.7746 70.6442L22.6835 62.3593C22.6831 62.3591 22.6827 62.3589 22.6823 62.3588C21.7459 61.9326 21.15 60.9956 21.15 59.9735V58.2614V58.1717C21.15 56.8194 22.3374 55.7087 23.7027 55.7087H23.8527V55.5587V36.0689H27.1564V37.5708H25.5046H25.3546V37.7208V56.0091V56.115L25.4544 56.1505L41.9409 62.0064L41.9477 62.0088L41.9547 62.0106C42.3669 62.1138 42.6806 62.0062 42.9752 61.81L42.9842 61.8039L42.9923 61.7966L43.8932 60.9859L44.0108 60.8801L43.899 60.7683L43.3584 60.2277C42.4218 59.2907 42.3373 57.7575 43.1868 56.7369C43.1871 56.7366 43.1873 56.7363 43.1876 56.736L45.4382 54.1253L45.652 53.8774H45.3246ZM42.9822 69.3125H42.9959L43.0095 69.31L56.1629 66.8778L56.2856 66.8551V66.7303V57.1806V57.0873L56.202 57.0461L48.9164 53.4483C48.6979 53.2898 48.4526 53.2656 48.2295 53.3181C48.006 53.3707 47.802 53.4998 47.6509 53.6507L47.6506 53.6504L47.6433 53.6588L44.22 57.6232L44.2197 57.6229L44.2135 57.6312C43.902 58.0467 43.9007 58.6715 44.3177 59.0885L44.948 59.7188L45.0465 59.8173L45.152 59.7264L48.2821 57.0315L49.2574 58.1567L43.8749 62.8331L43.8745 62.8334C43.1959 63.4271 42.2611 63.5992 41.4068 63.3442L24.0516 57.3192C23.9255 57.2104 23.7945 57.2104 23.7079 57.2105H23.7027C23.3983 57.2105 23.133 57.3127 22.9435 57.5023C22.7539 57.6919 22.6518 57.9572 22.6518 58.2614V59.9735C22.6518 60.1798 22.7038 60.3671 22.8121 60.5295C22.9197 60.691 23.0773 60.8193 23.2754 60.9184L23.2753 60.9186L23.2827 60.9218L42.3783 69.2084C42.5892 69.3126 42.7983 69.3126 42.9719 69.3125H42.9822ZM65.1447 66.7H65.2947V66.55V57.5408V57.3908H65.1447H57.9374H57.7874V57.5408V66.55V66.7H57.9374H65.1447Z" fill="white" stroke="#E31E24" stroke-width="0.3"/>
<path d="M32.8609 55.8893H40.6692V57.3911H32.8609V55.8893Z" fill="white" stroke="#E31E24" stroke-width="0.3"/>
<path d="M39.1656 46.7306C39.1656 44.8313 40.7199 43.277 42.6193 43.277C44.5182 43.277 46.0729 44.8313 46.0729 46.7306C46.0729 48.6299 44.5182 50.1843 42.6193 50.1843C40.7199 50.1843 39.1656 48.6299 39.1656 46.7306ZM40.6674 46.7306C40.6674 47.8045 41.5453 48.6824 42.6193 48.6824C43.6932 48.6824 44.5711 47.8045 44.5711 46.7306C44.5711 45.6567 43.6932 44.7788 42.6193 44.7788C41.5453 44.7788 40.6674 45.6567 40.6674 46.7306Z" fill="white" stroke="#E31E24" stroke-width="0.3"/>
<path d="M54.6531 41.2768L54.6189 41.1743H54.5108H46.3727V39.6725H55.9827V40.4234C55.9827 40.7278 56.0848 40.9931 56.2743 41.1826C56.4639 41.3722 56.7292 41.4743 57.0336 41.4743H57.7845V51.9852H56.2827V42.9458V42.8418L56.1853 42.8053C55.4984 42.5479 54.9067 42.0368 54.6531 41.2768Z" fill="white" stroke="#E31E24" stroke-width="0.3"/>
<path d="M48.1773 45.9791H52.3819V47.4809H48.1773V45.9791Z" fill="white" stroke="#E31E24" stroke-width="0.3"/>
<path d="M32.8609 45.9791H37.0655V47.4809H32.8609V45.9791Z" fill="white" stroke="#E31E24" stroke-width="0.3"/>
</g>
<defs>
<clipPath id="clip0">
<rect width="54" height="54" fill="white" transform="translate(17 17)"/>
</clipPath>
</defs>
</svg>
