<svg width="88" height="88" viewBox="0 0 88 88" fill="none" xmlns="http://www.w3.org/2000/svg">
<circle cx="44" cy="44" r="44" fill="#E31E24"/>
<path d="M66.1378 48.9839L66.1273 48.9659C65.6471 48.2347 64.914 47.7064 64.0685 47.4821C63.223 47.2578 62.3244 47.3532 61.5448 47.7502L56.7388 50.2079C56.1632 49.3998 55.3164 48.8255 54.3527 48.5897C53.3889 48.3538 52.3726 48.4722 51.4888 48.9232L45.4363 52.0252C45.1207 52.1878 44.7703 52.2716 44.4152 52.2694C44.06 52.2671 43.7107 52.179 43.3971 52.0124L39.2721 49.8224C37.711 48.9891 35.9496 48.6045 34.1832 48.7115C32.4169 48.8185 30.7147 49.4128 29.2656 50.4284L28.7998 48.2069C28.7795 48.1102 28.7403 48.0185 28.6844 47.937C28.6286 47.8555 28.5572 47.7859 28.4743 47.7321C28.3914 47.6783 28.2988 47.6414 28.2016 47.6235C28.1044 47.6056 28.0047 47.6071 27.9081 47.6279L22.0919 48.8827C21.8982 48.9244 21.729 49.0411 21.6211 49.2072C21.5132 49.3733 21.4753 49.5753 21.5159 49.7692L24.9021 65.9039C24.9366 66.0731 25.0285 66.2251 25.1621 66.3344C25.2957 66.4437 25.463 66.5036 25.6356 66.5039C25.6885 66.5036 25.7413 66.4981 25.7931 66.4874L31.6123 65.2349C31.8061 65.1931 31.9755 65.0764 32.0834 64.9101C32.1913 64.7439 32.2291 64.5416 32.1883 64.3477L31.8883 62.9039L33.8766 62.4757C34.4561 62.3518 35.0526 62.3289 35.6398 62.4082L44.9908 63.4334C46.9323 63.6902 48.9006 63.2282 50.5251 62.1344L65.5048 52.0844C65.9946 51.7529 66.3352 51.2427 66.4535 50.6632C66.5718 50.0837 66.4585 49.4809 66.1378 48.9839ZM26.2146 64.8584L23.1396 50.1922L27.4896 49.2547L30.5646 63.9217L26.2146 64.8584ZM64.6701 50.8409L49.6903 60.8909C48.3621 61.7818 46.7535 62.1554 45.1686 61.9409L35.8176 60.9157C35.0651 60.8142 34.3007 60.8447 33.5586 61.0057L31.5771 61.4317L29.6001 52.0252L30.1124 51.6682C31.3355 50.8074 32.7736 50.303 34.2664 50.2111C35.7593 50.1193 37.2483 50.4435 38.5678 51.1477L42.6928 53.3377C43.22 53.6178 43.8071 53.7663 44.4041 53.7703C45.0011 53.7744 45.5902 53.6339 46.1211 53.3609L52.1751 50.2552C52.7803 49.9459 53.4811 49.8807 54.1329 50.073C54.7848 50.2653 55.338 50.7004 55.6783 51.2887C55.7783 51.4609 55.8064 51.6655 55.7567 51.8583C55.7071 52.0511 55.5835 52.2166 55.4128 52.3192L47.0668 57.2692C45.6077 58.1395 43.8695 58.4147 42.2128 58.0379L34.6858 56.2379L34.3378 57.6974L41.8716 59.4974C43.9051 59.9633 46.0399 59.6273 47.8318 58.5592L56.1778 53.6092C56.5197 53.4039 56.801 53.1116 56.9927 52.7619C57.1844 52.4123 57.2798 52.018 57.2691 51.6194L62.2251 49.0837C62.6739 48.8558 63.1908 48.8008 63.6774 48.9293C64.1641 49.0578 64.5865 49.3607 64.8643 49.7804L64.8726 49.7932C64.9807 49.9602 65.0199 50.1625 64.9822 50.3578C64.9444 50.5531 64.8326 50.7262 64.6701 50.8409Z" fill="white"/>
<path d="M26.3547 51.0354L24.8867 51.3438L25.1947 52.8103L26.6627 52.5019L26.3547 51.0354Z" fill="white"/>
<path d="M43.5588 49.856C43.6871 49.9495 43.8418 49.9999 44.0005 49.9999C44.1593 49.9999 44.314 49.9495 44.4423 49.856C51.9678 44.3668 56.6005 39.1325 58.2835 34.25H62.1385C62.3155 34.7504 62.6636 35.1722 63.1214 35.4407C63.5792 35.7093 64.1172 35.8074 64.6403 35.7176C65.1635 35.6278 65.638 35.3561 65.9801 34.9503C66.3222 34.5444 66.5099 34.0308 66.5099 33.5C66.5099 32.9692 66.3222 32.4556 65.9801 32.0498C65.638 31.644 65.1635 31.3722 64.6403 31.2824C64.1172 31.1927 63.5792 31.2907 63.1214 31.5593C62.6636 31.8278 62.3155 32.2496 62.1385 32.75H58.7005C58.8283 32.1971 58.9173 31.636 58.9668 31.0708C59.0993 29.9318 59.0005 28.7778 58.6766 27.6779C58.3526 26.578 57.81 25.5548 57.0813 24.6695C56.3417 23.6841 55.3826 22.8847 54.2802 22.3345C53.1778 21.7843 51.9624 21.4986 50.7303 21.5C48.254 21.5968 45.8828 22.5265 44.0005 24.1385C42.1183 22.5265 39.7471 21.5968 37.2708 21.5C36.0385 21.4987 34.8229 21.7844 33.7202 22.3345C32.6176 22.8847 31.6583 23.6841 30.9183 24.6695C30.1899 25.555 29.6476 26.5783 29.3238 27.6781C28.9999 28.778 28.9012 29.9319 29.0335 31.0708C29.4858 36.8345 34.3728 43.1555 43.5588 49.856ZM64.2505 32.75C64.3989 32.75 64.5439 32.794 64.6672 32.8764C64.7906 32.9588 64.8867 33.0759 64.9434 33.213C65.0002 33.35 65.0151 33.5008 64.9861 33.6463C64.9572 33.7918 64.8858 33.9254 64.7809 34.0303C64.676 34.1352 64.5423 34.2067 64.3969 34.2356C64.2514 34.2645 64.1006 34.2497 63.9635 34.1929C63.8265 34.1361 63.7093 34.04 63.6269 33.9167C63.5445 33.7933 63.5005 33.6483 63.5005 33.5C63.5005 33.3011 63.5796 33.1103 63.7202 32.9697C63.8609 32.829 64.0516 32.75 64.2505 32.75ZM32.0335 25.6723C32.0686 25.6376 32.1 25.5994 32.1273 25.5583C32.7287 24.7634 33.5061 24.1188 34.3985 23.6749C35.2909 23.231 36.2741 23 37.2708 23C40.7463 23 43.4433 25.6468 43.4703 25.673C43.5399 25.7427 43.6227 25.7981 43.7137 25.8358C43.8048 25.8735 43.9023 25.893 44.0009 25.893C44.0995 25.893 44.1971 25.8735 44.2881 25.8358C44.3792 25.7981 44.4619 25.7427 44.5315 25.673C44.5585 25.6453 47.236 23 50.7303 23C51.7277 22.9962 52.7121 23.2256 53.6051 23.6698C54.4981 24.1139 55.275 24.7606 55.8738 25.5583C55.9011 25.5994 55.9325 25.6376 55.9675 25.6723C56.5622 26.4045 57.0021 27.2498 57.2607 28.1569C57.5193 29.0641 57.5912 30.0143 57.472 30.95C57.4222 31.5578 57.3193 32.1601 57.1645 32.75H51.1855L48.4015 27.875C48.3318 27.7519 48.2286 27.651 48.1039 27.584C47.9793 27.517 47.8382 27.4866 47.697 27.4964C47.5558 27.5062 47.4203 27.5558 47.306 27.6394C47.1918 27.723 47.1036 27.8371 47.0515 27.9688L43.3428 37.25L40.9668 29.5295C40.9242 29.391 40.8424 29.2678 40.7313 29.1748C40.6202 29.0819 40.4845 29.023 40.3407 29.0055C40.1969 28.988 40.051 29.0125 39.9208 29.0761C39.7906 29.1396 39.6817 29.2396 39.607 29.3638L37.5753 32.75H32.7505V34.25H38.0005C38.13 34.25 38.2572 34.2165 38.3698 34.1527C38.4824 34.089 38.5766 33.9972 38.6433 33.8863L40.0255 31.5785L42.5313 39.7205C42.5776 39.8681 42.6684 39.9978 42.7912 40.0918C42.9141 40.1857 43.063 40.2394 43.2175 40.2455H43.2505C43.4005 40.2456 43.5471 40.2006 43.6713 40.1165C43.7955 40.0324 43.8916 39.913 43.9473 39.7738L47.8698 29.966L50.0995 33.866C50.1643 33.9819 50.2587 34.0785 50.3731 34.146C50.4875 34.2135 50.6177 34.2494 50.7505 34.25H56.6755C55.2873 37.784 51.8343 42.524 44.0005 48.3193C33.4323 40.5013 30.8373 34.601 30.5335 31.01C30.4054 30.065 30.4724 29.1038 30.7304 28.1857C30.9884 27.2676 31.4319 26.4122 32.0335 25.6723Z" fill="white"/>
<path d="M27.5 32.75H21.5V34.25H27.5V32.75Z" fill="white"/>
</svg>
