<svg width="88" height="88" viewBox="0 0 88 88" fill="none" xmlns="http://www.w3.org/2000/svg">
<circle cx="44" cy="44" r="44" fill="#E31E24"/>
<path d="M61.1853 63.1408C61.1853 63.3726 61.1165 63.5992 60.9878 63.7919C60.859 63.9846 60.676 64.1348 60.4618 64.2235C60.2477 64.3122 60.0121 64.3354 59.7848 64.2902C59.5574 64.245 59.3486 64.1334 59.1847 63.9695C59.0208 63.8056 58.9092 63.5968 58.864 63.3694C58.8188 63.1421 58.842 62.9065 58.9307 62.6924C59.0194 62.4782 59.1696 62.2952 59.3623 62.1664C59.555 62.0377 59.7816 61.9689 60.0134 61.9689C60.3241 61.9693 60.622 62.0929 60.8416 62.3125C61.0613 62.5322 61.1849 62.8301 61.1853 63.1408ZM67.9877 30.4901L57.5826 40.8952C58.1471 40.9682 58.6656 41.2445 59.0411 41.6722C59.4166 42.0999 59.6234 42.6498 59.6228 43.2189V49.1454L67.9877 57.5103L66.8828 58.6151L63.529 55.2613L55.2589 63.5314L58.6127 66.8853L57.5078 67.9901L48.1328 58.6151L49.2377 57.5103L51.029 59.3016L59.2991 51.0314L58.2891 50.0214C58.2165 49.9488 58.159 49.8627 58.1197 49.7679C58.0805 49.6731 58.0603 49.5715 58.0603 49.4689V43.2189C58.0603 43.0117 57.9779 42.813 57.8314 42.6665C57.6849 42.52 57.4862 42.4377 57.279 42.4377C57.0718 42.4377 56.8731 42.52 56.7266 42.6665C56.5801 42.813 56.4978 43.0117 56.4978 43.2189V46.3439C56.4978 46.4985 56.4519 46.6495 56.3661 46.778C56.2803 46.9065 56.1582 47.0066 56.0155 47.0658C55.8727 47.1249 55.7156 47.1404 55.5641 47.1102C55.4125 47.0801 55.2733 47.0057 55.1641 46.8964L53.3728 45.1051L50.4096 48.0683C49.9758 48.5042 49.3924 48.7589 48.7778 48.7805C48.7563 49.395 48.5017 49.9783 48.0658 50.412L43.54 54.9377H44.779C45.4006 54.9377 45.9967 55.1846 46.4363 55.6242C46.8758 56.0637 47.1228 56.6598 47.1228 57.2814C47.1228 57.903 46.8758 58.4992 46.4363 58.9387C45.9967 59.3783 45.4006 59.6252 44.779 59.6252H38.8525L30.4877 67.9901L29.3828 66.8853L32.7366 63.5314L24.4665 55.2613L21.1127 58.6151L20.0078 57.5103L30.4129 47.1057C29.8483 47.0326 29.3298 46.7563 28.9542 46.3285C28.5787 45.9007 28.372 45.3507 28.3728 44.7814V38.855L20.0078 30.4901L21.1127 29.3853L24.4665 32.7391L26.2578 30.9478L27.3627 32.0526L25.5714 33.8439L27.5915 35.8641L35.8616 27.5939L33.8415 25.5738L28.5346 30.8808L27.4297 29.7759L32.7366 24.4689L29.3828 21.1151L30.4877 20.0103L40.8928 30.4153C40.9658 29.8509 41.242 29.3324 41.6697 28.9569C42.0974 28.5813 42.6473 28.3746 43.2165 28.3752H49.1429L57.5078 20.0103L58.6127 21.1151L55.2589 24.4689L63.529 32.7391L66.8828 29.3853L67.9877 30.4901ZM52.1339 60.4064L54.154 62.4266L62.4241 54.1564L60.404 52.1363L52.1339 60.4064ZM30.7165 45.5627C30.9236 45.5625 31.1222 45.4801 31.2687 45.3336C31.4151 45.1872 31.4975 44.9886 31.4978 44.7814V41.6564C31.4977 41.5019 31.5436 41.3509 31.6294 41.2224C31.7153 41.0939 31.8373 40.9938 31.98 40.9346C32.1228 40.8755 32.2799 40.86 32.4314 40.8902C32.583 40.9203 32.7222 40.9947 32.8314 41.104L34.6228 42.8953L37.5859 39.9321C37.8232 39.6948 38.107 39.5091 38.4194 39.3868C38.7319 39.2645 39.0663 39.2081 39.4017 39.2213L39.8627 38.7603L43.3783 42.2759C43.5426 42.4402 43.7654 42.5325 43.9978 42.5325C44.2301 42.5325 44.4529 42.4402 44.6172 42.2759C44.7815 42.1116 44.8738 41.8888 44.8738 41.6564C44.8738 41.4241 44.7815 41.2013 44.6172 41.037L41.1016 37.5214L42.2064 36.4165L45.7221 39.9321C45.8863 40.0963 46.1091 40.1885 46.3413 40.1885C46.5735 40.1885 46.7963 40.0963 46.9605 39.9321L46.9612 39.9314C47.1252 39.767 47.2173 39.5443 47.2173 39.3122C47.2173 39.08 47.1252 38.8573 46.9612 38.6929L36.9665 28.6988L28.6964 36.9689L29.7064 37.979C29.779 38.0516 29.8365 38.1377 29.8758 38.2325C29.9151 38.3273 29.9353 38.4288 29.9353 38.5314V44.7814C29.935 44.8841 29.955 44.9858 29.9941 45.0808C30.0333 45.1757 30.0908 45.2619 30.1634 45.3345C30.236 45.4071 30.3223 45.4647 30.4172 45.5038C30.5121 45.543 30.6138 45.563 30.7165 45.5627ZM33.0603 43.5425V44.4578L33.5179 44.0002L33.0603 43.5425ZM35.8616 60.4064L27.5915 52.1363L25.5714 54.1564L33.8415 62.4266L35.8616 60.4064ZM47.2176 48.6877C47.2176 48.5144 47.1662 48.3451 47.0699 48.201C46.9736 48.057 46.8368 47.9447 46.6768 47.8784C46.5167 47.8121 46.3405 47.7947 46.1706 47.8285C46.0007 47.8623 45.8446 47.9458 45.7221 48.0683L42.2064 51.5839C42.0599 51.7304 41.8612 51.8127 41.654 51.8127C41.4468 51.8127 41.2481 51.7304 41.1016 51.5839C40.955 51.4374 40.8727 51.2386 40.8727 51.0314C40.8727 50.8242 40.955 50.6255 41.1016 50.479L44.6172 46.9634C44.7815 46.7991 44.8738 46.5763 44.8738 46.3439C44.8738 46.1116 44.7815 45.8888 44.6172 45.7245C44.4529 45.5602 44.2301 45.4679 43.9978 45.4679C43.7654 45.4679 43.5426 45.5602 43.3783 45.7245L39.8627 49.2401C39.7162 49.3867 39.5175 49.469 39.3103 49.469C39.103 49.469 38.9043 49.3867 38.7578 49.2401C38.6113 49.0936 38.529 48.8949 38.529 48.6877C38.529 48.4805 38.6113 48.2818 38.7578 48.1353L42.2734 44.6196C42.3548 44.5383 42.4193 44.4417 42.4633 44.3354C42.5074 44.2291 42.53 44.1152 42.53 44.0002C42.53 43.8852 42.5074 43.7712 42.4633 43.665C42.4193 43.5587 42.3548 43.4621 42.2734 43.3808C42.1921 43.2994 42.0955 43.2349 41.9892 43.1909C41.883 43.1468 41.769 43.1242 41.654 43.1242C41.539 43.1242 41.4251 43.1468 41.3188 43.1909C41.2125 43.2349 41.1159 43.2994 41.0346 43.3808L37.5189 46.8964C37.4464 46.9689 37.3603 47.0265 37.2655 47.0657C37.1707 47.105 37.0691 47.1252 36.9665 47.1252C36.8639 47.1252 36.7623 47.105 36.6675 47.0657C36.5727 47.0265 36.4866 46.9689 36.4141 46.8964C36.3415 46.8238 36.284 46.7377 36.2447 46.6429C36.2054 46.5481 36.1852 46.4465 36.1852 46.3439C36.1852 46.2413 36.2054 46.1398 36.2447 46.045C36.284 45.9502 36.3415 45.864 36.4141 45.7915L39.9297 42.2759C40.094 42.1116 40.1863 41.8888 40.1863 41.6564C40.1863 41.4241 40.094 41.2013 39.9297 41.037C39.7654 40.8727 39.5426 40.7804 39.3103 40.7804C39.0779 40.7804 38.8551 40.8727 38.6908 41.037L28.6964 51.0314L36.9665 59.3016L37.9766 58.2915C38.0491 58.219 38.1352 58.1614 38.23 58.1222C38.3248 58.0829 38.4264 58.0627 38.529 58.0627H44.779C44.9862 58.0627 45.1849 57.9804 45.3314 57.8339C45.4779 57.6874 45.5603 57.4886 45.5603 57.2814C45.5603 57.0742 45.4779 56.8755 45.3314 56.729C45.1849 56.5825 44.9862 56.5002 44.779 56.5002H41.654C41.4995 56.5002 41.3484 56.4544 41.2199 56.3685C41.0915 56.2827 40.9913 56.1607 40.9322 56.0179C40.8731 55.8752 40.8576 55.7181 40.8877 55.5665C40.9179 55.415 40.9923 55.2758 41.1016 55.1665L46.9609 49.3071C47.0426 49.226 47.1073 49.1294 47.1513 49.0231C47.1954 48.9168 47.2179 48.8028 47.2176 48.6877ZM54.9353 43.5426L54.4776 44.0002L54.9353 44.4579V43.5426ZM59.2991 36.9689L51.029 28.6988L50.0189 29.7089C49.9464 29.7814 49.8603 29.839 49.7655 29.8782C49.6707 29.9175 49.5691 29.9377 49.4665 29.9377H43.2165C43.0093 29.9377 42.8106 30.02 42.6641 30.1665C42.5176 30.313 42.4353 30.5117 42.4353 30.7189C42.4353 30.9261 42.5176 31.1249 42.6641 31.2714C42.8106 31.4179 43.0093 31.5002 43.2165 31.5002H46.3415C46.496 31.5002 46.6471 31.546 46.7756 31.6318C46.904 31.7177 47.0042 31.8397 47.0633 31.9825C47.1224 32.1252 47.1379 32.2823 47.1078 32.4339C47.0776 32.5854 47.0032 32.7246 46.8939 32.8339L46.1127 33.6151L45.5603 33.0627H43.5401L48.0658 37.5884C48.293 37.8143 48.4731 38.083 48.5957 38.379C48.7184 38.675 48.781 38.9923 48.7802 39.3127C48.7802 39.3437 48.7791 39.3746 48.7779 39.4054L49.2377 39.8651L45.7221 43.3808C45.5579 43.545 45.4656 43.7678 45.4656 44.0001C45.4656 44.2324 45.5579 44.4551 45.7221 44.6194C45.8865 44.7834 46.1092 44.8754 46.3414 44.8754C46.5736 44.8754 46.7963 44.7834 46.9607 44.6194L50.4764 41.1038L51.5813 42.2087L48.0656 45.7243C47.9014 45.8886 47.8092 46.1114 47.8092 46.3437C47.8092 46.5759 47.9014 46.7987 48.0656 46.963C48.23 47.1269 48.4527 47.219 48.6849 47.219C48.9171 47.219 49.1398 47.1269 49.3042 46.963L59.2991 36.9689ZM62.4241 33.8439L54.154 25.5738L52.1339 27.5939L60.404 35.8641L62.4241 33.8439ZM61.9665 27.9846C61.9665 28.2163 62.0352 28.4429 62.164 28.6356C62.2928 28.8283 62.4758 28.9785 62.6899 29.0672C62.9041 29.1559 63.1397 29.1791 63.367 29.1339C63.5943 29.0887 63.8031 28.9771 63.967 28.8132C64.1309 28.6493 64.2425 28.4405 64.2877 28.2132C64.333 27.9859 64.3097 27.7502 64.2211 27.5361C64.1324 27.322 63.9822 27.139 63.7894 27.0102C63.5967 26.8814 63.3702 26.8127 63.1384 26.8127C62.8277 26.813 62.5298 26.9366 62.3101 27.1563C62.0904 27.376 61.9668 27.6739 61.9665 27.9846ZM26.8103 24.8596C26.8103 25.0913 26.879 25.3179 27.0078 25.5106C27.1365 25.7033 27.3195 25.8535 27.5337 25.9422C27.7478 26.0309 27.9834 26.0541 28.2108 26.0089C28.4381 25.9637 28.6469 25.8521 28.8108 25.6882C28.9747 25.5243 29.0863 25.3155 29.1315 25.0882C29.1767 24.8609 29.1535 24.6252 29.0648 24.4111C28.9761 24.197 28.8259 24.014 28.6332 23.8852C28.4405 23.7564 28.2139 23.6877 27.9821 23.6877C27.6714 23.688 27.3736 23.8116 27.1539 24.0313C26.9342 24.251 26.8106 24.5489 26.8103 24.8596ZM24.8571 58.8439C24.6254 58.8439 24.3988 58.9127 24.2061 59.0414C24.0134 59.1702 23.8632 59.3532 23.7745 59.5674C23.6858 59.7815 23.6626 60.0171 23.7078 60.2444C23.753 60.4718 23.8646 60.6806 24.0285 60.8445C24.1924 61.0084 24.4012 61.12 24.6285 61.1652C24.8558 61.2104 25.0915 61.1872 25.3056 61.0985C25.5197 61.0098 25.7027 60.8596 25.8315 60.6669C25.9603 60.4742 26.029 60.2476 26.029 60.0158C26.0287 59.7051 25.9051 59.4072 25.6854 59.1875C25.4657 58.9679 25.1678 58.8443 24.8571 58.8439ZM44.779 20.5627H43.2165V22.1252H44.779V20.5627ZM43.2165 26.8127H44.779V23.6877H43.2165V26.8127ZM39.2266 26.9901L40.7481 26.6353L39.2898 20.3853L37.7682 20.7401L39.2266 26.9901ZM48.7689 26.9901L50.2273 20.7401L48.7057 20.3853L47.2474 26.6353L48.7689 26.9901ZM43.2165 67.4377H44.779V65.8752H43.2165V67.4377ZM44.779 61.1877H43.2165V64.3127H44.779V61.1877ZM50.2273 67.2603L48.7689 61.0103L47.2474 61.3651L48.7057 67.6151L50.2273 67.2603ZM39.2266 61.0103L37.7682 67.2603L39.2898 67.6151L40.7481 61.3651L39.2266 61.0103ZM22.1228 44.7814V43.2189H20.5603V44.7814H22.1228ZM23.6853 44.7814H26.8103V43.2189H23.6853V44.7814ZM20.7378 50.2298L26.9878 48.7714L26.6327 47.2497L20.3827 48.7081L20.7378 50.2298ZM20.7378 37.7706L20.3827 39.2923L26.6327 40.7507L26.9878 39.229L20.7378 37.7706ZM65.8728 43.2189V44.7814H67.4353V43.2189H65.8728ZM64.3103 43.2189H61.1853V44.7814H64.3103V43.2189ZM67.2577 37.7706L61.0077 39.229L61.3628 40.7507L67.6128 39.2923L67.2577 37.7706ZM67.2577 50.2298L67.6128 48.7081L61.3628 47.2497L61.0077 48.7714L67.2577 50.2298Z" fill="white"/>
</svg>
