<svg width="88" height="88" viewBox="0 0 88 88" fill="none" xmlns="http://www.w3.org/2000/svg">
<circle cx="44" cy="44" r="44" fill="#E31E24"/>
<g clip-path="url(#clip0)">
<mask id="path-2-inside-1" fill="white">
<path d="M60.0779 46.2172C60.0741 44.6786 59.7115 43.1664 59.0202 41.7938L60.608 40.2059C61.7984 39.0155 61.7984 37.0784 60.608 35.8879C60.0143 35.2941 59.2348 34.9967 58.4548 34.9952C58.4537 34.1813 58.1363 33.4163 57.5607 32.8406C56.9665 32.2465 56.1865 31.949 55.406 31.9479C55.4049 31.1674 55.1074 30.3873 54.5132 29.7932C53.9379 29.2179 53.1733 28.9005 52.36 28.8991C52.3585 28.0858 52.0411 27.3212 51.4659 26.7458C50.8892 26.1692 50.1224 25.8516 49.3069 25.8516C48.4914 25.8516 47.7246 26.1692 47.148 26.7458L43.9985 29.8953L42.246 28.1428C41.6693 27.5661 40.9026 27.2485 40.087 27.2485C39.2715 27.2485 38.5047 27.5661 37.9281 28.1428C37.3524 28.7185 37.0351 29.4835 37.0339 30.2975C36.254 30.2989 35.4745 30.5964 34.8807 31.1902C34.3053 31.7655 33.988 32.53 33.9865 33.3434C33.1732 33.3449 32.4086 33.6622 31.8333 34.2376C30.8502 35.2206 30.6799 36.7125 31.3203 37.873C30.8792 38.0172 30.4644 38.2634 30.1144 38.6134C28.924 39.8039 28.924 41.7409 30.1144 42.9314L31.3861 44.2031L21.2827 54.3066C20.9318 54.6574 20.9318 55.2263 21.2827 55.5772C21.4581 55.7526 21.688 55.8404 21.9179 55.8404C22.1478 55.8404 22.3778 55.7526 22.5532 55.5772L29.4022 48.7282L35.8181 55.1441L25.5416 65.4206C25.1908 65.7714 25.1908 66.3403 25.5416 66.6912C25.7171 66.8666 25.947 66.9544 26.1769 66.9544C26.4068 66.9544 26.6368 66.8666 26.8122 66.6912L40.7021 52.8013C40.958 52.5454 41.2492 52.3381 41.5644 52.1821L43.7382 53.6139C45.176 54.5608 46.9289 54.9308 48.6189 54.6571L60.6988 66.737C60.8742 66.9124 61.1041 67.0002 61.334 67.0002C61.5639 67.0002 61.7939 66.9124 61.9693 66.737C62.3201 66.3862 62.3201 65.8173 61.9693 65.4664L54.9604 58.4575L55.8077 57.6102C56.1585 57.2593 56.1585 56.6905 55.8077 56.3395C55.4568 55.9888 54.888 55.9888 54.537 56.3395L53.6897 57.1868L51.7059 55.203L59.1141 47.7947L61.098 49.7786L60.2526 50.6241C59.9018 50.975 59.9018 51.5438 60.2526 51.8947C60.4281 52.0701 60.658 52.1578 60.8879 52.1578C61.1178 52.1578 61.3478 52.0701 61.5232 51.8947L62.3686 51.0493L65.4632 54.1439C65.6386 54.3193 65.8685 54.407 66.0984 54.407C66.3284 54.407 66.5584 54.3193 66.7337 54.1439C67.0846 53.793 67.0846 53.2242 66.7337 52.8732L60.0779 46.2172ZM48.4185 28.0164C48.6558 27.7791 48.9713 27.6484 49.3069 27.6484C49.6425 27.6484 49.958 27.7791 50.1952 28.0164C50.4326 28.2537 50.5632 28.5692 50.5632 28.9048C50.5632 29.2404 50.4325 29.5559 50.1952 29.7932L48.221 31.7675C47.8701 32.1183 47.8701 32.6872 48.221 33.0381C48.5718 33.389 49.1407 33.3889 49.4916 33.0381L51.4659 31.0638C51.7032 30.8265 52.0187 30.6958 52.3543 30.6958C52.6899 30.6958 53.0054 30.8266 53.2427 31.0638C53.7326 31.5537 53.7326 32.3507 53.2427 32.8406L50.228 35.8554C49.8771 36.2062 49.8771 36.7751 50.228 37.126C50.4034 37.3015 50.6333 37.3892 50.8632 37.3892C51.0931 37.3892 51.3231 37.3015 51.4985 37.126L54.5132 34.1113C54.7505 33.8739 55.066 33.7433 55.4016 33.7433C55.7372 33.7433 56.0528 33.874 56.29 34.1113C56.5273 34.3485 56.658 34.6641 56.658 34.9996C56.658 35.3352 56.5273 35.6507 56.29 35.888L53.2753 38.9027C52.9245 39.2536 52.9245 39.8224 53.2753 40.1734C53.4508 40.3488 53.6807 40.4365 53.9106 40.4365C54.1405 40.4365 54.3705 40.3488 54.5458 40.1734L57.5605 37.1586C58.0503 36.6687 58.8475 36.6688 59.3373 37.1586C59.8272 37.6485 59.8272 38.4456 59.3373 38.9354L51.9113 46.3614C49.5337 48.7391 46.3726 50.0485 43.01 50.0485C42.0994 50.0485 41.226 50.2883 40.4603 50.7364L35.2602 45.5362C35.6603 45.3851 36.0276 45.15 36.3392 44.8384C36.9149 44.2627 37.2322 43.4977 37.2334 42.6837C38.0133 42.6823 38.7929 42.3847 39.3866 41.791C39.9804 41.1972 40.2779 40.4177 40.2793 39.6377C41.0933 39.6366 41.8584 39.3192 42.434 38.7435C43.0277 38.1498 43.3252 37.3703 43.3266 36.5903C44.1406 36.5892 44.9056 36.2718 45.4812 35.6962C46.0579 35.1195 46.3755 34.3528 46.3755 33.5372C46.3755 32.7216 46.0579 31.9549 45.4812 31.3782L45.2688 31.1657L48.4185 28.0164ZM39.1987 29.4133C39.436 29.1761 39.7515 29.0454 40.087 29.0454C40.4226 29.0454 40.7381 29.1761 40.9754 29.4133L44.211 32.6488C44.4482 32.8861 44.579 33.2016 44.579 33.5372C44.579 33.8727 44.4482 34.1883 44.211 34.4256C43.9737 34.6629 43.6582 34.7936 43.3226 34.7936C42.9871 34.7936 42.6718 34.663 42.4345 34.4259C42.4344 34.4258 42.4343 34.4257 42.4342 34.4255L39.1987 31.1901C38.9614 30.9528 38.8307 30.6373 38.8307 30.3017C38.8307 29.9661 38.9613 29.6507 39.1987 29.4133ZM36.1512 32.4607C36.3962 32.2157 36.7179 32.0933 37.0397 32.0933C37.3614 32.0933 37.6832 32.2158 37.928 32.4607L41.1635 35.6962C41.6534 36.1861 41.6533 36.9832 41.1635 37.4731C40.9262 37.7103 40.6107 37.8411 40.2752 37.8411C39.9397 37.8411 39.6243 37.7104 39.3871 37.4733C39.387 37.4733 39.3869 37.4732 39.3868 37.473L36.1513 34.2375C35.914 34.0002 35.7833 33.6847 35.7833 33.3491C35.7832 33.0135 35.914 32.6981 36.1512 32.4607ZM33.1039 35.5081C33.3412 35.2708 33.6567 35.1401 33.9922 35.1401C34.3279 35.1401 34.6434 35.2709 34.8807 35.5081L38.1162 38.7436C38.6061 39.2335 38.6061 40.0306 38.1162 40.5204C37.6263 41.0102 36.8292 41.0103 36.3393 40.5204L33.1038 37.2849C32.614 36.7951 32.614 35.998 33.1039 35.5081ZM31.3849 39.884C31.6299 39.639 31.9517 39.5166 32.2734 39.5166C32.5947 39.5166 32.9161 39.6389 33.1608 39.8832L35.0687 41.7911C35.306 42.0283 35.4367 42.3439 35.4367 42.6794C35.4367 43.015 35.306 43.3305 35.0687 43.5679C34.8315 43.8052 34.5159 43.9359 34.1803 43.9359C33.845 43.9359 33.5296 43.8053 33.2924 43.5683L33.2919 43.5679L31.3849 41.6609C30.8951 41.1709 30.8951 40.3738 31.3849 39.884ZM30.6729 47.4576L32.6567 45.4737L39.0727 51.8896L37.0888 53.8735L30.6729 47.4576ZM49.5497 53.0467C49.3285 52.8255 49.0081 52.7349 48.7041 52.8086C47.3443 53.1359 45.8946 52.8826 44.7267 52.1133L44.2401 51.7927C47.6186 51.5085 50.7571 50.057 53.182 47.632L57.6657 43.1484C58.0514 44.0805 58.2595 45.0768 58.2786 46.0895L50.4356 53.9326L49.5497 53.0467Z"/>
</mask>
<path d="M60.0779 46.2172C60.0741 44.6786 59.7115 43.1664 59.0202 41.7938L60.608 40.2059C61.7984 39.0155 61.7984 37.0784 60.608 35.8879C60.0143 35.2941 59.2348 34.9967 58.4548 34.9952C58.4537 34.1813 58.1363 33.4163 57.5607 32.8406C56.9665 32.2465 56.1865 31.949 55.406 31.9479C55.4049 31.1674 55.1074 30.3873 54.5132 29.7932C53.9379 29.2179 53.1733 28.9005 52.36 28.8991C52.3585 28.0858 52.0411 27.3212 51.4659 26.7458C50.8892 26.1692 50.1224 25.8516 49.3069 25.8516C48.4914 25.8516 47.7246 26.1692 47.148 26.7458L43.9985 29.8953L42.246 28.1428C41.6693 27.5661 40.9026 27.2485 40.087 27.2485C39.2715 27.2485 38.5047 27.5661 37.9281 28.1428C37.3524 28.7185 37.0351 29.4835 37.0339 30.2975C36.254 30.2989 35.4745 30.5964 34.8807 31.1902C34.3053 31.7655 33.988 32.53 33.9865 33.3434C33.1732 33.3449 32.4086 33.6622 31.8333 34.2376C30.8502 35.2206 30.6799 36.7125 31.3203 37.873C30.8792 38.0172 30.4644 38.2634 30.1144 38.6134C28.924 39.8039 28.924 41.7409 30.1144 42.9314L31.3861 44.2031L21.2827 54.3066C20.9318 54.6574 20.9318 55.2263 21.2827 55.5772C21.4581 55.7526 21.688 55.8404 21.9179 55.8404C22.1478 55.8404 22.3778 55.7526 22.5532 55.5772L29.4022 48.7282L35.8181 55.1441L25.5416 65.4206C25.1908 65.7714 25.1908 66.3403 25.5416 66.6912C25.7171 66.8666 25.947 66.9544 26.1769 66.9544C26.4068 66.9544 26.6368 66.8666 26.8122 66.6912L40.7021 52.8013C40.958 52.5454 41.2492 52.3381 41.5644 52.1821L43.7382 53.6139C45.176 54.5608 46.9289 54.9308 48.6189 54.6571L60.6988 66.737C60.8742 66.9124 61.1041 67.0002 61.334 67.0002C61.5639 67.0002 61.7939 66.9124 61.9693 66.737C62.3201 66.3862 62.3201 65.8173 61.9693 65.4664L54.9604 58.4575L55.8077 57.6102C56.1585 57.2593 56.1585 56.6905 55.8077 56.3395C55.4568 55.9888 54.888 55.9888 54.537 56.3395L53.6897 57.1868L51.7059 55.203L59.1141 47.7947L61.098 49.7786L60.2526 50.6241C59.9018 50.975 59.9018 51.5438 60.2526 51.8947C60.4281 52.0701 60.658 52.1578 60.8879 52.1578C61.1178 52.1578 61.3478 52.0701 61.5232 51.8947L62.3686 51.0493L65.4632 54.1439C65.6386 54.3193 65.8685 54.407 66.0984 54.407C66.3284 54.407 66.5584 54.3193 66.7337 54.1439C67.0846 53.793 67.0846 53.2242 66.7337 52.8732L60.0779 46.2172ZM48.4185 28.0164C48.6558 27.7791 48.9713 27.6484 49.3069 27.6484C49.6425 27.6484 49.958 27.7791 50.1952 28.0164C50.4326 28.2537 50.5632 28.5692 50.5632 28.9048C50.5632 29.2404 50.4325 29.5559 50.1952 29.7932L48.221 31.7675C47.8701 32.1183 47.8701 32.6872 48.221 33.0381C48.5718 33.389 49.1407 33.3889 49.4916 33.0381L51.4659 31.0638C51.7032 30.8265 52.0187 30.6958 52.3543 30.6958C52.6899 30.6958 53.0054 30.8266 53.2427 31.0638C53.7326 31.5537 53.7326 32.3507 53.2427 32.8406L50.228 35.8554C49.8771 36.2062 49.8771 36.7751 50.228 37.126C50.4034 37.3015 50.6333 37.3892 50.8632 37.3892C51.0931 37.3892 51.3231 37.3015 51.4985 37.126L54.5132 34.1113C54.7505 33.8739 55.066 33.7433 55.4016 33.7433C55.7372 33.7433 56.0528 33.874 56.29 34.1113C56.5273 34.3485 56.658 34.6641 56.658 34.9996C56.658 35.3352 56.5273 35.6507 56.29 35.888L53.2753 38.9027C52.9245 39.2536 52.9245 39.8224 53.2753 40.1734C53.4508 40.3488 53.6807 40.4365 53.9106 40.4365C54.1405 40.4365 54.3705 40.3488 54.5458 40.1734L57.5605 37.1586C58.0503 36.6687 58.8475 36.6688 59.3373 37.1586C59.8272 37.6485 59.8272 38.4456 59.3373 38.9354L51.9113 46.3614C49.5337 48.7391 46.3726 50.0485 43.01 50.0485C42.0994 50.0485 41.226 50.2883 40.4603 50.7364L35.2602 45.5362C35.6603 45.3851 36.0276 45.15 36.3392 44.8384C36.9149 44.2627 37.2322 43.4977 37.2334 42.6837C38.0133 42.6823 38.7929 42.3847 39.3866 41.791C39.9804 41.1972 40.2779 40.4177 40.2793 39.6377C41.0933 39.6366 41.8584 39.3192 42.434 38.7435C43.0277 38.1498 43.3252 37.3703 43.3266 36.5903C44.1406 36.5892 44.9056 36.2718 45.4812 35.6962C46.0579 35.1195 46.3755 34.3528 46.3755 33.5372C46.3755 32.7216 46.0579 31.9549 45.4812 31.3782L45.2688 31.1657L48.4185 28.0164ZM39.1987 29.4133C39.436 29.1761 39.7515 29.0454 40.087 29.0454C40.4226 29.0454 40.7381 29.1761 40.9754 29.4133L44.211 32.6488C44.4482 32.8861 44.579 33.2016 44.579 33.5372C44.579 33.8727 44.4482 34.1883 44.211 34.4256C43.9737 34.6629 43.6582 34.7936 43.3226 34.7936C42.9871 34.7936 42.6718 34.663 42.4345 34.4259C42.4344 34.4258 42.4343 34.4257 42.4342 34.4255L39.1987 31.1901C38.9614 30.9528 38.8307 30.6373 38.8307 30.3017C38.8307 29.9661 38.9613 29.6507 39.1987 29.4133ZM36.1512 32.4607C36.3962 32.2157 36.7179 32.0933 37.0397 32.0933C37.3614 32.0933 37.6832 32.2158 37.928 32.4607L41.1635 35.6962C41.6534 36.1861 41.6533 36.9832 41.1635 37.4731C40.9262 37.7103 40.6107 37.8411 40.2752 37.8411C39.9397 37.8411 39.6243 37.7104 39.3871 37.4733C39.387 37.4733 39.3869 37.4732 39.3868 37.473L36.1513 34.2375C35.914 34.0002 35.7833 33.6847 35.7833 33.3491C35.7832 33.0135 35.914 32.6981 36.1512 32.4607ZM33.1039 35.5081C33.3412 35.2708 33.6567 35.1401 33.9922 35.1401C34.3279 35.1401 34.6434 35.2709 34.8807 35.5081L38.1162 38.7436C38.6061 39.2335 38.6061 40.0306 38.1162 40.5204C37.6263 41.0102 36.8292 41.0103 36.3393 40.5204L33.1038 37.2849C32.614 36.7951 32.614 35.998 33.1039 35.5081ZM31.3849 39.884C31.6299 39.639 31.9517 39.5166 32.2734 39.5166C32.5947 39.5166 32.9161 39.6389 33.1608 39.8832L35.0687 41.7911C35.306 42.0283 35.4367 42.3439 35.4367 42.6794C35.4367 43.015 35.306 43.3305 35.0687 43.5679C34.8315 43.8052 34.5159 43.9359 34.1803 43.9359C33.845 43.9359 33.5296 43.8053 33.2924 43.5683L33.2919 43.5679L31.3849 41.6609C30.8951 41.1709 30.8951 40.3738 31.3849 39.884ZM30.6729 47.4576L32.6567 45.4737L39.0727 51.8896L37.0888 53.8735L30.6729 47.4576ZM49.5497 53.0467C49.3285 52.8255 49.0081 52.7349 48.7041 52.8086C47.3443 53.1359 45.8946 52.8826 44.7267 52.1133L44.2401 51.7927C47.6186 51.5085 50.7571 50.057 53.182 47.632L57.6657 43.1484C58.0514 44.0805 58.2595 45.0768 58.2786 46.0895L50.4356 53.9326L49.5497 53.0467Z" fill="white" stroke="#E31E24" stroke-width="0.6" mask="url(#path-2-inside-1)"/>
<path d="M57.5021 54.6472L57.5021 54.6472C57.3631 54.5083 57.2828 54.3146 57.2828 54.1182C57.2828 53.9209 57.363 53.7281 57.5021 53.589C57.6411 53.45 57.8348 53.3697 58.0312 53.3697C58.2277 53.3697 58.4214 53.45 58.5604 53.589C58.6995 53.7281 58.7797 53.9208 58.7797 54.1182C58.7797 54.3146 58.6994 54.5083 58.5604 54.6472L58.5604 54.6472C58.4213 54.7864 58.2285 54.8666 58.0312 54.8666C57.8348 54.8666 57.6412 54.7862 57.5021 54.6472Z" fill="white" stroke="#E31E24" stroke-width="0.3"/>
<path d="M27.7017 28.453C27.5099 28.453 27.3187 28.38 27.1725 28.2338L27.0664 28.3399L27.1725 28.2338L22.9435 24.0049C22.9435 24.0049 22.9434 24.0048 22.9434 24.0048C22.6512 23.7125 22.6511 23.2386 22.9434 22.9464C23.2358 22.6541 23.7097 22.6541 24.0019 22.9463L28.2309 27.1753C28.2309 27.1753 28.2309 27.1753 28.2309 27.1753C28.5232 27.4676 28.5231 27.9416 28.2309 28.2338L28.2309 28.2338C28.0848 28.38 27.8935 28.453 27.7017 28.453Z" fill="white" stroke="#E31E24" stroke-width="0.3"/>
<path d="M32.7093 24.9994C32.7093 25.4128 32.3743 25.7478 31.9609 25.7478C31.5476 25.7478 31.2125 25.4128 31.2125 24.9994V21.8984C31.2125 21.4851 31.5476 21.15 31.9609 21.15C32.3743 21.15 32.7093 21.4851 32.7093 21.8984V24.9994Z" fill="white" stroke="#E31E24" stroke-width="0.3"/>
<path d="M24.9994 32.7093H21.8984C21.4851 32.7093 21.15 32.3743 21.15 31.9609C21.15 31.5476 21.4851 31.2125 21.8984 31.2125H24.9994C25.4128 31.2125 25.7478 31.5476 25.7478 31.9609C25.7478 32.3743 25.4128 32.7093 24.9994 32.7093Z" fill="white" stroke="#E31E24" stroke-width="0.3"/>
<path d="M60.8222 28.2338L60.8222 28.2339C60.6761 28.38 60.4848 28.453 60.293 28.453C60.1013 28.453 59.91 28.38 59.7637 28.2338C59.4715 27.9414 59.4715 27.4676 59.7637 27.1753L63.9927 22.9464C63.9927 22.9464 63.9927 22.9464 63.9927 22.9464C64.2851 22.6541 64.7589 22.6541 65.0512 22.9464C65.3434 23.2387 65.3434 23.7126 65.0512 24.0049L60.8222 28.2338Z" fill="white" stroke="#E31E24" stroke-width="0.3"/>
<path d="M56.7875 24.9994C56.7875 25.4128 56.4524 25.7478 56.039 25.7478C55.6257 25.7478 55.2906 25.4128 55.2906 24.9994V21.8984C55.2906 21.4851 55.6257 21.15 56.039 21.15C56.4524 21.15 56.7875 21.4851 56.7875 21.8984V24.9994Z" fill="white" stroke="#E31E24" stroke-width="0.3"/>
<path d="M63 32.7093C62.5866 32.7093 62.2516 32.3743 62.2516 31.9609C62.2516 31.5476 62.5866 31.2125 63 31.2125H66.101C66.5143 31.2125 66.8494 31.5476 66.8494 31.9609C66.8494 32.3743 66.5143 32.7093 66.101 32.7093H63Z" fill="white" stroke="#E31E24" stroke-width="0.3"/>
</g>
<defs>
<clipPath id="clip0">
<rect width="46" height="46" fill="white" transform="translate(21 21)"/>
</clipPath>
</defs>
</svg>
