<svg width="15" height="30" viewBox="0 0 15 30" fill="none" xmlns="http://www.w3.org/2000/svg">
<path d="M8.32867 7.29581L14.8284 0.973052C15.0572 0.750445 15.0572 0.389533 14.8284 0.166955C14.5995 -0.0556231 14.2285 -0.0556516 13.9997 0.166955L7.49998 6.48971L1.00029 0.166955C0.77145 -0.0556516 0.400436 -0.0556516 0.171628 0.166955C-0.05718 0.389561 -0.0572093 0.750474 0.171628 0.973052L6.67133 7.29578L0.171628 13.6185C-0.0572093 13.8411 -0.0572093 14.202 0.171628 14.4246C0.286032 14.5359 0.436002 14.5915 0.585972 14.5915C0.735943 14.5915 0.885884 14.5359 1.00032 14.4246L7.49998 8.1019L13.9997 14.4246C14.1141 14.5359 14.2641 14.5915 14.414 14.5915C14.564 14.5915 14.7139 14.5359 14.8284 14.4246C15.0572 14.202 15.0572 13.8411 14.8284 13.6185L8.32867 7.29581Z" fill="#E31E24"/>
<path d="M8.32867 22.2958L14.8284 15.9731C15.0572 15.7504 15.0572 15.3895 14.8284 15.167C14.5995 14.9444 14.2285 14.9443 13.9997 15.167L7.49998 21.4897L1.00029 15.167C0.77145 14.9443 0.400436 14.9443 0.171628 15.167C-0.05718 15.3896 -0.0572093 15.7505 0.171628 15.9731L6.67133 22.2958L0.171628 28.6185C-0.0572093 28.8411 -0.0572093 29.202 0.171628 29.4246C0.286032 29.5359 0.436002 29.5915 0.585972 29.5915C0.735943 29.5915 0.885884 29.5359 1.00032 29.4246L7.49998 23.1019L13.9997 29.4246C14.1141 29.5359 14.2641 29.5915 14.414 29.5915C14.564 29.5915 14.7139 29.5359 14.8284 29.4246C15.0572 29.202 15.0572 28.8411 14.8284 28.6185L8.32867 22.2958Z" fill="black"/>
</svg>
