<svg width="30" height="30" viewBox="0 0 30 30" fill="none" xmlns="http://www.w3.org/2000/svg">
<circle cx="15" cy="15" r="15" fill="#E31E24"/>
<g clip-path="url(#clip0)">
<path d="M24.8128 20.1961C24.7564 20.1016 24.4072 19.3429 22.7271 17.7835C20.9682 16.1506 21.2045 16.4158 23.323 13.5924C24.6133 11.8729 25.1292 10.8228 24.9677 10.3739C24.8141 9.946 23.8651 10.0589 23.8651 10.0589L20.7096 10.0773C20.7096 10.0773 20.476 10.0458 20.3014 10.1494C20.1321 10.2518 20.0232 10.4881 20.0232 10.4881C20.0232 10.4881 19.5231 11.8191 18.8563 12.9505C17.4505 15.3381 16.8874 15.4642 16.6577 15.3158C16.1234 14.9706 16.2573 13.9271 16.2573 13.1868C16.2573 10.8727 16.6078 9.90793 15.5735 9.65854C15.2296 9.57584 14.9775 9.52071 14.0994 9.51153C12.9732 9.49971 12.0189 9.51546 11.4795 9.7793C11.1198 9.95518 10.8429 10.3477 11.0122 10.37C11.2209 10.3975 11.6934 10.4973 11.9441 10.8386C12.2683 11.2783 12.2565 12.268 12.2565 12.268C12.2565 12.268 12.4429 14.9916 11.8221 15.3303C11.3955 15.5626 10.8114 15.0888 9.55783 12.9217C8.91597 11.8125 8.43031 10.5852 8.43031 10.5852C8.43031 10.5852 8.33711 10.3568 8.17041 10.2348C7.96827 10.0864 7.68475 10.0392 7.68475 10.0392L4.68416 10.0576C4.68416 10.0576 4.23394 10.0707 4.06855 10.2663C3.92154 10.4408 4.05673 10.8005 4.05673 10.8005C4.05673 10.8005 6.40628 16.2963 9.0656 19.0672C11.5057 21.6071 14.2753 21.4404 14.2753 21.4404H15.5301C15.5301 21.4404 15.9095 21.3984 16.1024 21.1897C16.2809 20.9981 16.2744 20.6384 16.2744 20.6384C16.2744 20.6384 16.2494 18.9544 17.0318 18.7063C17.8022 18.4621 18.7919 20.3339 19.8407 21.0545C20.6335 21.5992 21.236 21.4798 21.236 21.4798L24.041 21.4404C24.041 21.4404 25.5085 21.3498 24.8128 20.1961Z" fill="white"/>
</g>
<defs>
<clipPath id="clip0">
<rect width="21" height="21" fill="white" transform="translate(4 5)"/>
</clipPath>
</defs>
</svg>
