<svg width="21" height="21" viewBox="0 0 21 21" fill="none" xmlns="http://www.w3.org/2000/svg">
<path d="M20.8813 6.86455L18.6187 4.50416L19.6035 3.8761L19.661 3.38661L19.2042 3.35938L18.0196 4.21143L16.5413 4.21271L15.6364 3.66018L15.3123 3.72636L15.3171 4.08557L15.9004 4.7316L15.8235 5.07095L8.95889 5.8092L1.84835 5.61064L1.08211 5.93184L0.517699 6.64903L0.227307 8.32658L0.17601 9.53246L0 10.6585L0.0483839 11.78L0.246334 11.8205L0.534077 11.5037L0.768007 10.4514L0.5784 8.99159L0.644354 8.98166L1.09005 11.204L0.78646 13.1328L1.06365 16.9821L1.09005 17.4084L1.36018 17.6388L2.55455 17.6407L2.93941 17.5243L1.87086 15.7842L2.40096 13.5744L2.6786 13.5749L3.64729 16.5129L4.14663 17.2672L4.39296 17.4189L5.71138 17.4198L5.88055 17.2081L4.73924 16.5071L3.96541 14.1239L4.15939 13.737L4.61396 13.7792L4.89936 14.478L5.31279 13.7969L5.71337 14.4809L6.05267 13.7381L7.05139 12.9705L10.5954 12.6311L11.1902 13.3583L11.6915 16.9133L11.9552 17.4242L13.1628 17.4237L13.293 17.2322L12.559 16.2107L12.4708 14.2654L12.8672 14.4854L13.2847 15.7776L13.8156 17.4555L14.0537 17.64L15.1341 17.6407L15.2238 17.3967L14.9079 17.1044L13.8891 15.1133L14.124 13.0267L15.2656 12.1823L16.9286 9.09343L18.8426 8.20981L20.6028 8.00943L20.7537 7.84583L21 7.15159L20.8813 6.86455Z" fill="#E31E24"/>
</svg>
