<svg width="31" height="31" viewBox="0 0 31 31" fill="none" xmlns="http://www.w3.org/2000/svg">
<path d="M15.5 11.0078C13 11.0078 11.0078 13.0391 11.0078 15.5C11.0078 18 13 19.9922 15.5 19.9922C17.9609 19.9922 19.9922 18 19.9922 15.5C19.9922 13.0391 17.9609 11.0078 15.5 11.0078ZM15.5 18.4297C13.8984 18.4297 12.5703 17.1406 12.5703 15.5C12.5703 13.8984 13.8594 12.6094 15.5 12.6094C17.1016 12.6094 18.3906 13.8984 18.3906 15.5C18.3906 17.1406 17.1016 18.4297 15.5 18.4297ZM21.2031 10.8516C21.2031 10.2656 20.7344 9.79688 20.1484 9.79688C19.5625 9.79688 19.0938 10.2656 19.0938 10.8516C19.0938 11.4375 19.5625 11.9062 20.1484 11.9062C20.7344 11.9062 21.2031 11.4375 21.2031 10.8516ZM24.1719 11.9062C24.0938 10.5 23.7812 9.25 22.7656 8.23438C21.75 7.21875 20.5 6.90625 19.0938 6.82812C17.6484 6.75 13.3125 6.75 11.8672 6.82812C10.4609 6.90625 9.25 7.21875 8.19531 8.23438C7.17969 9.25 6.86719 10.5 6.78906 11.9062C6.71094 13.3516 6.71094 17.6875 6.78906 19.1328C6.86719 20.5391 7.17969 21.75 8.19531 22.8047C9.25 23.8203 10.4609 24.1328 11.8672 24.2109C13.3125 24.2891 17.6484 24.2891 19.0938 24.2109C20.5 24.1328 21.75 23.8203 22.7656 22.8047C23.7812 21.75 24.0938 20.5391 24.1719 19.1328C24.25 17.6875 24.25 13.3516 24.1719 11.9062ZM22.2969 20.6562C22.0234 21.4375 21.3984 22.0234 20.6562 22.3359C19.4844 22.8047 16.75 22.6875 15.5 22.6875C14.2109 22.6875 11.4766 22.8047 10.3438 22.3359C9.5625 22.0234 8.97656 21.4375 8.66406 20.6562C8.19531 19.5234 8.3125 16.7891 8.3125 15.5C8.3125 14.25 8.19531 11.5156 8.66406 10.3438C8.97656 9.60156 9.5625 9.01562 10.3438 8.70312C11.4766 8.23438 14.2109 8.35156 15.5 8.35156C16.75 8.35156 19.4844 8.23438 20.6562 8.70312C21.3984 8.97656 21.9844 9.60156 22.2969 10.3438C22.7656 11.5156 22.6484 14.25 22.6484 15.5C22.6484 16.7891 22.7656 19.5234 22.2969 20.6562Z" fill="#E31E24"/>
</svg>
