<svg width="31" height="62" viewBox="0 0 31 62" fill="none" xmlns="http://www.w3.org/2000/svg">
<g clip-path="url(#clip0)">
<path d="M25.8217 21.1962C25.768 21.1017 25.4355 20.343 23.8353 18.7836C22.1602 17.1508 22.3852 17.4159 24.4029 14.5925C25.6317 12.873 26.123 11.8229 25.9692 11.374C25.823 10.9461 24.9192 11.059 24.9192 11.059L21.9139 11.0774C21.9139 11.0774 21.6914 11.0459 21.5252 11.1496C21.3639 11.252 21.2602 11.4882 21.2602 11.4882C21.2602 11.4882 20.7839 12.8192 20.1488 13.9507C18.81 16.3383 18.2737 16.4643 18.0549 16.316C17.5461 15.9707 17.6736 14.9272 17.6736 14.1869C17.6736 11.8728 18.0074 10.9081 17.0223 10.6587C16.6948 10.576 16.4548 10.5208 15.6185 10.5116C14.5459 10.4998 13.6371 10.5156 13.1233 10.7794C12.7808 10.9553 12.517 11.3478 12.6783 11.3701C12.877 11.3977 13.3271 11.4974 13.5658 11.8387C13.8746 12.2784 13.8634 13.2681 13.8634 13.2681C13.8634 13.2681 14.0409 15.9917 13.4496 16.3304C13.0433 16.5627 12.487 16.0889 11.2932 13.9218C10.6819 12.8126 10.2193 11.5854 10.2193 11.5854C10.2193 11.5854 10.1306 11.357 9.97182 11.2349C9.77931 11.0866 9.50929 11.0393 9.50929 11.0393L6.65158 11.0577C6.65158 11.0577 6.2228 11.0708 6.06528 11.2664C5.92527 11.441 6.05403 11.8006 6.05403 11.8006C6.05403 11.8006 8.2917 17.2965 10.8244 20.0674C13.1483 22.6072 15.786 22.4405 15.786 22.4405H16.9811C16.9811 22.4405 17.3424 22.3985 17.5261 22.1898C17.6961 21.9982 17.6899 21.6385 17.6899 21.6385C17.6899 21.6385 17.6661 19.9545 18.4112 19.7064C19.145 19.4622 20.0876 21.334 21.0864 22.0546C21.8414 22.5994 22.4152 22.4799 22.4152 22.4799L25.0867 22.4405C25.0867 22.4405 26.4843 22.35 25.8217 21.1962Z" fill="#E31E24"/>
</g>
<g clip-path="url(#clip1)">
<path d="M25.8217 52.1962C25.768 52.1017 25.4355 51.343 23.8353 49.7836C22.1602 48.1508 22.3852 48.4159 24.4029 45.5925C25.6317 43.873 26.123 42.8229 25.9692 42.374C25.823 41.9461 24.9192 42.059 24.9192 42.059L21.9139 42.0774C21.9139 42.0774 21.6914 42.0459 21.5252 42.1496C21.3639 42.252 21.2602 42.4882 21.2602 42.4882C21.2602 42.4882 20.7839 43.8192 20.1488 44.9507C18.81 47.3383 18.2737 47.4643 18.0549 47.316C17.5461 46.9707 17.6736 45.9272 17.6736 45.1869C17.6736 42.8728 18.0074 41.9081 17.0223 41.6587C16.6948 41.576 16.4548 41.5208 15.6185 41.5116C14.5459 41.4998 13.6371 41.5156 13.1233 41.7794C12.7808 41.9553 12.517 42.3478 12.6783 42.3701C12.877 42.3977 13.3271 42.4974 13.5658 42.8387C13.8746 43.2784 13.8634 44.2681 13.8634 44.2681C13.8634 44.2681 14.0409 46.9917 13.4496 47.3304C13.0433 47.5627 12.487 47.0889 11.2932 44.9218C10.6819 43.8126 10.2193 42.5854 10.2193 42.5854C10.2193 42.5854 10.1306 42.357 9.97182 42.2349C9.77931 42.0866 9.50929 42.0393 9.50929 42.0393L6.65158 42.0577C6.65158 42.0577 6.2228 42.0708 6.06528 42.2664C5.92527 42.441 6.05403 42.8006 6.05403 42.8006C6.05403 42.8006 8.2917 48.2965 10.8244 51.0674C13.1483 53.6072 15.786 53.4405 15.786 53.4405H16.9811C16.9811 53.4405 17.3424 53.3985 17.5261 53.1898C17.6961 52.9982 17.6899 52.6385 17.6899 52.6385C17.6899 52.6385 17.6661 50.9545 18.4112 50.7064C19.145 50.4622 20.0876 52.334 21.0864 53.0546C21.8414 53.5994 22.4152 53.4799 22.4152 53.4799L25.0867 53.4405C25.0867 53.4405 26.4843 53.35 25.8217 52.1962Z" fill="#36353B"/>
</g>
<defs>
<clipPath id="clip0">
<rect width="20" height="21" fill="white" transform="translate(6 6)"/>
</clipPath>
<clipPath id="clip1">
<rect width="20" height="21" fill="white" transform="translate(6 37)"/>
</clipPath>
</defs>
</svg>
