<svg width="46" height="46" viewBox="0 0 46 46" fill="none" xmlns="http://www.w3.org/2000/svg">
<path d="M9.52344 46H36.4766C38.7059 46 40.5195 44.1864 40.5195 41.957V13.4766H31.0859C28.8566 13.4766 27.043 11.663 27.043 9.43359V0H9.52344C7.29405 0 5.48047 1.81359 5.48047 4.04297V41.957C5.48047 44.1864 7.29405 46 9.52344 46ZM14.9141 18.957H31.0859C31.8308 18.957 32.4336 19.5598 32.4336 20.3047C32.4336 21.0496 31.8308 21.6523 31.0859 21.6523H14.9141C14.1692 21.6523 13.5664 21.0496 13.5664 20.3047C13.5664 19.5598 14.1692 18.957 14.9141 18.957ZM14.9141 24.3477H31.0859C31.8308 24.3477 32.4336 24.9504 32.4336 25.6953C32.4336 26.4402 31.8308 27.043 31.0859 27.043H14.9141C14.1692 27.043 13.5664 26.4402 13.5664 25.6953C13.5664 24.9504 14.1692 24.3477 14.9141 24.3477ZM14.9141 29.7383H31.0859C31.8308 29.7383 32.4336 30.341 32.4336 31.0859C32.4336 31.8308 31.8308 32.4336 31.0859 32.4336H14.9141C14.1692 32.4336 13.5664 31.8308 13.5664 31.0859C13.5664 30.341 14.1692 29.7383 14.9141 29.7383ZM14.9141 35.1289H25.6953C26.4402 35.1289 27.043 35.7317 27.043 36.4766C27.043 37.2215 26.4402 37.8242 25.6953 37.8242H14.9141C14.1692 37.8242 13.5664 37.2215 13.5664 36.4766C13.5664 35.7317 14.1692 35.1289 14.9141 35.1289Z" fill="#E31E24"/>
<path d="M31.0859 10.7812H39.7299L29.7383 0.789551V9.43351C29.7383 10.1771 30.3424 10.7812 31.0859 10.7812Z" fill="#E31E24"/>
</svg>
