<svg width="30" height="61" viewBox="0 0 30 61" fill="none" xmlns="http://www.w3.org/2000/svg">
<circle cx="15" cy="15" r="14.5" fill="white" stroke="white"/>
<path d="M22.5332 11.0156C23.2754 10.459 23.9434 9.79102 24.4629 9.01172C23.7949 9.30859 23.0156 9.53125 22.2363 9.60547C23.0527 9.12305 23.6465 8.38086 23.9434 7.45312C23.2012 7.89844 22.3477 8.23242 21.4941 8.41797C20.752 7.63867 19.75 7.19336 18.6367 7.19336C16.4844 7.19336 14.7402 8.9375 14.7402 11.0898C14.7402 11.3867 14.7773 11.6836 14.8516 11.9805C11.623 11.7949 8.72852 10.2363 6.79883 7.89844C6.46484 8.45508 6.2793 9.12305 6.2793 9.86523C6.2793 11.2012 6.94727 12.3887 8.02344 13.0938C7.39258 13.0566 6.76172 12.9082 6.24219 12.6113V12.6484C6.24219 14.541 7.57812 16.0996 9.35938 16.4707C9.0625 16.5449 8.69141 16.6191 8.35742 16.6191C8.09766 16.6191 7.875 16.582 7.61523 16.5449C8.09766 18.1035 9.54492 19.2168 11.252 19.2539C9.91602 20.293 8.24609 20.9238 6.42773 20.9238C6.09375 20.9238 5.79688 20.8867 5.5 20.8496C7.20703 21.9629 9.24805 22.5938 11.4746 22.5938C18.6367 22.5938 22.5332 16.6934 22.5332 11.5352C22.5332 11.3496 22.5332 11.2012 22.5332 11.0156Z" fill="#E31E24"/>
<circle cx="15" cy="46" r="14.5" fill="#E31E24" stroke="#E31E24"/>
<path d="M22.5332 42.0156C23.2754 41.459 23.9434 40.791 24.4629 40.0117C23.7949 40.3086 23.0156 40.5312 22.2363 40.6055C23.0527 40.123 23.6465 39.3809 23.9434 38.4531C23.2012 38.8984 22.3477 39.2324 21.4941 39.418C20.752 38.6387 19.75 38.1934 18.6367 38.1934C16.4844 38.1934 14.7402 39.9375 14.7402 42.0898C14.7402 42.3867 14.7773 42.6836 14.8516 42.9805C11.623 42.7949 8.72852 41.2363 6.79883 38.8984C6.46484 39.4551 6.2793 40.123 6.2793 40.8652C6.2793 42.2012 6.94727 43.3887 8.02344 44.0938C7.39258 44.0566 6.76172 43.9082 6.24219 43.6113V43.6484C6.24219 45.541 7.57812 47.0996 9.35938 47.4707C9.0625 47.5449 8.69141 47.6191 8.35742 47.6191C8.09766 47.6191 7.875 47.582 7.61523 47.5449C8.09766 49.1035 9.54492 50.2168 11.252 50.2539C9.91602 51.293 8.24609 51.9238 6.42773 51.9238C6.09375 51.9238 5.79688 51.8867 5.5 51.8496C7.20703 52.9629 9.24805 53.5938 11.4746 53.5938C18.6367 53.5938 22.5332 47.6934 22.5332 42.5352C22.5332 42.3496 22.5332 42.2012 22.5332 42.0156Z" fill="white"/>
</svg>
