<svg width="104" height="105" viewBox="0 0 104 105" fill="none" xmlns="http://www.w3.org/2000/svg">
<path d="M104 52.5C104 81.4949 80.7188 105 52 105C23.2812 105 0 81.4949 0 52.5C0 23.5051 23.2812 0 52 0C80.7188 0 104 23.5051 104 52.5Z" fill="#E31E24"/>
<path d="M64.5206 72.1996H54.9206V63.6663C54.9206 60.7208 52.5327 58.333 49.5873 58.333H43.1873V52.477L57.6726 42.1303C57.9073 41.9642 58.065 41.7103 58.1099 41.4263C58.1525 41.1432 58.0794 40.855 57.9073 40.6263L54.7073 36.3596C54.3625 35.9012 53.7169 35.7975 53.2459 36.125L42.3126 43.6876C44.2459 40.0452 42.8603 35.5251 39.2179 33.5919C35.5755 31.6586 31.0554 33.0442 29.1222 36.6866C27.5677 39.6152 28.1307 43.2182 30.5046 45.533H29.3206C29.0197 45.5336 28.7329 45.6615 28.5313 45.885L21.6406 53.5436C19.7487 55.6574 19.8425 58.882 21.8539 60.8823L27.4966 66.557C27.7183 66.779 28.0266 66.8922 28.3393 66.8663C28.6559 66.8419 28.9453 66.6778 29.1286 66.4183L30.3873 64.637V83.933C30.3873 84.522 30.8649 84.9996 31.4539 84.9996H37.8539C38.443 84.9996 38.9206 84.522 38.9206 83.933V66.8663H46.3873V72.1996H43.1873C42.5982 72.1996 42.1206 72.6772 42.1206 73.2663V83.933C42.1206 84.522 42.5982 84.9996 43.1873 84.9996H64.5206C65.1097 84.9996 65.5873 84.522 65.5873 83.933V73.2663C65.5873 72.6772 65.1098 72.1996 64.5206 72.1996ZM30.3873 40.1996C30.3873 37.2542 32.7751 34.8663 35.7206 34.8663C38.6661 34.8663 41.0539 37.2542 41.0539 40.1996C41.0539 43.1451 38.6661 45.533 35.7206 45.533C32.7751 45.533 30.3873 43.1451 30.3873 40.1996ZM38.2593 47.6663L36.7873 50.6103L35.3153 47.6663H38.2593ZM30.3873 59.0903L28.6806 57.2663L30.3873 55.5596V59.0903ZM37.8539 64.733C37.2649 64.733 36.7873 65.2106 36.7873 65.7996V82.8663H32.5206V52.9996C32.5185 52.569 32.2575 52.1819 31.8593 52.0183C31.4621 51.8512 31.0034 51.9396 30.6966 52.2423L26.4299 56.509C26.0234 56.9238 26.0234 57.5875 26.4299 58.0023L29.9179 61.6396L28.1153 64.157L23.3366 59.3996C22.1181 58.1938 22.0663 56.2418 23.2193 54.973L29.8006 47.6663H32.9259L35.8379 53.4796C36.1066 54.0039 36.7493 54.2112 37.2737 53.9426C37.4727 53.8406 37.6347 53.6787 37.7366 53.4796L40.8193 47.325L53.6193 38.461L55.5499 41.0316L41.5019 51.069C41.2222 51.268 41.0555 51.5896 41.0539 51.933V59.3996C41.0539 59.9887 41.5315 60.4663 42.1206 60.4663H49.5873C51.3546 60.4663 52.7873 61.899 52.7873 63.6663V72.1996H48.5206V65.7996C48.5206 65.2106 48.043 64.733 47.4539 64.733H37.8539ZM63.4539 82.8663H44.2539V74.333H63.4539V82.8663Z" fill="white"/>
<path d="M82.6529 29.5333C78.5291 29.5333 75.1862 26.1904 75.1862 22.0667C75.1862 21.4776 74.7086 21 74.1195 21C73.5305 21 73.0529 21.4776 73.0529 22.0667C73.0529 26.1904 69.7099 29.5333 65.5862 29.5333C64.9971 29.5333 64.5195 30.0109 64.5195 30.6C64.5195 31.1891 64.9971 31.6667 65.5862 31.6667C69.7099 31.6667 73.0529 35.0096 73.0529 39.1333C73.0529 39.7224 73.5305 40.2 74.1195 40.2C74.7086 40.2 75.1862 39.7224 75.1862 39.1333C75.1862 35.0096 78.5291 31.6667 82.6529 31.6667C83.2419 31.6667 83.7195 31.1891 83.7195 30.6C83.7195 30.0109 83.2421 29.5333 82.6529 29.5333ZM74.1195 34.7387C73.1999 32.9653 71.7543 31.5197 69.9809 30.6C71.7542 29.6803 73.1998 28.2347 74.1195 26.4613C75.0393 28.2347 76.4849 29.6803 78.2582 30.6C76.4849 31.5197 75.0393 32.9653 74.1195 34.7387Z" fill="white"/>
<path d="M56.13 47.8711L53.2227 50.0029L54.4841 51.7232L57.3915 49.5914L56.13 47.8711Z" fill="white"/>
<path d="M69.2258 38.2715L58.5625 46.0964L59.8246 47.8163L70.4879 39.9914L69.2258 38.2715Z" fill="white"/>
<path d="M64.9885 32.91L58.5898 37.176L59.7732 38.951L66.1718 34.6849L64.9885 32.91Z" fill="white"/>
</svg>
