<svg width="25" height="25" viewBox="0 0 25 25" fill="none" xmlns="http://www.w3.org/2000/svg">
<path d="M0.737305 16.1621C1.68994 18.4355 3.50977 20.3013 5.85938 21.2808V22.7539C5.85938 23.1582 6.1875 23.4863 6.5918 23.4863H18.4082C18.8125 23.4863 19.1406 23.1582 19.1406 22.7539V21.2808C21.4902 20.3013 23.3101 18.4355 24.2627 16.1621H0.737305ZM24.2676 11.7676H0.732422C0.328125 11.7676 0 12.0957 0 12.5C0 13.251 0.0888672 13.9873 0.258789 14.6973H24.7412C24.9111 13.9873 25 13.251 25 12.5C25 12.0957 24.6719 11.7676 24.2676 11.7676Z" fill="#4D4D4D"/>
<path d="M7.58756 8.62336C7.30153 8.33733 7.30153 7.87361 7.58756 7.58757C8.1109 7.06418 8.11095 6.21711 7.58756 5.69368C6.49425 4.60037 6.49425 2.82151 7.58756 1.7282C7.87355 1.44216 8.33732 1.44216 8.62335 1.7282C8.90939 2.01423 8.90939 2.47795 8.62335 2.76399C8.10001 3.28738 8.09996 4.13445 8.62335 4.65789C9.71666 5.7512 9.71666 7.53005 8.62335 8.62336C8.33737 8.90935 7.87355 8.9094 7.58756 8.62336Z" fill="#4D4D4D"/>
<path d="M11.9821 8.62336C11.6961 8.33733 11.6961 7.87361 11.9821 7.58757C12.5054 7.06418 12.5055 6.21711 11.9821 5.69368C10.8888 4.60037 10.8888 2.82151 11.9821 1.7282C12.2681 1.44216 12.7318 1.44216 13.0179 1.7282C13.3039 2.01423 13.3039 2.47795 13.0179 2.76399C12.4945 3.28738 12.4945 4.13445 13.0179 4.65789C14.1112 5.7512 14.1112 7.53005 13.0179 8.62336C12.7319 8.90935 12.2681 8.9094 11.9821 8.62336Z" fill="#4D4D4D"/>
<path d="M16.3766 8.62336C16.0906 8.33733 16.0906 7.87361 16.3766 7.58757C16.8999 7.06423 16.9 6.21711 16.3766 5.69368C15.2833 4.60037 15.2833 2.82151 16.3766 1.7282C16.6626 1.44216 17.1264 1.44216 17.4124 1.7282C17.6984 2.01423 17.6984 2.47795 17.4124 2.76399C16.8891 3.28733 16.889 4.13445 17.4124 4.65789C18.5057 5.7512 18.5057 7.53005 17.4124 8.62336C17.1264 8.90935 16.6626 8.9094 16.3766 8.62336Z" fill="#4D4D4D"/>
</svg>
