<svg width="37" height="37" viewBox="0 0 37 37" fill="none" xmlns="http://www.w3.org/2000/svg">
<path d="M30.5322 7.1543V5.41992C30.5322 2.43138 28.1008 0 25.1123 0H11.8154C8.82688 0 6.39551 2.43138 6.39551 5.41992V7.1543H30.5322Z" fill="#585858"/>
<path d="M8.56348 23.0527V31.8691V33.748V34.832C8.56348 36.0293 9.53408 37 10.7314 37H26.1963C27.3937 37 28.3643 36.0293 28.3643 34.832V33.748V31.8691V23.0527H8.56348ZM21.3545 32.3027H15.5732C14.9746 32.3027 14.4893 31.8174 14.4893 31.2188C14.4893 30.6201 14.9746 30.1348 15.5732 30.1348H21.3545C21.9531 30.1348 22.4385 30.6201 22.4385 31.2188C22.4385 31.8174 21.9531 32.3027 21.3545 32.3027ZM21.3545 27.6777H15.5732C14.9746 27.6777 14.4893 27.1924 14.4893 26.5938C14.4893 25.9951 14.9746 25.5098 15.5732 25.5098H21.3545C21.9531 25.5098 22.4385 25.9951 22.4385 26.5938C22.4385 27.1924 21.9531 27.6777 21.3545 27.6777Z" fill="#585858"/>
<path d="M31.5439 9.32227H5.45605C2.46751 9.32227 0.0361328 11.7536 0.0361328 14.7422V23.4141C0.0361328 26.4026 2.46751 28.834 5.45605 28.834H6.39551V23.0527H5.74512C5.14647 23.0527 4.66113 22.5674 4.66113 21.9688C4.66113 21.3701 5.14647 20.8848 5.74512 20.8848H7.47949H29.4482H31.1826C31.7813 20.8848 32.2666 21.3701 32.2666 21.9688C32.2666 22.5674 31.7813 23.0527 31.1826 23.0527H30.5322V28.834H31.5439C34.5325 28.834 36.9639 26.4026 36.9639 23.4141V14.7422C36.9639 11.7536 34.5325 9.32227 31.5439 9.32227ZM9.21387 16.1152H5.74512C5.14647 16.1152 4.66113 15.6299 4.66113 15.0312C4.66113 14.4326 5.14647 13.9473 5.74512 13.9473H9.21387C9.81252 13.9473 10.2979 14.4326 10.2979 15.0312C10.2979 15.6299 9.81252 16.1152 9.21387 16.1152Z" fill="#585858"/>
</svg>
