<svg width="31" height="31" viewBox="0 0 31 31" fill="none" xmlns="http://www.w3.org/2000/svg">
<path d="M22.2824 19.0321C19.7473 17.6627 19.4822 17.4803 19.1548 18.0126C18.9277 18.3811 18.2659 19.217 18.0665 19.4643C17.8648 19.708 17.6642 19.7267 17.3218 19.558C16.9759 19.3706 15.8658 18.9771 14.5515 17.7027C13.5278 16.7095 12.8407 15.4913 12.6378 15.1165C12.3001 14.4843 13.0067 14.3944 13.65 13.075C13.7653 12.8126 13.7065 12.6065 13.6212 12.4203C13.5347 12.2329 12.8465 10.3963 12.5583 9.66421C12.2816 8.93457 11.9969 9.02702 11.7836 9.02702C11.1196 8.96456 10.6342 8.97455 10.2065 9.45681C8.34586 11.6732 8.81506 13.9596 10.4071 16.3909C13.5359 20.8287 15.2029 21.6458 18.251 22.7802C19.0741 23.0638 19.8246 23.0238 20.4183 22.9314C21.08 22.8177 22.4553 22.0306 22.7424 21.1497C23.0363 20.2689 23.0363 19.5381 22.9499 19.3694C22.2824 19.0321 22.6282 19.2007 22.2824 19.0321Z" fill="#343434"/>
</svg>
