<svg width="60" height="60" viewBox="0 0 60 60" fill="none" xmlns="http://www.w3.org/2000/svg">
<path d="M50.934 6.28369H8.06595C5.82404 6.28369 4 8.10764 4 10.3496V19.5407C4 21.7827 5.82404 23.6067 8.06595 23.6067H15.6799V48.4565C15.6799 50.8056 17.5911 52.7168 19.9402 52.7168H39.0598C41.4089 52.7168 43.3201 50.8056 43.3201 48.4565V23.6067H50.9341C53.1761 23.6067 55 21.7827 55 19.5407V10.3496C54.9999 8.10764 53.1759 6.28369 50.934 6.28369ZM39.0597 50.7246H19.9401C18.6895 50.7246 17.672 49.7072 17.672 48.4565V22.6106V19.1807V16.8909H22.5943V43.3206C22.5943 43.8707 23.0404 44.3167 23.5904 44.3167C24.1405 44.3167 24.5865 43.8707 24.5865 43.3206V16.8909H41.3277V19.1807V22.6106V48.4565C41.3277 49.7071 40.3103 50.7246 39.0597 50.7246ZM42.3239 14.8987H16.676C16.1259 14.8987 15.6799 15.3446 15.6799 15.8948V18.1846H12.103V12.4844H46.897V18.1846H43.3201V15.8948C43.32 15.3446 42.8741 14.8987 42.3239 14.8987ZM50.934 21.6145H43.32V20.1768H47.893C48.443 20.1768 48.8891 19.7308 48.8891 19.1807V11.4883C48.8891 10.9381 48.443 10.4922 47.893 10.4922H11.1069C10.5569 10.4922 10.1108 10.9381 10.1108 11.4883V19.1807C10.1108 19.7308 10.5569 20.1768 11.1069 20.1768H15.6799V21.6145H8.06595C6.92253 21.6145 5.99218 20.6842 5.99218 19.5407V10.3496C5.99218 9.20613 6.92253 8.27587 8.06595 8.27587H50.9339C52.0773 8.27587 53.0076 9.20613 53.0076 10.3496V19.5407C53.0076 20.6842 52.0774 21.6145 50.934 21.6145Z" fill="#E31E24"/>
<path d="M35.7383 24.4043C35.1882 24.4043 34.7422 24.8502 34.7422 25.4004V36.9198C34.7422 37.47 35.1882 37.9159 35.7383 37.9159C36.2883 37.9159 36.7344 37.47 36.7344 36.9198V25.4004C36.7344 24.8502 36.2883 24.4043 35.7383 24.4043Z" fill="#E31E24"/>
<path d="M35.7408 40.0918C33.5855 40.0918 31.832 41.8453 31.832 44.0006C31.832 46.1558 33.5856 47.9094 35.7408 47.9094C37.896 47.9094 39.6496 46.1559 39.6496 44.0006C39.6496 41.8452 37.896 40.0918 35.7408 40.0918ZM35.7408 45.9172C34.684 45.9172 33.8242 45.0574 33.8242 44.0006C33.8242 42.9437 34.684 42.084 35.7408 42.084C36.7976 42.084 37.6574 42.9437 37.6574 44.0006C37.6574 45.0574 36.7976 45.9172 35.7408 45.9172Z" fill="#E31E24"/>
</svg>
