<svg width="27" height="27" viewBox="0 0 27 27" fill="none" xmlns="http://www.w3.org/2000/svg">
<g clip-path="url(#clip0)">
<path d="M21.1383 21.783C25.1917 17.5532 25.0487 10.8385 20.819 6.78508C16.5892 2.73171 9.87441 2.87472 5.82104 7.10444C1.8892 11.2074 1.8892 17.68 5.82104 21.783L3.06498 25.4571C2.74545 25.8832 2.83179 26.4876 3.25783 26.8071C3.68386 27.1266 4.28833 27.0403 4.60786 26.6143L7.27905 23.0521C10.9744 25.7445 15.9849 25.7445 19.6802 23.0521L22.3514 26.6143C22.6709 27.0403 23.2754 27.1267 23.7014 26.8071C24.1275 26.4876 24.2138 25.8831 23.8943 25.4571L21.1383 21.783ZM14.444 14.4638C14.444 14.6725 14.3764 14.8755 14.2512 15.0424L11.3582 18.8997C11.0387 19.3258 10.4342 19.4121 10.0082 19.0926C9.58217 18.773 9.49578 18.1686 9.81536 17.7425L12.5155 14.1427V8.67788C12.5155 8.14528 12.9472 7.71354 13.4798 7.71354C14.0124 7.71354 14.4442 8.14528 14.4442 8.67788V14.4638H14.444Z" fill="white"/>
<path d="M8.20925 1.41175C6.30272 -0.447318 3.25013 -0.408839 1.39101 1.49769C-0.434835 3.37015 -0.435062 6.3568 1.39056 8.22954C1.76715 8.60602 2.37756 8.60602 2.75409 8.22954L8.20925 2.77534C8.58573 2.39875 8.58573 1.78834 8.20925 1.41175Z" fill="white"/>
<path d="M25.5669 1.41172C23.684 -0.470573 20.632 -0.470573 18.7492 1.41172C18.3727 1.78831 18.3727 2.39872 18.7492 2.77525L24.2034 8.22945C24.5799 8.60594 25.1904 8.60594 25.5669 8.22945C27.4492 6.34665 27.4492 3.29458 25.5669 1.41172Z" fill="white"/>
</g>
<defs>
<clipPath id="clip0">
<rect width="27" height="27" fill="white"/>
</clipPath>
</defs>
</svg>
