<svg width="104" height="104" viewBox="0 0 104 104" fill="none" xmlns="http://www.w3.org/2000/svg">
<circle cx="52" cy="52" r="52" fill="#E31E24"/>
<path d="M32.8125 34.7188V36.6875C32.8125 38.7724 33.9002 40.6033 35.5363 41.6547C35.0539 42.2384 34.3462 42.5938 33.5646 42.5938H33.4208C30.9146 42.5938 28.875 44.6324 28.875 47.1396V52.4375C28.875 52.9819 29.316 53.4219 29.8594 53.4219H47.5781C48.1215 53.4219 48.5625 52.9819 48.5625 52.4375V49.4844H56.4375V52.4375C56.4375 52.9819 56.8785 53.4219 57.4219 53.4219H75.1406C75.684 53.4219 76.125 52.9819 76.125 52.4375V47.1396C76.125 44.6324 74.0854 42.5938 71.5792 42.5938H71.4354C70.6538 42.5938 69.9471 42.2384 69.4647 41.6547C71.0998 40.6033 72.1875 38.7724 72.1875 36.6875V34.7188C72.1875 31.4615 69.5385 28.8125 66.2812 28.8125C63.024 28.8125 60.375 31.4615 60.375 34.7188V36.6875C60.375 38.7724 61.4627 40.6033 63.0988 41.6547C62.8035 42.012 62.4225 42.2748 61.9894 42.4284C61.3003 40.7923 59.681 39.6406 57.7979 39.6406H57.6542C56.8726 39.6406 56.1658 39.2853 55.6835 38.7015C57.3185 37.6502 58.4062 35.8193 58.4062 33.7344V31.7656C58.4062 28.5083 55.7573 25.8594 52.5 25.8594C49.2427 25.8594 46.5938 28.5083 46.5938 31.7656V33.7344C46.5938 35.8193 47.6815 37.6502 49.3175 38.7015C48.8352 39.2853 48.1274 39.6406 47.3458 39.6406H47.2021C45.318 39.6406 43.6997 40.7923 43.0106 42.4294C42.5775 42.2758 42.1965 42.013 41.9012 41.6556C43.5373 40.6033 44.625 38.7724 44.625 36.6875V34.7188C44.625 31.4615 41.976 28.8125 38.7188 28.8125C35.4615 28.8125 32.8125 31.4615 32.8125 34.7188ZM46.5938 51.4531H30.8438V47.1396C30.8438 45.7191 31.9994 44.5625 33.4208 44.5625H33.5646C33.8175 44.5625 34.0646 44.5359 34.3078 44.4965L34.6621 44.8509C35.745 45.9347 37.1861 46.5313 38.7188 46.5313C40.1973 46.5313 41.5872 45.9711 42.6562 44.9592V48.5C42.6562 49.0444 43.0972 49.4844 43.6406 49.4844H46.5938V51.4531ZM71.5792 44.5625C73.0006 44.5625 74.1562 45.7191 74.1562 47.1396V51.4531H58.4062V49.4844H61.3594C61.9027 49.4844 62.3438 49.0444 62.3438 48.5V44.9592C63.4128 45.9711 64.8027 46.5313 66.2812 46.5313C67.8139 46.5313 69.255 45.9347 70.3379 44.8509L70.6922 44.4965C70.9354 44.5359 71.1825 44.5625 71.4354 44.5625H71.5792ZM62.3438 34.7188C62.3438 32.5472 64.1097 30.7813 66.2812 30.7813C68.4528 30.7813 70.2188 32.5472 70.2188 34.7188V36.6875C70.2188 38.859 68.4528 40.625 66.2812 40.625C64.1097 40.625 62.3438 38.859 62.3438 36.6875V34.7188ZM66.2812 42.5938C66.735 42.5938 67.1751 42.5376 67.6003 42.4402C67.8996 42.9156 68.2756 43.3212 68.7107 43.649C67.3395 44.7978 65.2221 44.7978 63.8518 43.649C64.2869 43.3212 64.6639 42.9156 64.9622 42.4402C65.3874 42.5376 65.8275 42.5938 66.2812 42.5938ZM48.5625 31.7656C48.5625 29.5941 50.3285 27.8281 52.5 27.8281C54.6715 27.8281 56.4375 29.5941 56.4375 31.7656V33.7344C56.4375 35.9059 54.6715 37.6719 52.5 37.6719C50.3285 37.6719 48.5625 35.9059 48.5625 33.7344V31.7656ZM52.5 39.6406C52.9538 39.6406 53.3938 39.5845 53.8191 39.4871C54.1183 39.9625 54.4943 40.3681 54.9294 40.6959C53.5582 41.8446 51.4408 41.8446 50.0706 40.6959C50.5057 40.3681 50.8827 39.9625 51.1809 39.4871C51.6062 39.5845 52.0462 39.6406 52.5 39.6406ZM44.625 44.1865C44.625 42.766 45.7807 41.6094 47.2021 41.6094H47.3458C47.5988 41.6094 47.8459 41.5828 48.089 41.5434L48.4434 41.8978C49.5262 42.9816 50.9673 43.5781 52.5 43.5781C54.0327 43.5781 55.4738 42.9816 56.5566 41.8978L56.911 41.5434C57.1541 41.5828 57.4012 41.6094 57.6542 41.6094H57.7979C59.2193 41.6094 60.375 42.766 60.375 44.1865V47.5156H44.625V44.1865ZM41.1482 43.648C39.777 44.7968 37.6596 44.7968 36.2893 43.648C36.7244 43.3202 37.1014 42.9147 37.3997 42.4392C37.8249 42.5376 38.265 42.5938 38.7188 42.5938C39.1725 42.5938 39.6126 42.5376 40.0378 42.4402C40.3361 42.9156 40.7131 43.3212 41.1482 43.648ZM42.6562 34.7188V36.6875C42.6562 38.859 40.8903 40.625 38.7188 40.625C36.5472 40.625 34.7812 38.859 34.7812 36.6875V34.7188C34.7812 32.5472 36.5472 30.7813 38.7188 30.7813C40.8903 30.7813 42.6562 32.5472 42.6562 34.7188Z" fill="white"/>
<path d="M76.8082 59.6421L56.6393 65.1428C56.4995 64.9292 56.3371 64.7255 56.1491 64.5374L49.2585 57.6468C49.0744 57.4627 48.8234 57.3594 48.5625 57.3594H37.7344V56.375C37.7344 55.8306 37.2934 55.3906 36.75 55.3906H30.8438H22.9688C22.4254 55.3906 21.9844 55.8306 21.9844 56.375V78.0312C21.9844 78.5756 22.4254 79.0156 22.9688 79.0156H30.8438C31.3871 79.0156 31.8281 78.5756 31.8281 78.0312V77.0469H36.75C37.2934 77.0469 37.7344 76.6069 37.7344 76.0625V75.0781H44.4655L50.2202 76.9957C50.3216 77.0292 50.4259 77.0469 50.5312 77.0469C50.6395 77.0469 50.7478 77.0282 50.8512 76.9927L82.3512 66.1646C82.7489 66.0288 83.0156 65.6547 83.0156 65.2344V64.25C83.0156 63.3129 82.7508 62.4004 82.2488 61.6099C81.1473 59.8794 78.9088 59.0702 76.8082 59.6421ZM29.8594 77.0469H23.9531V57.3594H29.8594V77.0469ZM35.7656 75.0781H31.8281V57.3594H35.7656V75.0781ZM81.0469 64.5315L50.5263 75.023L44.9361 73.1596C44.8357 73.1271 44.7303 73.1094 44.625 73.1094H37.7344V59.3281H48.155L54.7572 65.9303C55.459 66.6322 55.459 67.7741 54.7572 68.4759C54.0553 69.1778 52.9134 69.1778 52.2116 68.4759L47.2897 63.554L45.8978 64.946L50.8197 69.8678C51.554 70.6022 52.5197 70.9693 53.4844 70.9693C54.4491 70.9693 55.4147 70.6022 56.1491 69.8678C56.9297 69.0872 57.2831 68.0467 57.2339 67.022L77.3259 61.542C78.6037 61.1925 79.9454 61.6552 80.5872 62.6671C80.8884 63.1396 81.0469 63.6879 81.0469 64.25V64.5315Z" fill="white"/>
</svg>
