<svg width="28" height="28" viewBox="0 0 28 28" fill="none" xmlns="http://www.w3.org/2000/svg">
<g clip-path="url(#clip0)">
<path d="M27.5816 11.6904C27.4364 11.7327 27.3298 11.9088 27.3799 12.0668C27.3962 12.118 27.4086 12.1699 27.4174 12.2229C27.4233 12.2935 27.4231 12.3641 27.4168 12.4344C27.4034 12.5161 27.3824 12.5956 27.3545 12.673C27.3302 12.729 27.3025 12.7836 27.2707 12.8352C27.2609 12.8512 27.2509 12.8671 27.2405 12.8826C27.2381 12.8859 27.235 12.8905 27.2314 12.8953C27.213 12.9189 27.1941 12.942 27.1739 12.9638C27.149 12.9911 27.123 13.0177 27.0957 13.0425C27.0901 13.0475 27.0844 13.0527 27.0788 13.0577C27.0716 13.0633 27.0635 13.0695 27.0584 13.0733C27.0052 13.1116 26.9496 13.1447 26.8915 13.1732C26.8116 13.2055 26.7291 13.229 26.6447 13.2442C26.5465 13.2549 26.4481 13.2545 26.3499 13.2438C26.2451 13.2255 26.1425 13.1958 26.0436 13.1548C25.9648 13.1166 25.8888 13.0717 25.8181 13.0184C25.8099 13.0121 25.8018 13.0059 25.7936 12.9997C25.7806 12.9884 25.7677 12.977 25.7551 12.9653C25.7828 12.9489 25.8101 12.9318 25.8365 12.9135C26.0697 12.7528 26.2813 12.5259 26.3911 12.2512C26.4594 12.0803 26.5062 11.9133 26.5154 11.7264C26.5231 11.5717 26.5058 11.4033 26.4488 11.2593C26.3885 11.1071 26.3137 10.9636 26.1925 10.8553C26.0769 10.7519 25.9481 10.6674 25.8 10.6261C25.5092 10.5451 25.1881 10.6213 24.9792 10.8587C24.7844 11.0799 24.6978 11.371 24.6776 11.6681C24.6589 11.941 24.7027 12.2306 24.7885 12.4881C24.7918 12.4979 24.7952 12.5077 24.7987 12.5174C24.7596 12.506 24.721 12.4925 24.6831 12.477C24.6287 12.4506 24.5758 12.4206 24.5256 12.3858C24.5085 12.374 24.4917 12.3619 24.475 12.3494C24.4646 12.3398 24.4264 12.3072 24.4151 12.2959C24.3872 12.2686 24.3601 12.2406 24.3347 12.2106C24.3237 12.1977 24.2911 12.1535 24.2843 12.1452C24.2813 12.1406 24.2782 12.1358 24.2752 12.1313C24.2195 12.0051 24.1888 11.8698 24.1755 11.7274C24.1705 11.6754 24.181 11.6554 24.2314 11.6408C24.5338 11.5538 24.7143 11.2661 24.6794 10.9445C24.6328 10.516 24.3059 10.2156 23.8978 10.2204C23.78 10.2219 23.6624 10.2419 23.5444 10.2512C23.5279 10.2525 23.5074 10.2464 23.4937 10.2362C23.401 10.1669 23.3136 10.0884 23.217 10.0262C22.8726 9.80487 22.5219 9.59439 22.1798 9.36916C21.8593 9.15807 21.5492 8.92948 21.2302 8.71588C20.7072 8.36615 20.158 8.0724 19.5716 7.85881C19.0401 7.66522 18.4941 7.54883 17.9339 7.50699C17.6256 7.48387 17.3172 7.46474 17.0088 7.44346C16.6764 7.42055 16.3443 7.3931 16.0117 7.37519C15.6629 7.35646 15.3136 7.34105 14.9644 7.33437C14.4931 7.32518 14.0219 7.32477 13.5504 7.32253C13.0822 7.32044 12.6141 7.32707 12.1462 7.31814C11.688 7.30941 11.2301 7.2861 10.772 7.26859C10.7401 7.26737 10.7083 7.26257 10.6767 7.25946H10.3396C10.3176 7.26257 10.2958 7.26696 10.2738 7.26859C10.1123 7.27962 9.95092 7.28758 9.78973 7.30151C9.50105 7.32651 9.21771 7.3856 8.93731 7.46096C8.53456 7.56924 8.14399 7.71639 7.7591 7.8807C7.18708 8.1249 6.63037 8.40468 6.07876 8.69614C5.84706 8.81855 5.61864 8.94825 5.38516 9.06694C5.08002 9.22206 4.76896 9.36421 4.46478 9.52163C3.89666 9.81559 3.35213 10.1527 2.8369 10.5419C2.572 10.742 2.31768 10.9556 2.07968 11.1906C1.98034 11.2887 1.88644 11.393 1.78984 11.4944C1.76376 11.5217 1.7394 11.5456 1.69479 11.5352C1.43109 11.4738 1.16912 11.4059 0.922261 11.2871C0.873169 11.2633 0.829371 11.2227 0.789135 11.1834C0.749476 11.1444 0.721561 11.0916 0.680748 11.0545C0.61457 10.9943 0.547236 10.9313 0.470855 10.889C0.368917 10.833 0.26154 10.8854 0.222459 10.9997C0.205373 11.0499 0.196372 11.1046 0.192618 11.158C0.187709 11.2298 0.191463 11.3025 0.191463 11.3764C0.179287 11.3755 0.166725 11.3739 0.154163 11.3737C0.0532354 11.3726 -0.0068783 11.4346 0.000629902 11.5416C0.00414335 11.5931 0.0179084 11.6451 0.0353794 11.6936C0.0860597 11.8352 0.164992 11.9605 0.264524 12.0661C0.420463 12.2316 0.549835 12.4175 0.675694 12.608C0.714775 12.6674 0.763097 12.721 0.812767 12.7712C0.956096 12.9161 1.13283 12.9909 1.32409 13.0306C1.40635 13.0476 1.48961 13.062 1.53716 13.1476C1.54621 13.1638 1.54953 13.1859 1.54915 13.2053C1.54799 13.2679 1.535 13.3317 1.54265 13.3928C1.56089 13.5369 1.58524 13.6804 1.61297 13.8227C1.66124 14.0711 1.72742 14.3163 1.7343 14.5722C1.73883 14.7433 1.71996 14.9089 1.61018 15.0456C1.56479 15.1022 1.51435 15.1545 1.43696 15.1614C1.30638 15.1728 1.22942 15.2467 1.20993 15.3856C1.20521 15.419 1.18774 15.4335 1.15357 15.4316C1.06973 15.4272 1.00201 15.4599 0.951331 15.5337C0.91716 15.5832 0.86749 15.609 0.80935 15.6033C0.73961 15.5967 0.670303 15.584 0.600804 15.5734C0.440389 15.5488 0.427201 15.6205 0.459015 15.7489C0.491791 15.8813 0.534626 16.0107 0.569761 16.1423C0.580783 16.1835 0.586269 16.2279 0.586654 16.271C0.588243 16.4098 0.576066 16.5497 0.58805 16.6876C0.610815 16.9499 0.752412 17.1266 1.02319 17.1108C1.08739 17.107 1.14062 17.1231 1.19304 17.1608C1.27707 17.221 1.35658 17.2842 1.40259 17.3887C1.36746 17.4187 1.33189 17.4472 1.29791 17.478C1.24608 17.5248 1.23881 17.5807 1.28516 17.6322C1.40928 17.7705 1.55969 17.8576 1.74133 17.8758C1.87508 17.8894 2.00604 17.8637 2.137 17.84C2.35893 17.8001 2.58119 17.7918 2.79662 17.8694C3.19051 18.0115 3.59248 18.1044 4.0088 18.1262C4.21302 18.1371 4.41588 18.126 4.61755 18.0971C4.89756 18.057 5.16699 17.976 5.4215 17.8438C5.55251 17.7757 5.68915 17.7665 5.82131 17.823C5.94188 17.8744 6.0558 17.9448 6.17064 18.0105C6.30988 18.0903 6.45027 18.1505 6.61362 18.1009C6.70593 18.0728 6.74169 18.093 6.79901 18.1806C6.91939 18.364 6.94903 18.5739 6.95414 18.7896C6.95808 18.9492 6.94985 19.1094 6.9563 19.2688C6.96237 19.4158 6.98046 19.5623 6.9936 19.7091C6.99654 19.7421 7.0105 19.7774 7.00284 19.807C6.94042 20.0497 6.87775 20.2927 6.80744 20.5329C6.75127 20.7249 6.66271 20.8958 6.50697 21.0239C6.44868 21.0717 6.40329 21.1432 6.36619 21.2122C6.33692 21.2667 6.31122 21.3244 6.28408 21.3808C6.2024 21.5512 6.10855 21.711 5.97422 21.8591C6.03077 21.8865 6.07866 21.9194 6.13112 21.9338C6.452 22.0215 6.76364 21.9811 7.05915 21.8307C7.14733 21.7859 7.22193 21.762 7.31679 21.7968C7.38552 21.822 7.44953 21.7941 7.49059 21.7247C7.50825 21.6947 7.52948 21.6653 7.53987 21.6323C7.56779 21.5433 7.59522 21.4534 7.61471 21.3621C7.65317 21.1824 7.68792 21.0019 7.72074 20.821C7.7708 20.5453 7.8401 20.278 7.97934 20.0349C8.05534 19.902 8.12681 19.7653 8.16002 19.6112C8.17297 19.5508 8.18105 19.4892 8.19145 19.4278C8.19949 19.4269 8.20579 19.4253 8.21205 19.4262C8.33006 19.4384 8.40567 19.5106 8.44437 19.6242C8.47561 19.7162 8.49755 19.8118 8.52292 19.9058C8.56436 20.0601 8.62442 20.2008 8.7497 20.3024C8.80746 20.3492 8.86733 20.3996 8.90839 20.4616C9.06668 20.7017 9.27537 20.8485 9.55111 20.8853C9.56391 20.887 9.57585 20.8991 9.58744 20.9076C9.62277 20.9337 9.6554 20.9648 9.69309 20.9859C9.8484 21.0724 10.0049 21.1568 10.162 21.2399C10.1728 21.2455 10.198 21.2401 10.205 21.2305C10.2323 21.1934 10.2635 21.1556 10.2782 21.1124C10.3682 20.8464 10.3191 20.6018 10.161 20.3811C10.1199 20.3236 10.0597 20.2819 10.0049 20.2295C10.0221 20.2213 10.0412 20.2089 10.0618 20.2026C10.1123 20.1867 10.1645 20.1769 10.214 20.1588C10.2825 20.134 10.3024 20.0854 10.2725 20.016C10.2242 19.9038 10.1398 19.8303 10.0336 19.7866C9.96386 19.7579 9.89037 19.7391 9.8201 19.7123C9.80205 19.7054 9.78612 19.686 9.77395 19.6685C9.73332 19.6109 9.7017 19.5437 9.65338 19.4947C9.59741 19.4379 9.52752 19.3967 9.4639 19.3484C9.42814 19.3211 9.39969 19.2901 9.39497 19.2385C9.3814 19.0888 9.43367 18.9732 9.5513 18.8912C9.61945 18.8437 9.68837 18.7975 9.75845 18.7534C9.93499 18.6424 10.0834 18.5021 10.1859 18.3106C10.2272 18.2335 10.2857 18.1742 10.3627 18.1376C10.6285 18.0112 10.8568 17.8267 11.0718 17.6221C11.1041 17.5913 11.134 17.5601 11.1796 17.5519C11.2536 17.5388 11.3267 17.5189 11.4011 17.5103C11.686 17.478 11.9709 17.4935 12.2549 17.5221C12.4632 17.5434 12.671 17.5732 12.879 17.5996C13.1504 17.6342 13.4211 17.6726 13.6929 17.7033C13.9331 17.7305 14.1736 17.7559 14.4147 17.7716C14.706 17.7903 14.9975 17.7907 15.289 17.7649C15.5266 17.7437 15.762 17.7097 15.9926 17.6446C16.4366 17.5191 16.8855 17.4292 17.3457 17.404C17.6848 17.3852 18.0208 17.4025 18.3531 17.4785C18.5047 17.5133 18.6535 17.5579 18.7865 17.6475C18.8126 17.6652 18.825 17.6854 18.8283 17.7206C18.8491 17.9363 18.8694 18.1524 18.8976 18.367C18.9331 18.6377 18.9753 18.9074 18.9605 19.1819C18.9528 19.3215 18.9227 19.4556 18.856 19.5792C18.6622 19.9378 18.4678 20.2961 18.2789 20.6574C18.1891 20.8289 18.1049 21.0045 18.0711 21.2008C18.0664 21.2287 18.0719 21.261 18.0607 21.2847C18 21.4132 17.938 21.5412 17.8716 21.6663C17.8384 21.7288 17.7948 21.785 17.7514 21.8506C17.8983 21.8749 18.0361 21.9009 18.175 21.9199C18.3627 21.9454 18.5514 21.9584 18.7386 21.9136C18.9057 21.8739 19.042 21.7893 19.1064 21.6087C19.1077 21.6049 19.1134 21.6028 19.1146 21.6022C19.1462 21.6255 19.1743 21.6511 19.2061 21.6691C19.2931 21.7183 19.44 21.6714 19.4314 21.5259C19.4259 21.432 19.44 21.3364 19.4485 21.242C19.4708 20.9925 19.5283 20.7524 19.6189 20.5211C19.7797 20.1098 20.0401 19.7755 20.3431 19.4753C20.3757 19.443 20.4211 19.4216 20.4641 19.4058C20.5422 19.3773 20.6231 19.3571 20.7029 19.3331C20.7934 19.3059 20.8664 19.2524 20.9042 19.1591C20.9454 19.0569 20.9874 18.9537 21.0145 18.8468C21.0396 18.7483 21.0457 18.6443 21.0601 18.5422C21.1679 18.5296 21.3116 18.5945 21.3735 18.6905C21.4122 18.7504 21.4405 18.8181 21.4809 18.8764C21.5296 18.9468 21.5863 19.011 21.6394 19.0779C21.6737 19.1213 21.7169 19.1599 21.7401 19.2092C21.8501 19.4437 21.8672 19.7008 21.8836 19.9556C21.8936 20.113 21.884 20.2716 21.8856 20.4297C21.8874 20.6147 21.8871 20.8 21.8972 20.9847C21.9011 21.056 21.8904 21.1193 21.8601 21.1787C21.7927 21.3095 21.7218 21.4381 21.6513 21.567C21.5956 21.6687 21.6038 21.6905 21.7147 21.7098C21.9869 21.7577 22.2575 21.7454 22.5228 21.6668C22.6989 21.6148 22.8595 21.533 22.9267 21.3313C22.9603 21.3456 22.9919 21.3623 23.0253 21.3726C23.1037 21.3965 23.1526 21.3607 23.1632 21.2751C23.1765 21.1658 23.1529 21.0621 23.1137 20.9631C22.9809 20.6285 22.8608 20.2902 22.8209 19.9264C22.8013 19.7463 22.8062 19.5678 22.8505 19.3913C22.8904 19.2329 22.9705 19.0969 23.054 18.9621C23.0929 18.8992 23.1318 18.8331 23.1123 18.7541C23.1033 18.7172 23.1125 18.6949 23.1312 18.6673C23.2144 18.5432 23.2616 18.405 23.2174 18.2555C23.1846 18.1437 23.1338 18.0365 23.0811 17.933C22.9922 17.7583 22.9007 17.5855 22.87 17.3863C22.8655 17.3566 22.8643 17.3184 22.8777 17.2943C23.064 16.9585 23.2535 16.6246 23.4417 16.2898C23.6011 16.0058 23.7608 15.7206 23.8526 15.4029C23.9434 15.0896 24.016 14.7704 24.1034 14.4559C24.2389 13.9683 24.3041 13.471 24.3155 12.9651C24.4184 13.0252 24.5271 13.0727 24.6393 13.1056C24.7997 13.1527 24.9672 13.1698 25.1332 13.1581C25.1621 13.1963 25.1921 13.2336 25.2239 13.2699C25.4209 13.4949 25.6671 13.6635 25.9405 13.7641C26.4773 13.9617 27.1134 13.8649 27.5342 13.4455C27.9175 13.0639 28.108 12.4413 27.9368 11.9031C27.8863 11.7462 27.7396 11.6442 27.5816 11.6904ZM25.6785 12.2725C25.6558 12.2954 25.6326 12.3177 25.6083 12.3387C25.6023 12.3433 25.5967 12.3478 25.5929 12.3507C25.5773 12.3624 25.5615 12.3741 25.5453 12.3849C25.4989 12.4161 25.451 12.444 25.4015 12.469C25.3926 12.45 25.3843 12.4309 25.376 12.4117C25.3224 12.2687 25.2841 12.1203 25.2617 11.9683C25.2501 11.8561 25.2478 11.7439 25.2582 11.6316C25.2698 11.5596 25.2868 11.489 25.3108 11.4205C25.3224 11.3947 25.3348 11.3695 25.3491 11.3454C25.3554 11.3348 25.3619 11.3242 25.3686 11.3135C25.3723 11.3087 25.376 11.3042 25.379 11.3008C25.3927 11.2852 25.4066 11.27 25.4218 11.2561C25.44 11.2432 25.4589 11.2317 25.4784 11.2211C25.4966 11.2149 25.5151 11.2095 25.5337 11.2053C25.5572 11.204 25.5808 11.204 25.6044 11.2057C25.6354 11.2126 25.6657 11.2215 25.6956 11.2328C25.7209 11.2459 25.7454 11.2603 25.769 11.2767C25.7741 11.2802 25.7792 11.284 25.7843 11.2877C25.7945 11.2969 25.8045 11.3062 25.8139 11.3162C25.8283 11.331 25.842 11.3465 25.855 11.3625C25.8724 11.3902 25.8878 11.4187 25.9015 11.4485C25.9166 11.493 25.928 11.5384 25.9363 11.5848C25.9408 11.6443 25.9402 11.7039 25.9351 11.7632C25.9232 11.8332 25.9053 11.9013 25.8817 11.9679C25.8539 12.0314 25.8213 12.0926 25.783 12.1499C25.779 12.1555 25.7721 12.1651 25.7661 12.1734C25.7602 12.1809 25.7541 12.1884 25.748 12.1957C25.7256 12.2222 25.7029 12.2482 25.6785 12.2725Z" fill="#E31E24"/>
</g>
<defs>
<clipPath id="clip0">
<rect width="28" height="28" fill="white"/>
</clipPath>
</defs>
</svg>
