<svg width="31" height="31" viewBox="0 0 31 31" fill="none" xmlns="http://www.w3.org/2000/svg">
<path d="M28.2754 4.60156H2.72461C1.21923 4.60156 0 5.82836 0 7.32617V23.6738C0 25.1805 1.22819 26.3984 2.72461 26.3984H28.2754C29.7682 26.3984 31 25.1857 31 23.6738V7.32617C31 5.83103 29.7856 4.60156 28.2754 4.60156ZM27.8938 6.41797C27.3372 6.97167 17.7574 16.501 17.4266 16.83C16.912 17.3447 16.2278 17.628 15.5 17.628C14.7722 17.628 14.088 17.3446 13.5717 16.8283C13.3493 16.607 3.87518 7.18292 3.10618 6.41797H27.8938ZM1.81641 23.3041V7.69702L9.66558 15.5048L1.81641 23.3041ZM3.10733 24.582L10.9534 16.7858L12.289 18.1144C13.1467 18.9721 14.2871 19.4444 15.5 19.4444C16.7129 19.4444 17.8533 18.9721 18.7093 18.1161L20.0466 16.7858L27.8927 24.582H3.10733ZM29.1836 23.3041L21.3344 15.5048L29.1836 7.69702V23.3041Z" fill="white"/>
</svg>
