<svg width="30" height="60" viewBox="0 0 30 60" fill="none" xmlns="http://www.w3.org/2000/svg">
<circle cx="15" cy="15" r="14.5" fill="white" stroke="white"/>
<g clip-path="url(#clip0)">
<path d="M14.114 18.6785C12.7185 18.5329 11.4604 18.1893 10.3832 17.3468C10.2495 17.242 10.1115 17.1409 9.98953 17.0238C9.51804 16.571 9.47053 16.0524 9.84361 15.518C10.1628 15.0606 10.6985 14.9383 11.2554 15.2009C11.3633 15.2518 11.466 15.3153 11.5644 15.3835C13.572 16.7629 16.3298 16.801 18.3449 15.4456C18.5445 15.2925 18.7579 15.1677 19.0053 15.104C19.4862 14.9805 19.9347 15.1571 20.1928 15.5779C20.4876 16.0584 20.4838 16.5275 20.1206 16.9006C19.5633 17.4725 18.8931 17.8863 18.1485 18.1751C17.4443 18.4481 16.6731 18.5855 15.9098 18.6768C16.025 18.8021 16.0793 18.8638 16.1513 18.9362C17.1878 19.9776 18.2288 21.0146 19.2618 22.0592C19.6138 22.4151 19.6873 22.8564 19.4935 23.2704C19.2816 23.7229 18.8073 24.0205 18.3423 23.9887C18.0476 23.9683 17.8178 23.8216 17.6136 23.616C16.8315 22.8289 16.0346 22.0564 15.2683 21.2544C15.0452 21.0212 14.938 21.0653 14.7412 21.2678C13.9543 22.0778 13.1546 22.8755 12.3502 23.6686C11.989 24.0247 11.5591 24.0888 11.1402 23.8854C10.695 23.6695 10.4116 23.215 10.4335 22.7582C10.4486 22.4492 10.6005 22.2132 10.8126 22.0015C11.8383 20.9773 12.8612 19.9504 13.8845 18.9245C13.9522 18.8562 14.0154 18.7839 14.114 18.6785Z" fill="#E31E24"/>
<path d="M14.964 15.111C12.4746 15.1025 10.4333 13.0388 10.4478 10.5454C10.4622 8.02453 12.5048 5.99304 15.0187 6.00002C17.5377 6.0068 19.5595 8.06751 19.5469 10.6146C19.5341 13.1029 17.4787 15.1196 14.964 15.111ZM17.2264 10.5514C17.2221 9.31343 16.2361 8.32785 15.0006 8.32672C13.7546 8.3254 12.7598 9.32889 12.7694 10.5782C12.7787 11.8115 13.7731 12.7901 15.0121 12.7856C16.2473 12.7812 17.2306 11.7893 17.2264 10.5514Z" fill="#E31E24"/>
</g>
<circle cx="15" cy="45" r="14.5" fill="#E31E24" stroke="#E31E24"/>
<g clip-path="url(#clip1)">
<path d="M14.114 48.6785C12.7185 48.5329 11.4604 48.1893 10.3832 47.3468C10.2495 47.242 10.1115 47.1409 9.98953 47.0238C9.51804 46.571 9.47053 46.0524 9.84361 45.518C10.1628 45.0606 10.6985 44.9383 11.2554 45.2009C11.3633 45.2518 11.466 45.3153 11.5644 45.3835C13.572 46.7629 16.3298 46.801 18.3449 45.4456C18.5445 45.2925 18.7579 45.1677 19.0053 45.104C19.4862 44.9805 19.9347 45.1571 20.1928 45.5779C20.4876 46.0584 20.4838 46.5275 20.1206 46.9006C19.5633 47.4725 18.8931 47.8863 18.1485 48.1751C17.4443 48.4481 16.6731 48.5855 15.9098 48.6768C16.025 48.8021 16.0793 48.8638 16.1513 48.9362C17.1878 49.9776 18.2288 51.0146 19.2618 52.0592C19.6138 52.4151 19.6873 52.8564 19.4935 53.2704C19.2816 53.7229 18.8073 54.0205 18.3423 53.9887C18.0476 53.9683 17.8178 53.8216 17.6136 53.616C16.8315 52.8289 16.0346 52.0564 15.2683 51.2544C15.0452 51.0212 14.938 51.0653 14.7412 51.2678C13.9543 52.0778 13.1546 52.8755 12.3502 53.6686C11.989 54.0247 11.5591 54.0888 11.1402 53.8854C10.695 53.6695 10.4116 53.215 10.4335 52.7582C10.4486 52.4492 10.6005 52.2132 10.8126 52.0015C11.8383 50.9773 12.8612 49.9504 13.8845 48.9245C13.9522 48.8562 14.0154 48.7839 14.114 48.6785Z" fill="white"/>
<path d="M14.964 45.111C12.4746 45.1025 10.4333 43.0388 10.4478 40.5454C10.4622 38.0245 12.5048 35.993 15.0187 36C17.5377 36.0068 19.5595 38.0675 19.5469 40.6146C19.5341 43.1029 17.4787 45.1196 14.964 45.111ZM17.2264 40.5514C17.2221 39.3134 16.2361 38.3279 15.0006 38.3267C13.7546 38.3254 12.7598 39.3289 12.7694 40.5782C12.7787 41.8115 13.7731 42.7901 15.0121 42.7856C16.2473 42.7812 17.2306 41.7893 17.2264 40.5514Z" fill="white"/>
</g>
<defs>
<clipPath id="clip0">
<rect width="18" height="18" fill="white" transform="translate(6 6)"/>
</clipPath>
<clipPath id="clip1">
<rect width="18" height="18" fill="white" transform="translate(6 36)"/>
</clipPath>
</defs>
</svg>
