<svg width="28" height="28" viewBox="0 0 28 28" fill="none" xmlns="http://www.w3.org/2000/svg">
<path d="M27.8417 9.15276L24.825 6.00557L26.138 5.16816L26.2146 4.5155L25.6056 4.47919L24.0261 5.61527L22.0551 5.61697L20.8486 4.88027L20.4164 4.9685L20.4228 5.44745L21.2005 6.30883L21.098 6.76129L11.9452 7.74563L2.46446 7.48087L1.44281 7.90914L0.690266 8.8654L0.303077 11.1021L0.23468 12.71L0 14.2113L0.0645119 15.7067L0.328446 15.7607L0.712103 15.3383L1.02401 13.9352L0.7712 11.9888L0.859139 11.9756L1.4534 14.9387L1.04861 17.5104L1.4182 22.6428L1.4534 23.2112L1.81357 23.5185L3.40606 23.5209L3.91922 23.3657L2.49448 21.0456L3.20129 18.0992L3.57146 18.0999L4.86306 22.0173L5.52884 23.023L5.85728 23.2252L7.61517 23.2265L7.84073 22.9442L6.31899 22.0094L5.28721 18.8319L5.54585 18.316L6.15194 18.3723L6.53248 19.3041L7.08372 18.3958L7.61782 19.3079L8.07023 18.3176L9.40185 17.294L14.1272 16.8414L14.9203 17.8111L15.5887 22.5511L15.9403 23.2322L17.5504 23.2316L17.724 22.9764L16.7454 21.6142L16.6278 19.0205L17.1562 19.3138L17.7129 21.0368L18.4208 23.274L18.7382 23.5201L20.1788 23.5209L20.2984 23.1956L19.8773 22.8058L18.5189 20.1511L18.832 17.369L20.3542 16.2431L22.5715 12.1246L25.1235 10.9464L27.4704 10.6793L27.6716 10.4611L28 9.53547L27.8417 9.15276Z" fill="#E31E24"/>
</svg>
