<svg width="30" height="61" viewBox="0 0 30 61" fill="none" xmlns="http://www.w3.org/2000/svg">
<circle cx="15" cy="15" r="14.5" fill="white" stroke="white"/>
<path d="M15 11.0078C12.5 11.0078 10.5078 13.0391 10.5078 15.5C10.5078 18 12.5 19.9922 15 19.9922C17.4609 19.9922 19.4922 18 19.4922 15.5C19.4922 13.0391 17.4609 11.0078 15 11.0078ZM15 18.4297C13.3984 18.4297 12.0703 17.1406 12.0703 15.5C12.0703 13.8984 13.3594 12.6094 15 12.6094C16.6016 12.6094 17.8906 13.8984 17.8906 15.5C17.8906 17.1406 16.6016 18.4297 15 18.4297ZM20.7031 10.8516C20.7031 10.2656 20.2344 9.79688 19.6484 9.79688C19.0625 9.79688 18.5938 10.2656 18.5938 10.8516C18.5938 11.4375 19.0625 11.9062 19.6484 11.9062C20.2344 11.9062 20.7031 11.4375 20.7031 10.8516ZM23.6719 11.9062C23.5938 10.5 23.2812 9.25 22.2656 8.23438C21.25 7.21875 20 6.90625 18.5938 6.82812C17.1484 6.75 12.8125 6.75 11.3672 6.82812C9.96094 6.90625 8.75 7.21875 7.69531 8.23438C6.67969 9.25 6.36719 10.5 6.28906 11.9062C6.21094 13.3516 6.21094 17.6875 6.28906 19.1328C6.36719 20.5391 6.67969 21.75 7.69531 22.8047C8.75 23.8203 9.96094 24.1328 11.3672 24.2109C12.8125 24.2891 17.1484 24.2891 18.5938 24.2109C20 24.1328 21.25 23.8203 22.2656 22.8047C23.2812 21.75 23.5938 20.5391 23.6719 19.1328C23.75 17.6875 23.75 13.3516 23.6719 11.9062ZM21.7969 20.6562C21.5234 21.4375 20.8984 22.0234 20.1562 22.3359C18.9844 22.8047 16.25 22.6875 15 22.6875C13.7109 22.6875 10.9766 22.8047 9.84375 22.3359C9.0625 22.0234 8.47656 21.4375 8.16406 20.6562C7.69531 19.5234 7.8125 16.7891 7.8125 15.5C7.8125 14.25 7.69531 11.5156 8.16406 10.3438C8.47656 9.60156 9.0625 9.01562 9.84375 8.70312C10.9766 8.23438 13.7109 8.35156 15 8.35156C16.25 8.35156 18.9844 8.23438 20.1562 8.70312C20.8984 8.97656 21.4844 9.60156 21.7969 10.3438C22.2656 11.5156 22.1484 14.25 22.1484 15.5C22.1484 16.7891 22.2656 19.5234 21.7969 20.6562Z" fill="#E31E24"/>
<circle cx="15" cy="46" r="14.5" fill="#E31E24" stroke="#E31E24"/>
<path d="M15 42.0078C12.5 42.0078 10.5078 44.0391 10.5078 46.5C10.5078 49 12.5 50.9922 15 50.9922C17.4609 50.9922 19.4922 49 19.4922 46.5C19.4922 44.0391 17.4609 42.0078 15 42.0078ZM15 49.4297C13.3984 49.4297 12.0703 48.1406 12.0703 46.5C12.0703 44.8984 13.3594 43.6094 15 43.6094C16.6016 43.6094 17.8906 44.8984 17.8906 46.5C17.8906 48.1406 16.6016 49.4297 15 49.4297ZM20.7031 41.8516C20.7031 41.2656 20.2344 40.7969 19.6484 40.7969C19.0625 40.7969 18.5938 41.2656 18.5938 41.8516C18.5938 42.4375 19.0625 42.9062 19.6484 42.9062C20.2344 42.9062 20.7031 42.4375 20.7031 41.8516ZM23.6719 42.9062C23.5938 41.5 23.2812 40.25 22.2656 39.2344C21.25 38.2188 20 37.9062 18.5938 37.8281C17.1484 37.75 12.8125 37.75 11.3672 37.8281C9.96094 37.9062 8.75 38.2188 7.69531 39.2344C6.67969 40.25 6.36719 41.5 6.28906 42.9062C6.21094 44.3516 6.21094 48.6875 6.28906 50.1328C6.36719 51.5391 6.67969 52.75 7.69531 53.8047C8.75 54.8203 9.96094 55.1328 11.3672 55.2109C12.8125 55.2891 17.1484 55.2891 18.5938 55.2109C20 55.1328 21.25 54.8203 22.2656 53.8047C23.2812 52.75 23.5938 51.5391 23.6719 50.1328C23.75 48.6875 23.75 44.3516 23.6719 42.9062ZM21.7969 51.6562C21.5234 52.4375 20.8984 53.0234 20.1562 53.3359C18.9844 53.8047 16.25 53.6875 15 53.6875C13.7109 53.6875 10.9766 53.8047 9.84375 53.3359C9.0625 53.0234 8.47656 52.4375 8.16406 51.6562C7.69531 50.5234 7.8125 47.7891 7.8125 46.5C7.8125 45.25 7.69531 42.5156 8.16406 41.3438C8.47656 40.6016 9.0625 40.0156 9.84375 39.7031C10.9766 39.2344 13.7109 39.3516 15 39.3516C16.25 39.3516 18.9844 39.2344 20.1562 39.7031C20.8984 39.9766 21.4844 40.6016 21.7969 41.3438C22.2656 42.5156 22.1484 45.25 22.1484 46.5C22.1484 47.7891 22.2656 50.5234 21.7969 51.6562Z" fill="white"/>
</svg>
