<svg width="60" height="60" viewBox="0 0 60 60" fill="none" xmlns="http://www.w3.org/2000/svg">
<path d="M29.4465 13.1289V9.37415C29.4465 8.98047 29.1276 8.66113 28.7339 8.66113H12.0958C11.7018 8.66113 11.3828 8.98047 11.3828 9.37415V13.1289C11.3828 13.5226 11.7018 13.8419 12.0958 13.8419H28.7339C29.1276 13.8419 29.4465 13.5226 29.4465 13.1289ZM28.0209 12.4163H12.8085V10.0872H28.0209V12.4163Z" fill="#E31E24"/>
<path d="M38.6384 39.9453H11.4831C11.1598 39.9453 10.8767 40.1632 10.7939 40.4756L9.76598 44.353C9.70922 44.5669 9.75536 44.795 9.89012 44.9705C10.0253 45.1462 10.234 45.2488 10.4552 45.2488H39.6664C39.8876 45.2488 40.0963 45.1459 40.2314 44.9705C40.3662 44.7954 40.412 44.5673 40.3556 44.353L39.3276 40.4756C39.2445 40.1628 38.9618 39.9453 38.6384 39.9453ZM11.3817 43.8231L12.0314 41.3713H38.0898L38.7399 43.8231H11.3817Z" fill="#E31E24"/>
<path d="M26.7974 30.7324H13.4197C13.026 30.7324 12.707 31.0518 12.707 31.4454V35.347C12.707 35.7407 13.026 36.0601 13.4197 36.0601H26.7974C27.191 36.0601 27.51 35.7407 27.51 35.347V31.4454C27.51 31.0518 27.191 30.7324 26.7974 30.7324ZM26.0844 34.6344H14.1327V32.1581H26.0844V34.6344Z" fill="#E31E24"/>
<path d="M50.3983 10.5927H49.4531C49.0594 10.5927 48.7401 10.912 48.7401 11.3057C48.7401 11.6993 49.0594 12.0183 49.4531 12.0183H50.3983C51.4493 12.0183 52.3044 12.8734 52.3044 13.9244V17.1215H37.4777V13.9244C37.4777 12.8734 38.3328 12.0183 39.3838 12.0183H46.6014C46.9955 12.0183 47.3145 11.6993 47.3145 11.3057C47.3145 10.912 46.9955 10.5927 46.6014 10.5927H39.3838C37.5469 10.5927 36.052 12.0875 36.052 13.9244V28.0836H23.5419V16.5033H29.5312C30.9514 16.5033 32.1072 15.3479 32.1072 13.9277V8.57593C32.1072 7.1554 30.9518 6 29.5312 6H11.2961C9.87598 6 8.72021 7.1554 8.72021 8.57593V13.9277C8.72021 15.3479 9.87598 16.5037 11.2961 16.5037H17.2855V28.084H11.937C10.1638 28.084 8.72058 29.5269 8.72058 31.3004V37.9025L6.30505 47.0145C6.30469 47.0156 6.30505 47.0175 6.30469 47.0189C6.29004 47.076 6.28125 47.1354 6.28125 47.1973V53.287C6.28125 53.6807 6.60022 54 6.99426 54H9.6665C10.0602 54 10.3795 53.6807 10.3795 53.287C10.3795 52.8933 10.0602 52.5743 9.6665 52.5743H7.70691V47.9099H42.4102V52.5743H12.5182C12.1245 52.5743 11.8055 52.8933 11.8055 53.287C11.8055 53.6807 12.1245 54 12.5182 54H43.1232C43.5168 54 43.8358 53.6807 43.8358 53.287V47.1973C43.8358 47.1354 43.8274 47.076 43.8127 47.0189C43.8124 47.0175 43.8127 47.0156 43.8124 47.0145L41.3969 37.9028V33.2252H50.3983C52.2356 33.2252 53.7301 31.7307 53.7301 29.8934V13.9244C53.7301 12.0875 52.2356 10.5927 50.3983 10.5927ZM10.1462 13.9277V8.57593C10.1462 7.94165 10.6622 7.42566 11.2961 7.42566H29.5312C30.1655 7.42566 30.6815 7.94165 30.6815 8.57593V13.9277C30.6815 14.562 30.1655 15.0776 29.5312 15.0776H11.2961C10.6619 15.0776 10.1462 14.5616 10.1462 13.9277ZM22.1162 16.5033V28.0836H18.7112V16.5033H22.1162ZM40.6904 31.7996C40.6882 31.7996 40.686 31.7992 40.6838 31.7992C40.6816 31.7992 40.6798 31.7996 40.6776 31.7996H39.3838C38.3328 31.7996 37.4777 30.9445 37.4777 29.8934V28.8003C37.4777 28.7992 37.478 28.7977 37.478 28.7966C37.478 28.7952 37.4777 28.7941 37.4777 28.793V28.3326H41.2983V31.7996H40.6904ZM37.4777 26.907V23.4401H41.2983V26.907H37.4777ZM42.724 23.4397H47.0581V26.907H42.724V23.4397ZM48.4838 23.4397H52.3044V26.907H48.4838V23.4397ZM52.3044 22.014H48.4838V18.5471H52.3044V22.014ZM47.0581 18.5471V22.014H42.724V18.5471H47.0581ZM41.2983 18.5471V22.014H37.4777V18.5471H41.2983ZM7.92041 46.4843L9.98181 38.7096H40.1356L42.1967 46.4843H7.92041ZM39.9712 37.2836H10.1466V31.3C10.1466 30.3127 10.9497 29.5093 11.937 29.5093H36.052V29.8934C36.052 31.7307 37.5465 33.2252 39.3838 33.2252H39.9712V37.2836ZM42.724 31.7996V28.3326H47.0581V31.7996H42.724ZM50.3983 31.7996H48.4838V28.3326H52.3044V29.8934C52.3044 30.9445 51.4493 31.7996 50.3983 31.7996Z" fill="#E31E24"/>
<path d="M46.9219 15.6051C46.9219 15.9988 47.2408 16.3177 47.6349 16.3177H50.6074C51.0015 16.3177 51.3204 15.9988 51.3204 15.6051C51.3204 15.2114 51.0015 14.8921 50.6074 14.8921H47.6349C47.2408 14.8921 46.9219 15.2111 46.9219 15.6051Z" fill="#E31E24"/>
</svg>
