<svg width="26" height="26" viewBox="0 0 26 26" fill="none" xmlns="http://www.w3.org/2000/svg">
<circle cx="13" cy="13" r="13" fill="#36353B"/>
<path d="M17.9964 9.90965C18.0044 9.84385 17.9987 9.77704 17.9797 9.71367C17.9607 9.6503 17.9288 9.59181 17.8862 9.54208C17.8436 9.49236 17.7911 9.45253 17.7324 9.42525C17.6737 9.39796 17.61 9.38384 17.5455 9.38383H15.2728C15.2273 9.38383 15.1846 9.3885 15.1405 9.39084C15.2862 8.89402 15.312 8.36814 15.2157 7.85874C15.1193 7.34934 14.9038 6.87179 14.5878 6.46744L13.355 4.88107C13.3109 4.82873 13.2564 4.78677 13.1951 4.758C13.1339 4.72924 13.0673 4.71436 13 4.71436C12.9327 4.71436 12.8661 4.72924 12.8049 4.758C12.7436 4.78677 12.6891 4.82873 12.645 4.88107L11.4122 6.46744C11.0962 6.87179 10.8807 7.34934 10.7843 7.85874C10.688 8.36814 10.7138 8.89402 10.8595 9.39084C10.8154 9.3885 10.7727 9.38383 10.7272 9.38383H8.45447C8.39003 9.38384 8.32633 9.39796 8.26759 9.42525C8.20886 9.45253 8.15643 9.49236 8.11379 9.54208C8.07115 9.59181 8.03927 9.6503 8.02026 9.71367C8.00126 9.77704 7.99556 9.84385 8.00355 9.90965L8.17628 11.3314C8.21229 11.6312 8.2907 11.924 8.40901 12.2006C8.2959 12.21 8.1904 12.2629 8.11355 12.3489C8.07094 12.3986 8.03909 12.4571 8.02012 12.5205C8.00116 12.5839 7.99551 12.6508 8.00355 12.7166L8.17628 14.1383C8.21229 14.4381 8.2907 14.731 8.40901 15.0075C8.2959 15.0169 8.1904 15.0698 8.11355 15.1558C8.07094 15.2055 8.03909 15.2641 8.02012 15.3275C8.00116 15.3908 7.99551 15.4577 8.00355 15.5235L8.17628 16.9452C8.26874 17.6987 8.62495 18.3917 9.17821 18.8944C9.73146 19.3971 10.4438 19.6749 11.1818 19.6758H12.5454V21.5471H13.4546V19.6758H14.8182C15.5562 19.6749 16.2685 19.3971 16.8218 18.8944C17.375 18.3917 17.7313 17.6987 17.8237 16.9452L17.9964 15.5235C18.0045 15.4577 17.9988 15.3908 17.9799 15.3275C17.9609 15.2641 17.9291 15.2055 17.8864 15.1558C17.8096 15.0698 17.7041 15.0169 17.591 15.0075C17.7093 14.731 17.7877 14.4381 17.8237 14.1383L17.9964 12.7166C18.0045 12.6508 17.9988 12.5839 17.9799 12.5205C17.9609 12.4571 17.9291 12.3986 17.8864 12.3489C17.8096 12.2629 17.7041 12.21 17.591 12.2006C17.7093 11.924 17.7877 11.6312 17.8237 11.3314L17.9964 9.90965ZM17.0305 10.3195L16.9219 11.2153C16.8778 11.5666 16.751 11.9015 16.5523 12.1907H15.2728C14.6009 12.1909 13.9531 12.4476 13.4546 12.9112V12.1907C13.4546 11.6944 13.6461 11.2185 13.9871 10.8675C14.3281 10.5166 14.7905 10.3195 15.2728 10.3195H17.0305ZM16.9219 14.0223C16.8778 14.3735 16.751 14.7084 16.5523 14.9977H15.2728C14.6009 14.9978 13.9531 15.2546 13.4546 15.7181V14.9977C13.4546 14.5014 13.6461 14.0254 13.9871 13.6745C14.3281 13.3235 14.7905 13.1264 15.2728 13.1264H17.0305L16.9219 14.0223ZM9.44767 14.9977C9.24904 14.7084 9.12217 14.3735 9.07812 14.0223L8.96948 13.1264H10.7272C11.2095 13.1264 11.6719 13.3235 12.0129 13.6745C12.3539 14.0254 12.5454 14.5014 12.5454 14.9977V15.7181C12.0469 15.2546 11.3991 14.9978 10.7272 14.9977H9.44767ZM13 5.92197L13.8782 7.05175C14.1921 7.45668 14.3632 7.9592 14.3637 8.47719C14.3633 8.58682 14.3551 8.69627 14.3391 8.80467L12.0182 7.21408C12.0527 7.16075 12.0827 7.10414 12.1218 7.05409L13 5.92197ZM11.6363 8.47672C11.6364 8.34909 11.6471 8.2217 11.6682 8.09592L14.01 9.70288V9.70569C13.6031 9.92577 13.2565 10.2475 13.0018 10.6413C12.7472 10.2475 12.4005 9.92577 11.9936 9.70569C11.762 9.34015 11.638 8.91356 11.6363 8.47719V8.47672ZM10.7272 10.3195C11.2095 10.3195 11.6719 10.5166 12.0129 10.8675C12.3539 11.2185 12.5454 11.6944 12.5454 12.1907V12.9112C12.0469 12.4476 11.3991 12.1909 10.7272 12.1907H9.44767C9.24904 11.9015 9.12217 11.5666 9.07812 11.2153L8.96948 10.3195H10.7272ZM9.07812 16.8292L8.96948 15.9333H10.7272C11.2095 15.9333 11.6719 16.1304 12.0129 16.4814C12.3539 16.8323 12.5454 17.3083 12.5454 17.8046V18.7402H11.1818C10.6653 18.7395 10.1667 18.5451 9.77951 18.1933C9.39228 17.8415 9.14291 17.3565 9.07812 16.8292ZM16.9219 16.8292C16.8571 17.3565 16.6077 17.8415 16.2205 18.1933C15.8333 18.5451 15.3347 18.7395 14.8182 18.7402H13.4546V17.8046C13.4546 17.3083 13.6461 16.8323 13.9871 16.4814C14.3281 16.1304 14.7905 15.9333 15.2728 15.9333H17.0305L16.9219 16.8292Z" fill="white"/>
</svg>
