<svg width="30" height="60" viewBox="0 0 30 60" fill="none" xmlns="http://www.w3.org/2000/svg">
<circle cx="15" cy="15" r="14.5" fill="white" stroke="white"/>
<path d="M19.416 16.0625L19.9355 12.6484H16.6328V10.4219C16.6328 9.45703 17.0781 8.56641 18.5625 8.56641H20.084V5.63477C20.084 5.63477 18.7109 5.375 17.4121 5.375C14.7031 5.375 12.9219 7.04492 12.9219 10.0137V12.6484H9.87891V16.0625H12.9219V24.375H16.6328V16.0625H19.416Z" fill="#E31E24"/>
<circle cx="15" cy="45" r="14.5" fill="#E31E24" stroke="#E31E24"/>
<path d="M19.416 46.0625L19.9355 42.6484H16.6328V40.4219C16.6328 39.457 17.0781 38.5664 18.5625 38.5664H20.084V35.6348C20.084 35.6348 18.7109 35.375 17.4121 35.375C14.7031 35.375 12.9219 37.0449 12.9219 40.0137V42.6484H9.87891V46.0625H12.9219V54.375H16.6328V46.0625H19.416Z" fill="white"/>
</svg>
