<svg width="30" height="61" viewBox="0 0 30 61" fill="none" xmlns="http://www.w3.org/2000/svg">
<circle cx="15" cy="15" r="14.5" fill="white" stroke="white"/>
<path d="M22.2824 17.3155C19.7473 16.044 19.4822 15.8746 19.1548 16.3688C18.9277 16.711 18.2659 17.4872 18.0665 17.7169C17.8648 17.9431 17.6642 17.9605 17.3218 17.8039C16.9759 17.6299 15.8658 17.2644 14.5515 16.0811C13.5278 15.1588 12.8407 14.0276 12.6378 13.6796C12.3001 13.0926 13.0067 13.009 13.65 11.7839C13.7653 11.5403 13.7065 11.3489 13.6212 11.176C13.5347 11.002 12.8465 9.2966 12.5583 8.61676C12.2816 7.93924 11.9969 8.02509 11.7836 8.02509C11.1196 7.96709 10.6342 7.97637 10.2065 8.42418C8.34586 10.4823 8.81506 12.6053 10.4071 14.8629C13.5359 18.9838 15.2029 19.7425 18.251 20.7959C19.0741 21.0592 19.8246 21.0221 20.4183 20.9363C21.08 20.8307 22.4553 20.0998 22.7424 19.2819C23.0363 18.464 23.0363 17.7853 22.9499 17.6287C22.2824 17.3155 22.6282 17.4721 22.2824 17.3155Z" fill="#E31E24"/>
<circle cx="15" cy="46" r="14.5" fill="#E31E24" stroke="#E31E24"/>
<path d="M22.2824 48.3155C19.7473 47.044 19.4822 46.8746 19.1548 47.3688C18.9277 47.711 18.2659 48.4872 18.0665 48.7169C17.8648 48.9431 17.6642 48.9605 17.3218 48.8039C16.9759 48.6299 15.8658 48.2644 14.5515 47.0811C13.5278 46.1588 12.8407 45.0276 12.6378 44.6796C12.3001 44.0926 13.0067 44.009 13.65 42.7839C13.7653 42.5403 13.7065 42.3489 13.6212 42.176C13.5347 42.002 12.8465 40.2966 12.5583 39.6168C12.2816 38.9392 11.9969 39.0251 11.7836 39.0251C11.1196 38.9671 10.6342 38.9764 10.2065 39.4242C8.34586 41.4823 8.81506 43.6053 10.4071 45.8629C13.5359 49.9838 15.2029 50.7425 18.251 51.7959C19.0741 52.0592 19.8246 52.0221 20.4183 51.9363C21.08 51.8307 22.4553 51.0998 22.7424 50.2819C23.0363 49.464 23.0363 48.7853 22.9499 48.6287C22.2824 48.3155 22.6282 48.4721 22.2824 48.3155Z" fill="white"/>
</svg>
