<svg width="42" height="50" viewBox="0 0 42 50" fill="none" xmlns="http://www.w3.org/2000/svg">
<g filter="url(#filter0_d)">
<path d="M21 0C12.18 0 5.00391 7.17609 5.00391 15.9961C5.00391 19.4865 6.10641 22.803 8.19492 25.5855L20.014 41.5038C20.0435 41.5423 20.0886 41.5571 20.1214 41.5916C20.7121 42.224 21.5644 42.0649 21.9852 41.5038C25.3887 36.9625 31.6271 28.4813 34.0257 25.282C34.0257 25.282 34.0266 25.2796 34.0274 25.2779L34.0421 25.2582C35.9748 22.543 36.9961 19.3405 36.9961 15.9961C36.9961 7.17609 29.82 0 21 0ZM21 24.6258C16.2512 24.6258 12.3703 20.7449 12.3703 15.9961C12.3703 11.2473 16.2512 7.36641 21 7.36641C25.7488 7.36641 29.6297 11.2473 29.6297 15.9961C29.6297 20.7449 25.7488 24.6258 21 24.6258Z" fill="#E31E24"/>
<circle cx="21" cy="16" r="9" fill="white"/>
</g>
<defs>
<filter id="filter0_d" x="-4" y="0" width="50" height="50" filterUnits="userSpaceOnUse" color-interpolation-filters="sRGB">
<feFlood flood-opacity="0" result="BackgroundImageFix"/>
<feColorMatrix in="SourceAlpha" type="matrix" values="0 0 0 0 0 0 0 0 0 0 0 0 0 0 0 0 0 0 127 0" result="hardAlpha"/>
<feOffset dy="4"/>
<feGaussianBlur stdDeviation="2"/>
<feColorMatrix type="matrix" values="0 0 0 0 0 0 0 0 0 0 0 0 0 0 0 0 0 0 0.25 0"/>
<feBlend mode="normal" in2="BackgroundImageFix" result="effect1_dropShadow"/>
<feBlend mode="normal" in="SourceGraphic" in2="effect1_dropShadow" result="shape"/>
</filter>
</defs>
</svg>
