<svg width="31" height="62" viewBox="0 0 31 62" fill="none" xmlns="http://www.w3.org/2000/svg">
<path d="M19.916 17.0625L20.4355 13.6484H17.1328V11.4219C17.1328 10.457 17.5781 9.56641 19.0625 9.56641H20.584V6.63477C20.584 6.63477 19.2109 6.375 17.9121 6.375C15.2031 6.375 13.4219 8.04492 13.4219 11.0137V13.6484H10.3789V17.0625H13.4219V25.375H17.1328V17.0625H19.916Z" fill="#E31E24"/>
<path d="M19.916 48.0625L20.4355 44.6484H17.1328V42.4219C17.1328 41.457 17.5781 40.5664 19.0625 40.5664H20.584V37.6348C20.584 37.6348 19.2109 37.375 17.9121 37.375C15.2031 37.375 13.4219 39.0449 13.4219 42.0137V44.6484H10.3789V48.0625H13.4219V56.375H17.1328V48.0625H19.916Z" fill="#36353B"/>
</svg>
