<svg width="31" height="31" viewBox="0 0 31 31" fill="none" xmlns="http://www.w3.org/2000/svg">
<g clip-path="url(#clip0)">
<path d="M25.8217 21.1961C25.768 21.1016 25.4355 20.3429 23.8353 18.7835C22.1602 17.1506 22.3852 17.4158 24.4029 14.5924C25.6317 12.8729 26.123 11.8228 25.9692 11.3739C25.823 10.946 24.9192 11.0589 24.9192 11.0589L21.9139 11.0773C21.9139 11.0773 21.6914 11.0458 21.5252 11.1494C21.3639 11.2518 21.2602 11.4881 21.2602 11.4881C21.2602 11.4881 20.7839 12.8191 20.1488 13.9505C18.81 16.3381 18.2737 16.4642 18.0549 16.3158C17.5461 15.9706 17.6736 14.9271 17.6736 14.1868C17.6736 11.8727 18.0074 10.9079 17.0223 10.6585C16.6948 10.5758 16.4548 10.5207 15.6185 10.5115C14.5459 10.4997 13.6371 10.5155 13.1233 10.7793C12.7808 10.9552 12.517 11.3477 12.6783 11.37C12.877 11.3975 13.3271 11.4973 13.5658 11.8386C13.8746 12.2783 13.8634 13.268 13.8634 13.268C13.8634 13.268 14.0409 15.9916 13.4496 16.3303C13.0433 16.5626 12.487 16.0888 11.2932 13.9217C10.6819 12.8125 10.2193 11.5852 10.2193 11.5852C10.2193 11.5852 10.1306 11.3568 9.97182 11.2348C9.77931 11.0864 9.50929 11.0392 9.50929 11.0392L6.65158 11.0576C6.65158 11.0576 6.2228 11.0707 6.06528 11.2663C5.92527 11.4408 6.05403 11.8005 6.05403 11.8005C6.05403 11.8005 8.2917 17.2963 10.8244 20.0672C13.1483 22.6071 15.786 22.4404 15.786 22.4404H16.9811C16.9811 22.4404 17.3424 22.3984 17.5261 22.1897C17.6961 21.9981 17.6899 21.6384 17.6899 21.6384C17.6899 21.6384 17.6661 19.9544 18.4112 19.7063C19.145 19.4621 20.0876 21.3339 21.0864 22.0545C21.8414 22.5992 22.4152 22.4798 22.4152 22.4798L25.0867 22.4404C25.0867 22.4404 26.4843 22.3498 25.8217 21.1961Z" fill="#E31E24"/>
</g>
<defs>
<clipPath id="clip0">
<rect width="20" height="21" fill="white" transform="translate(6 6)"/>
</clipPath>
</defs>
</svg>
