<svg width="25" height="25" viewBox="0 0 25 25" fill="none" xmlns="http://www.w3.org/2000/svg">
<g clip-path="url(#clip0)">
<path d="M23.156 2.73069C22.6782 2.40373 22.6782 2.40373 22.4272 1.92694C22.2953 1.6761 22.247 1.41837 22.2151 1.24772C22.1851 1.08782 22.1701 1.00757 22.0877 1.00757C22.0662 1.00757 22.0487 1.01556 22.0345 1.02618C22.0224 0.990604 22.0095 0.942752 21.9997 0.906485C21.9545 0.739005 21.9118 0.580903 21.7959 0.580903L21.7831 0.581662C21.662 0.595589 21.6432 0.721561 21.6319 0.796785C21.6313 0.801129 21.6305 0.805749 21.6298 0.810575C21.6061 0.761069 21.5902 0.662609 21.5797 0.598278C21.5553 0.447416 21.5299 0.291451 21.4049 0.291451C21.2868 0.291451 21.2568 0.413355 21.2389 0.486166C21.2354 0.500301 21.2308 0.518917 21.2262 0.533328C21.1781 0.492234 21.1548 0.380328 21.1356 0.288624C21.1073 0.153345 21.0752 0 20.9421 0C20.9034 0 20.869 0.0138589 20.843 0.0401978C20.7813 0.101977 20.7817 0.21671 20.7821 0.31779C20.7822 0.33551 20.7822 0.357505 20.7816 0.377363C20.7596 0.360332 20.7342 0.339027 20.7144 0.32241C20.6005 0.226914 20.5202 0.164377 20.4442 0.164377C20.4188 0.164377 20.3346 0.173892 20.321 0.295864C20.3065 0.426869 20.3816 0.562976 20.4478 0.683018C20.4793 0.740177 20.5321 0.83588 20.5229 0.861598C20.4946 0.875733 20.4349 0.889385 20.3657 0.905175C20.1125 0.962886 19.6412 1.07038 19.307 1.53007C19.1534 1.74126 18.9434 1.92812 18.721 2.12614C18.3467 2.45924 17.9597 2.80371 17.7454 3.33125C17.5963 3.69834 17.4269 4.33847 17.2477 5.01618C17.0254 5.85619 16.7957 6.72475 16.6113 7.02351C16.0327 7.9611 14.6304 8.43651 12.4435 8.43657C11.7692 8.43657 11.171 8.38962 10.8137 8.36156C10.6909 8.3519 10.5927 8.34425 10.5254 8.34101C10.1833 8.22324 9.92958 8.03005 9.7712 7.76679C9.44535 7.22519 8.90657 5.92487 8.38552 4.66743C7.40008 2.28914 7.06044 1.54862 6.85517 1.54862L6.84531 1.5491C6.68328 1.56447 6.64336 1.69382 6.63674 1.8078C6.60475 1.75753 6.57324 1.70623 6.5549 1.67652C6.26117 1.19938 5.92318 0.936685 5.60304 0.936685C5.45521 0.936685 5.31635 0.995223 5.20148 1.10596C4.92595 1.37169 4.87045 1.56565 4.82584 1.72154C4.78992 1.84731 4.76392 1.93818 4.63561 2.0434C4.59734 2.07477 4.49778 2.09966 4.39242 2.12614C4.09111 2.20164 3.63569 2.31568 3.60722 2.81419C3.57205 3.42978 3.39747 3.65462 3.25716 3.83534C3.11043 4.02426 2.98377 4.1874 3.07989 4.65343C3.14891 4.98784 3.15077 5.07706 2.78575 5.60687C2.44107 6.10724 1.32835 8.42106 1.99689 9.42876C2.22015 9.76545 2.14527 10.0875 2.03192 10.5752C1.8452 11.3781 1.56306 12.5912 2.48602 14.8695C3.02507 16.2005 4.11173 17.0241 4.76096 17.5165C4.88493 17.6105 4.99208 17.6908 5.07909 17.7628C5.59877 18.1924 6.89241 18.8264 8.0187 18.8264C8.27547 18.8264 8.51445 18.7897 8.72937 18.7247C8.96483 18.6538 9.24484 18.9063 9.61462 19.252C10.1262 19.7302 10.8311 20.3801 11.9513 20.6888C12.091 21.1744 12.1853 21.5226 12.1867 21.5785C12.1758 21.6981 11.8545 21.8764 11.5143 22.0652C11.2716 22.1999 11.1441 22.348 11.1734 22.4612C11.1952 22.5452 11.2916 22.5792 11.415 22.5406C11.4476 22.5305 11.4796 22.519 11.5121 22.5075C11.6244 22.4675 11.7406 22.4262 11.9173 22.4262C12.0306 22.4262 12.1565 22.4428 12.3021 22.4771C12.5757 22.5414 12.645 22.6322 12.7184 22.7283C12.79 22.8221 12.8712 22.9283 13.1171 22.996C13.211 23.0219 13.3122 23.0453 13.4192 23.07C13.8368 23.1664 14.3101 23.2758 14.4545 23.5678C14.472 23.6031 14.4829 23.6327 14.4917 23.6564C14.5108 23.7082 14.5347 23.7726 14.6166 23.7726C14.6389 23.7726 14.6644 23.7675 14.7017 23.7554C14.7999 23.7236 14.8969 23.6238 14.9379 23.5127C14.9744 23.4135 14.9652 23.3113 14.912 23.2248C14.8261 23.0851 14.6851 22.9663 14.5345 22.8697C14.6574 22.8877 14.7894 22.9007 14.9256 22.904C15.4932 22.9178 15.9006 23.0184 16.1664 23.104C16.0894 23.2267 15.834 23.4011 15.5655 23.5841C15.3373 23.7397 15.2262 23.8929 15.2605 24.0042C15.2866 24.0889 15.3877 24.1177 15.5103 24.0667C15.5417 24.0536 15.5725 24.0394 15.6039 24.0248C15.7348 23.9642 15.8702 23.9014 16.1183 23.9014C16.1995 23.9014 16.2902 23.9083 16.3877 23.922C16.6661 23.9609 16.7434 24.045 16.8254 24.134C16.9052 24.2208 16.9959 24.3192 17.247 24.364C17.3429 24.3811 17.4457 24.3951 17.5545 24.4099C17.9791 24.4676 18.4605 24.533 18.6311 24.8106C18.6517 24.8442 18.6653 24.8727 18.6762 24.8955C18.6997 24.9446 18.7264 25.0003 18.7989 25.0002C18.8244 25.0002 18.852 24.9928 18.8943 24.9747C18.9892 24.9341 19.0768 24.8258 19.1074 24.7114C19.1347 24.6093 19.1161 24.5084 19.0552 24.4272C18.9567 24.2959 18.8054 24.1904 18.6464 24.108C18.773 24.115 18.912 24.115 19.0392 24.1065C19.1529 24.0988 19.2666 24.0948 19.377 24.0948C19.951 24.0948 20.3396 24.1998 20.5264 24.2502C20.6012 24.2704 20.6424 24.2815 20.6727 24.2815C20.7162 24.2815 20.7372 24.258 20.7458 24.244C20.7545 24.23 20.7661 24.2007 20.7467 24.162C20.6574 23.9834 20.4921 23.7908 19.8922 23.593C19.687 23.5253 19.318 23.4936 18.9924 23.4655C18.8223 23.4508 18.6225 23.4336 18.5054 23.4133C18.571 23.3902 18.6447 23.3769 18.6993 23.3671C18.7842 23.3518 18.8456 23.3407 18.8469 23.2742C18.8484 23.1986 18.7871 23.185 18.4921 23.1199C18.3764 23.0944 18.2662 23.082 18.1552 23.082C18.0203 23.082 17.9105 23.1007 17.8224 23.1158C17.7306 23.1316 17.6585 23.1423 17.6145 23.1264C17.4925 23.0014 16.8268 21.5591 16.256 20.2815C16.5311 20.1812 16.8119 20.0685 17.0986 19.9417C17.2232 19.9084 17.3384 19.891 17.4505 19.8579C19.4543 19.2673 22.592 16.9069 23.0234 12.8252C23.4909 8.40182 22.5613 6.71145 22.2558 6.15599C21.8368 5.39416 21.5103 4.42665 21.8506 3.99565C22.1498 3.61663 22.1288 3.14825 22.1175 2.89659C22.1152 2.84584 22.1127 2.78964 22.1145 2.75951C22.1206 2.75903 22.1285 2.75869 22.1387 2.75869C22.2519 2.75869 22.4789 2.79923 22.6791 2.83495C22.8641 2.86797 23.0239 2.89659 23.1029 2.89659C23.1245 2.89659 23.1906 2.89659 23.2088 2.83791C23.2209 2.79895 23.2031 2.76296 23.156 2.73069ZM13.317 20.8657C13.9116 20.8657 14.5571 20.7769 15.247 20.5975C15.5468 21.3406 15.8471 22.0953 16.0259 22.5666C15.9646 22.5354 15.8971 22.5035 15.822 22.4708C15.6239 22.3846 15.2595 22.3192 14.938 22.2614C14.7699 22.2312 14.5723 22.1957 14.4575 22.1646C14.525 22.1477 14.5996 22.1412 14.6548 22.1364C14.7408 22.1291 14.8029 22.1236 14.8103 22.0576C14.8188 21.9824 14.7588 21.9633 14.4712 21.8714C14.3132 21.8209 14.1593 21.7963 14.0005 21.7963C13.9264 21.7963 13.8617 21.8013 13.8047 21.8058C13.7606 21.8093 13.7227 21.8122 13.6891 21.8122C13.6478 21.8122 13.6189 21.8076 13.5966 21.7973C13.545 21.7336 13.4005 21.3696 13.2152 20.8642C13.2488 20.8647 13.2821 20.8657 13.3163 20.8657C13.3166 20.8657 13.3167 20.8657 13.317 20.8657ZM14.6165 23.703V23.7036V23.703Z" fill="#E31E24"/>
</g>
<defs>
<clipPath id="clip0">
<rect width="25" height="25" fill="white"/>
</clipPath>
</defs>
</svg>
