<svg width="30" height="30" viewBox="0 0 30 30" fill="none" xmlns="http://www.w3.org/2000/svg">
<circle cx="15" cy="15" r="14.5" fill="#E31E24" stroke="#E31E24"/>
<path d="M22.5332 11.0156C23.2754 10.459 23.9434 9.79102 24.4629 9.01172C23.7949 9.30859 23.0156 9.53125 22.2363 9.60547C23.0527 9.12305 23.6465 8.38086 23.9434 7.45312C23.2012 7.89844 22.3477 8.23242 21.4941 8.41797C20.752 7.63867 19.75 7.19336 18.6367 7.19336C16.4844 7.19336 14.7402 8.9375 14.7402 11.0898C14.7402 11.3867 14.7773 11.6836 14.8516 11.9805C11.623 11.7949 8.72852 10.2363 6.79883 7.89844C6.46484 8.45508 6.2793 9.12305 6.2793 9.86523C6.2793 11.2012 6.94727 12.3887 8.02344 13.0938C7.39258 13.0566 6.76172 12.9082 6.24219 12.6113V12.6484C6.24219 14.541 7.57812 16.0996 9.35938 16.4707C9.0625 16.5449 8.69141 16.6191 8.35742 16.6191C8.09766 16.6191 7.875 16.582 7.61523 16.5449C8.09766 18.1035 9.54492 19.2168 11.252 19.2539C9.91602 20.293 8.24609 20.9238 6.42773 20.9238C6.09375 20.9238 5.79688 20.8867 5.5 20.8496C7.20703 21.9629 9.24805 22.5938 11.4746 22.5938C18.6367 22.5938 22.5332 16.6934 22.5332 11.5352C22.5332 11.3496 22.5332 11.2012 22.5332 11.0156Z" fill="white"/>
</svg>
