<svg width="31" height="62" viewBox="0 0 31 62" fill="none" xmlns="http://www.w3.org/2000/svg">
<g clip-path="url(#clip0)">
<path d="M15.5182 19.6787C14.1228 19.5332 12.8647 19.1895 11.7875 18.347C11.6538 18.2422 11.5158 18.1412 11.3938 18.0241C10.9223 17.5713 10.8748 17.0526 11.2479 16.5182C11.5671 16.0608 12.1028 15.9385 12.6597 16.2011C12.7676 16.252 12.8703 16.3155 12.9687 16.3838C14.9763 17.7632 17.7341 17.8013 19.7492 16.4458C19.9488 16.2927 20.1622 16.1679 20.4096 16.1042C20.8905 15.9807 21.339 16.1574 21.5971 16.5781C21.8919 17.0587 21.8881 17.5277 21.5249 17.9008C20.9676 18.4728 20.2974 18.8866 19.5528 19.1754C18.8486 19.4483 18.0774 19.5858 17.3141 19.677C17.4293 19.8024 17.4836 19.864 17.5556 19.9364C18.5921 20.9778 19.6331 22.0148 20.6661 23.0594C21.0181 23.4154 21.0916 23.8567 20.8978 24.2707C20.6859 24.7231 20.2116 25.0208 19.7465 24.9889C19.4519 24.9686 19.2221 24.8219 19.0179 24.6162C18.2358 23.8292 17.4389 23.0566 16.6726 22.2546C16.4495 22.0214 16.3423 22.0656 16.1455 22.268C15.3586 23.0781 14.5589 23.8757 13.7545 24.6688C13.3933 25.0249 12.9634 25.089 12.5445 24.8856C12.0993 24.6698 11.8159 24.2152 11.8378 23.7585C11.8529 23.4495 12.0048 23.2134 12.2169 23.0017C13.2426 21.9775 14.2655 20.9507 15.2888 19.9247C15.3565 19.8565 15.4197 19.7841 15.5182 19.6787Z" fill="#E31E24"/>
<path d="M16.3683 16.111C13.8789 16.1025 11.8376 14.0388 11.8521 11.5454C11.8665 9.02453 13.9091 6.99304 16.423 7.00002C18.942 7.0068 20.9638 9.06751 20.9512 11.6146C20.9384 14.1029 18.883 16.1196 16.3683 16.111ZM18.6307 11.5514C18.6264 10.3134 17.6404 9.32785 16.4049 9.32672C15.1589 9.3254 14.1641 10.3289 14.1737 11.5782C14.183 12.8115 15.1774 13.7901 16.4164 13.7856C17.6515 13.7812 18.6349 12.7893 18.6307 11.5514Z" fill="#E31E24"/>
</g>
<g clip-path="url(#clip1)">
<path d="M15.5182 50.6787C14.1228 50.5332 12.8647 50.1895 11.7875 49.347C11.6538 49.2422 11.5158 49.1412 11.3938 49.0241C10.9223 48.5713 10.8748 48.0526 11.2479 47.5182C11.5671 47.0608 12.1028 46.9385 12.6597 47.2011C12.7676 47.252 12.8703 47.3155 12.9687 47.3838C14.9763 48.7632 17.7341 48.8013 19.7492 47.4458C19.9488 47.2927 20.1622 47.1679 20.4096 47.1042C20.8905 46.9807 21.339 47.1574 21.5971 47.5781C21.8919 48.0587 21.8881 48.5277 21.5249 48.9008C20.9676 49.4728 20.2974 49.8866 19.5528 50.1754C18.8486 50.4483 18.0774 50.5858 17.3141 50.677C17.4293 50.8024 17.4836 50.864 17.5556 50.9364C18.5921 51.9778 19.6331 53.0148 20.6661 54.0594C21.0181 54.4154 21.0916 54.8567 20.8978 55.2707C20.6859 55.7231 20.2116 56.0208 19.7465 55.9889C19.4519 55.9686 19.2221 55.8219 19.0179 55.6162C18.2358 54.8292 17.4389 54.0566 16.6726 53.2546C16.4495 53.0214 16.3423 53.0656 16.1455 53.268C15.3586 54.0781 14.5589 54.8757 13.7545 55.6688C13.3933 56.0249 12.9634 56.089 12.5445 55.8856C12.0993 55.6698 11.8159 55.2152 11.8378 54.7585C11.8529 54.4495 12.0048 54.2134 12.2169 54.0017C13.2426 52.9775 14.2655 51.9507 15.2888 50.9247C15.3565 50.8565 15.4197 50.7841 15.5182 50.6787Z" fill="#36353B"/>
<path d="M16.3683 47.111C13.8789 47.1025 11.8376 45.0388 11.8521 42.5454C11.8665 40.0245 13.9091 37.993 16.423 38C18.942 38.0068 20.9638 40.0675 20.9512 42.6146C20.9384 45.1029 18.883 47.1196 16.3683 47.111ZM18.6307 42.5514C18.6264 41.3134 17.6404 40.3279 16.4049 40.3267C15.1589 40.3254 14.1641 41.3289 14.1737 42.5782C14.183 43.8115 15.1774 44.7901 16.4164 44.7856C17.6515 44.7812 18.6349 43.7893 18.6307 42.5514Z" fill="#36353B"/>
</g>
<defs>
<clipPath id="clip0">
<rect width="18" height="18" fill="white" transform="translate(7 7)"/>
</clipPath>
<clipPath id="clip1">
<rect width="18" height="18" fill="white" transform="translate(7 38)"/>
</clipPath>
</defs>
</svg>
