<svg width="25" height="25" viewBox="0 0 25 25" fill="none" xmlns="http://www.w3.org/2000/svg">
<path d="M24.2264 3.24553C24.1743 3.15446 24.0312 3.07639 23.9922 2.98531C23.784 2.56896 23.4327 2.30874 23.2896 1.81432C23.2636 1.71023 23.1725 1.58012 23.0814 1.52807C22.4439 1.11172 22.1967 0.292025 21.2339 0.187937C21.1298 0.174926 21.0907 0.0448152 20.9867 0.00578203C20.9736 0.00578203 20.9736 0.00578203 20.9607 0.00578203C20.8566 -0.0202401 20.7135 0.0448152 20.6874 0.135892C20.6614 0.22697 20.5053 0.239981 20.4012 0.252992C19.8027 0.331058 19.5035 0.695367 19.1652 1.03365C19.0871 1.11172 18.983 1.25484 18.944 1.34592C18.7748 1.74926 18.6578 2.20465 18.7098 2.82918C18.7488 3.33661 19.0481 4.0262 19.2563 4.57266C19.6726 5.60053 20.1931 6.57636 20.2972 7.94252C20.3231 8.20274 20.3231 8.52802 20.219 8.78824C20.18 8.89233 20.0369 8.93136 19.9589 8.8663C19.8157 8.73619 19.7507 8.54103 19.6336 8.3849C19.3213 7.99456 18.8529 7.63026 18.3845 7.27896C17.786 6.81056 17.2656 6.42023 16.55 6.12097C16.2638 6.00387 16.0556 6.0299 15.6782 5.97785C15.1838 5.9128 14.6374 5.70462 14.0519 5.60053C13.5965 5.52247 12.998 5.47042 12.5426 5.45741C12.1522 5.4444 11.5147 5.62655 11.2024 5.48343C11.0333 5.40537 11.0463 5.17117 10.9422 4.89794C10.8381 4.61169 10.5779 4.07824 10.4478 3.85705C10.3177 3.60984 10.0965 3.31059 9.90133 3.01133C9.53702 2.49089 9.10766 1.98346 8.65227 1.52807C8.41807 1.29388 8.2099 0.994622 7.98871 0.825478C7.89763 0.760423 7.55934 0.565257 7.40321 0.565257C6.98686 0.565257 6.84374 0.890533 6.64857 1.18979C6.58352 1.28086 6.4534 1.3199 6.33631 1.3199C5.972 1.28086 5.59468 1.42399 5.36048 1.64517C5.21736 1.7883 5.1523 2.04852 4.98316 2.19164C4.89208 2.2697 4.76197 2.2697 4.65788 2.33476C4.25454 2.621 4.17647 3.0894 3.9683 3.47973C3.91625 3.57081 3.78614 3.64888 3.66904 3.6749C3.40882 3.72694 3.22667 3.85705 3.08354 4.01318C3.01849 4.09125 2.94042 4.26035 2.9144 4.35147C2.75827 4.78084 2.446 5.08009 2.48504 5.65258C2.49805 5.75666 2.43299 5.89979 2.35493 5.96484C1.91255 6.30313 1.58727 6.70647 1.54824 7.35702C1.53523 7.55219 1.65233 7.74735 1.63932 7.94252C1.63932 7.99456 1.62631 8.05962 1.60029 8.11166C1.57426 8.20274 1.45716 8.31984 1.3791 8.3849C1.01479 8.72318 0.780589 9.16556 0.767578 9.73804C0.780589 10.2845 1.04081 10.7399 1.40512 11.1172C1.48319 11.1953 1.48319 11.3124 1.41813 11.3904C1.01479 11.9239 1.06683 12.7826 1.57426 13.238C1.65233 13.303 1.7304 13.4201 1.74341 13.4982C1.75642 13.5763 1.76943 13.6544 1.76943 13.6674C1.76943 13.6804 1.76943 13.6934 1.76943 13.6934C1.76943 13.7064 1.76943 13.7194 1.78244 13.7194C1.78244 13.7324 1.82147 13.8365 1.86051 13.9276C1.87352 13.9666 1.89954 14.0056 1.92556 14.0316C1.97761 14.1227 1.99062 14.2528 1.93857 14.3569C1.66534 14.8773 1.7304 15.5799 2.15976 15.9963C2.23783 16.0744 2.31589 16.1264 2.31589 16.1394C2.31589 16.1524 2.28987 16.2435 2.27686 16.3476V16.3606C2.26385 16.4647 2.25084 16.5948 2.25084 16.6468C2.25084 16.6728 2.25084 16.7118 2.25084 16.7379C2.26385 16.7899 2.26385 16.842 2.27686 16.894C2.30288 16.9721 2.35493 17.1152 2.40697 17.2193C2.49805 17.4015 2.64117 17.5576 2.82332 17.6747C2.9144 17.7267 2.99247 17.8569 3.01849 17.9609C3.01849 17.9869 3.0315 17.9999 3.0315 18.026C3.05752 18.13 3.09656 18.2471 3.10957 18.2992C3.12258 18.3252 3.13559 18.3513 3.1486 18.3773C3.1486 18.3773 3.1486 18.3903 3.16161 18.3903C3.16161 18.3903 3.21365 18.4814 3.27871 18.5594C3.40882 18.7156 3.56495 18.8457 3.77313 18.9238C3.87722 18.9628 3.98131 19.0669 4.03335 19.158C4.22852 19.5353 4.59283 19.8085 5.13929 19.8085C5.1523 19.8085 5.16531 19.8085 5.17832 19.8085C5.20434 19.8085 5.2694 19.8866 5.33445 19.9646C5.54263 20.2119 5.8549 20.381 6.28426 20.381C6.45341 20.381 6.59653 20.355 6.72664 20.3029C6.83072 20.2639 6.97385 20.2249 7.0389 20.2249C7.09095 20.2249 7.12998 20.2249 7.18202 20.2249C7.28611 20.2379 7.40321 20.355 7.32514 20.433L7.31213 20.446C7.23407 20.5241 7.26009 20.6802 7.33816 20.7323C7.42923 20.7843 7.40321 20.9275 7.32514 21.0185C7.14299 21.2267 6.94782 21.4089 6.85675 21.6951C6.81771 21.7992 6.85675 21.9813 6.94782 22.0203C7.06492 22.0594 7.22106 22.0203 7.37719 22.0203C7.48128 22.0203 7.57235 22.1374 7.5073 22.2285C7.33816 22.4887 6.85675 22.5278 6.93481 22.8921C6.96084 23.0352 7.14299 23.1133 7.31213 23.1263C7.48128 23.1393 7.63741 23.0092 7.78053 23.0092C7.91064 23.0092 7.96269 23.1263 8.10581 23.1784C8.17086 23.2044 8.26194 23.1784 8.31398 23.2044C8.44409 23.2694 8.53517 23.4386 8.6913 23.4646C9.10766 23.5426 9.40691 23.1263 9.73219 22.9702C9.82327 22.9181 9.94036 23.0092 9.87531 23.1003C9.83628 23.1653 9.77122 23.2044 9.71918 23.2564C9.64111 23.3345 9.73219 23.5166 9.83628 23.5426C9.9794 23.5687 10.1485 23.5036 10.2656 23.4646C10.5519 23.3605 10.7991 23.1393 11.0463 23.0352C11.3195 22.9181 11.6578 22.9962 11.9441 22.9051C12.0482 22.879 12.2173 22.866 12.2303 22.9831C12.2303 23.0482 12.2173 23.1133 12.2043 23.1783C12.1653 23.2824 12.1392 23.4516 12.2173 23.5166C12.2954 23.5687 12.3864 23.6077 12.4125 23.7247C12.4515 23.8549 12.3864 23.998 12.3864 24.1411C12.3864 24.2452 12.4905 24.3883 12.5816 24.4404C12.8808 24.5965 13.3493 24.7136 13.8176 24.7396C14.0778 24.7526 14.3641 24.7006 14.4942 24.8307C14.5723 24.9088 14.6634 24.9999 14.7674 24.9999H15.1578C15.2618 24.9999 15.353 24.9218 15.353 24.8307C15.353 24.7396 15.405 24.5705 15.4961 24.5445C15.5872 24.5185 15.7043 24.5055 15.7563 24.4273C15.7953 24.3753 15.7823 24.3233 15.7693 24.2712C15.7563 24.1801 15.8734 24.076 15.9775 24.063C16.1727 24.037 16.3679 24.076 16.576 24.063C16.8492 24.05 17.1095 23.9329 17.3567 23.972C17.6819 24.024 17.9031 24.4013 18.2414 24.4794C18.3455 24.5054 18.5016 24.4273 18.5146 24.3233C18.5277 24.2192 18.5407 24.1021 18.6058 24.063C18.6838 23.998 18.827 24.037 18.944 24.05C19.0481 24.063 19.1132 23.9199 19.0612 23.8288C18.9571 23.6727 18.7619 23.5426 18.6058 23.4906C17.9682 23.2694 16.8492 23.4515 16.3418 23.0221C15.8344 22.5927 15.7303 21.5259 15.7954 20.6411C15.8084 20.459 15.8604 20.2638 15.9515 20.1076C16.0165 20.0166 16.1727 19.9645 16.2767 19.9775C17.5258 20.0035 18.3585 19.8214 19.4514 19.6783C19.8548 19.6262 20.2711 19.4181 20.6094 19.2098C20.9477 19.0017 21.2079 18.6764 21.5071 18.5073C21.7804 18.3642 22.1577 18.2601 22.3529 18.1039C23.0295 17.5445 23.2637 16.5556 23.602 15.6318C23.8101 15.0724 24.0053 14.8252 24.0313 14.0575C24.0704 13.1337 24.0834 12.0148 23.9793 11.1561C23.9402 10.8698 23.8101 10.6356 23.7711 10.3754C23.7321 10.1152 23.7971 9.881 23.7711 9.67282C23.7321 9.33453 23.602 8.95721 23.4849 8.65796C23.4459 8.55387 23.3288 8.4758 23.2767 8.37171C23.2247 8.26763 23.2377 8.12451 23.1857 8.02042C23.1206 7.8773 22.9645 7.7602 22.9515 7.59105C22.9384 7.39589 23.1336 7.30481 23.2117 7.00555C23.2637 6.8234 23.2117 6.5892 23.2377 6.42006C23.2637 6.28995 23.3678 6.17285 23.3808 6.06876C23.4588 5.53531 23.0815 5.02788 23.0035 4.49442C22.9384 4.03904 22.9124 3.24536 23.3548 3.15429C23.628 3.10224 23.8362 3.2844 24.0444 3.38848C24.1355 3.44053 24.2656 3.34945 24.2265 3.25837V3.24553H24.2264ZM15.2878 23.868C15.0926 23.9591 14.9755 23.868 14.7023 23.868C14.4811 23.868 14.2599 23.9591 14.0907 23.9591C13.7915 23.9461 13.2711 23.764 13.1279 23.6338C12.9588 23.4908 12.6856 22.8402 12.7766 22.4759C12.8156 22.3198 13.0759 22.2157 13.206 22.0726C13.6093 21.6432 13.8956 21.2138 14.1948 20.7845C14.2599 20.6934 14.325 20.6283 14.3509 20.6283C14.377 20.6283 14.4421 20.7064 14.4941 20.7975C14.8844 21.422 15.3789 22.0465 15.4309 22.9313C15.4439 23.0354 15.5089 23.1785 15.548 23.2826C15.6521 23.4777 15.496 23.7769 15.2878 23.868Z" fill="#E31E24"/>
</svg>
