<svg width="27" height="27" viewBox="0 0 27 27" fill="none" xmlns="http://www.w3.org/2000/svg">
<path d="M5.5918 27H21.4121C22.7207 27 23.7852 25.9355 23.7852 24.627V7.91016H18.248C16.9395 7.91016 15.875 6.84566 15.875 5.53711V0H5.5918C4.28325 0 3.21875 1.0645 3.21875 2.37305V24.627C3.21875 25.9355 4.28325 27 5.5918 27ZM8.75586 11.127H18.248C18.6853 11.127 19.0391 11.4807 19.0391 11.918C19.0391 12.3552 18.6853 12.709 18.248 12.709H8.75586C8.31864 12.709 7.96484 12.3552 7.96484 11.918C7.96484 11.4807 8.31864 11.127 8.75586 11.127ZM8.75586 14.291H18.248C18.6853 14.291 19.0391 14.6448 19.0391 15.082C19.0391 15.5193 18.6853 15.873 18.248 15.873H8.75586C8.31864 15.873 7.96484 15.5193 7.96484 15.082C7.96484 14.6448 8.31864 14.291 8.75586 14.291ZM8.75586 17.4551H18.248C18.6853 17.4551 19.0391 17.8089 19.0391 18.2461C19.0391 18.6833 18.6853 19.0371 18.248 19.0371H8.75586C8.31864 19.0371 7.96484 18.6833 7.96484 18.2461C7.96484 17.8089 8.31864 17.4551 8.75586 17.4551ZM8.75586 20.6191H15.084C15.5212 20.6191 15.875 20.9729 15.875 21.4102C15.875 21.8474 15.5212 22.2012 15.084 22.2012H8.75586C8.31864 22.2012 7.96484 21.8474 7.96484 21.4102C7.96484 20.9729 8.31864 20.6191 8.75586 20.6191Z" fill="white"/>
<path d="M18.2441 6.32802H23.3178L17.4531 0.463379V5.53701C17.4531 5.97343 17.8077 6.32802 18.2441 6.32802Z" fill="white"/>
</svg>
