<svg width="15" height="15" viewBox="0 0 15 15" fill="none" xmlns="http://www.w3.org/2000/svg">
<path d="M8.32867 7.29581L14.8284 0.973052C15.0572 0.750445 15.0572 0.389533 14.8284 0.166955C14.5995 -0.0556231 14.2285 -0.0556516 13.9997 0.166955L7.49998 6.48971L1.00029 0.166955C0.77145 -0.0556516 0.400436 -0.0556516 0.171628 0.166955C-0.05718 0.389561 -0.0572093 0.750474 0.171628 0.973052L6.67133 7.29578L0.171628 13.6185C-0.0572093 13.8411 -0.0572093 14.202 0.171628 14.4246C0.286032 14.5359 0.436002 14.5915 0.585972 14.5915C0.735943 14.5915 0.885884 14.5359 1.00032 14.4246L7.49998 8.1019L13.9997 14.4246C14.1141 14.5359 14.2641 14.5915 14.414 14.5915C14.564 14.5915 14.7139 14.5359 14.8284 14.4246C15.0572 14.202 15.0572 13.8411 14.8284 13.6185L8.32867 7.29581Z" fill="black"/>
<path d="M8.32867 7.29581L14.8284 0.973052C15.0572 0.750445 15.0572 0.389533 14.8284 0.166955C14.5995 -0.0556231 14.2285 -0.0556516 13.9997 0.166955L7.49998 6.48971L1.00029 0.166955C0.77145 -0.0556516 0.400436 -0.0556516 0.171628 0.166955C-0.05718 0.389561 -0.0572093 0.750474 0.171628 0.973052L6.67133 7.29578L0.171628 13.6185C-0.0572093 13.8411 -0.0572093 14.202 0.171628 14.4246C0.286032 14.5359 0.436002 14.5915 0.585972 14.5915C0.735943 14.5915 0.885884 14.5359 1.00032 14.4246L7.49998 8.1019L13.9997 14.4246C14.1141 14.5359 14.2641 14.5915 14.414 14.5915C14.564 14.5915 14.7139 14.5359 14.8284 14.4246C15.0572 14.202 15.0572 13.8411 14.8284 13.6185L8.32867 7.29581Z" fill="#E31E24"/>
</svg>
