<svg width="30" height="60" viewBox="0 0 30 60" fill="none" xmlns="http://www.w3.org/2000/svg">
<circle cx="15" cy="15" r="14.5" fill="white" stroke="white"/>
<path d="M15 11.0078C12.5 11.0078 10.5078 13.0391 10.5078 15.5C10.5078 18 12.5 19.9922 15 19.9922C17.4609 19.9922 19.4922 18 19.4922 15.5C19.4922 13.0391 17.4609 11.0078 15 11.0078ZM15 18.4297C13.3984 18.4297 12.0703 17.1406 12.0703 15.5C12.0703 13.8984 13.3594 12.6094 15 12.6094C16.6016 12.6094 17.8906 13.8984 17.8906 15.5C17.8906 17.1406 16.6016 18.4297 15 18.4297ZM20.7031 10.8516C20.7031 10.2656 20.2344 9.79688 19.6484 9.79688C19.0625 9.79688 18.5938 10.2656 18.5938 10.8516C18.5938 11.4375 19.0625 11.9062 19.6484 11.9062C20.2344 11.9062 20.7031 11.4375 20.7031 10.8516ZM23.6719 11.9062C23.5938 10.5 23.2812 9.25 22.2656 8.23438C21.25 7.21875 20 6.90625 18.5938 6.82812C17.1484 6.75 12.8125 6.75 11.3672 6.82812C9.96094 6.90625 8.75 7.21875 7.69531 8.23438C6.67969 9.25 6.36719 10.5 6.28906 11.9062C6.21094 13.3516 6.21094 17.6875 6.28906 19.1328C6.36719 20.5391 6.67969 21.75 7.69531 22.8047C8.75 23.8203 9.96094 24.1328 11.3672 24.2109C12.8125 24.2891 17.1484 24.2891 18.5938 24.2109C20 24.1328 21.25 23.8203 22.2656 22.8047C23.2812 21.75 23.5938 20.5391 23.6719 19.1328C23.75 17.6875 23.75 13.3516 23.6719 11.9062ZM21.7969 20.6562C21.5234 21.4375 20.8984 22.0234 20.1562 22.3359C18.9844 22.8047 16.25 22.6875 15 22.6875C13.7109 22.6875 10.9766 22.8047 9.84375 22.3359C9.0625 22.0234 8.47656 21.4375 8.16406 20.6562C7.69531 19.5234 7.8125 16.7891 7.8125 15.5C7.8125 14.25 7.69531 11.5156 8.16406 10.3438C8.47656 9.60156 9.0625 9.01562 9.84375 8.70312C10.9766 8.23438 13.7109 8.35156 15 8.35156C16.25 8.35156 18.9844 8.23438 20.1562 8.70312C20.8984 8.97656 21.4844 9.60156 21.7969 10.3438C22.2656 11.5156 22.1484 14.25 22.1484 15.5C22.1484 16.7891 22.2656 19.5234 21.7969 20.6562Z" fill="#E31E24"/>
<circle cx="15" cy="45" r="14.5" fill="#E31E24" stroke="#E31E24"/>
<path d="M15 41.0078C12.5 41.0078 10.5078 43.0391 10.5078 45.5C10.5078 48 12.5 49.9922 15 49.9922C17.4609 49.9922 19.4922 48 19.4922 45.5C19.4922 43.0391 17.4609 41.0078 15 41.0078ZM15 48.4297C13.3984 48.4297 12.0703 47.1406 12.0703 45.5C12.0703 43.8984 13.3594 42.6094 15 42.6094C16.6016 42.6094 17.8906 43.8984 17.8906 45.5C17.8906 47.1406 16.6016 48.4297 15 48.4297ZM20.7031 40.8516C20.7031 40.2656 20.2344 39.7969 19.6484 39.7969C19.0625 39.7969 18.5938 40.2656 18.5938 40.8516C18.5938 41.4375 19.0625 41.9062 19.6484 41.9062C20.2344 41.9062 20.7031 41.4375 20.7031 40.8516ZM23.6719 41.9062C23.5938 40.5 23.2812 39.25 22.2656 38.2344C21.25 37.2188 20 36.9062 18.5938 36.8281C17.1484 36.75 12.8125 36.75 11.3672 36.8281C9.96094 36.9062 8.75 37.2188 7.69531 38.2344C6.67969 39.25 6.36719 40.5 6.28906 41.9062C6.21094 43.3516 6.21094 47.6875 6.28906 49.1328C6.36719 50.5391 6.67969 51.75 7.69531 52.8047C8.75 53.8203 9.96094 54.1328 11.3672 54.2109C12.8125 54.2891 17.1484 54.2891 18.5938 54.2109C20 54.1328 21.25 53.8203 22.2656 52.8047C23.2812 51.75 23.5938 50.5391 23.6719 49.1328C23.75 47.6875 23.75 43.3516 23.6719 41.9062ZM21.7969 50.6562C21.5234 51.4375 20.8984 52.0234 20.1562 52.3359C18.9844 52.8047 16.25 52.6875 15 52.6875C13.7109 52.6875 10.9766 52.8047 9.84375 52.3359C9.0625 52.0234 8.47656 51.4375 8.16406 50.6562C7.69531 49.5234 7.8125 46.7891 7.8125 45.5C7.8125 44.25 7.69531 41.5156 8.16406 40.3438C8.47656 39.6016 9.0625 39.0156 9.84375 38.7031C10.9766 38.2344 13.7109 38.3516 15 38.3516C16.25 38.3516 18.9844 38.2344 20.1562 38.7031C20.8984 38.9766 21.4844 39.6016 21.7969 40.3438C22.2656 41.5156 22.1484 44.25 22.1484 45.5C22.1484 46.7891 22.2656 49.5234 21.7969 50.6562Z" fill="white"/>
</svg>
