<svg width="26" height="26" viewBox="0 0 26 26" fill="none" xmlns="http://www.w3.org/2000/svg">
<circle cx="13" cy="13" r="13" fill="#36353B"/>
<path d="M19.4999 10.5704C18.1226 10.5721 17.0066 11.7661 17.0049 13.2394C17.0073 13.3858 17.0211 13.5317 17.0463 13.6755L16.0584 14.0844C15.5268 13.0732 14.5867 12.383 13.5135 12.2161V11.0508C14.7685 10.7767 15.6256 9.53065 15.4968 8.16739C15.3681 6.80413 14.2953 5.7666 13.0145 5.7666C11.7337 5.7666 10.661 6.80413 10.5322 8.16739C10.4035 9.53065 11.2606 10.7767 12.5155 11.0508V12.2145C11.4423 12.3814 10.5023 13.0716 9.9707 14.0828L8.98271 13.6739C9.00684 13.5305 9.01969 13.3851 9.02113 13.2394C9.03039 11.9021 8.11852 10.7613 6.8822 10.5635C5.64588 10.3656 4.46186 11.171 4.10491 12.4526C3.74795 13.7343 4.32684 15.1016 5.46277 15.6599C6.59871 16.2182 7.94552 15.7973 8.62194 14.6727L9.60744 15.0811C9.28422 16.5805 9.85335 18.1387 11.0413 19.0065C12.2292 19.8743 13.7929 19.8743 14.9808 19.0065C16.1687 18.1387 16.7378 16.5805 16.4146 15.0811L17.4001 14.6727C18.0434 15.7537 19.3139 16.1931 20.4269 15.7195C21.54 15.2458 22.1813 13.9929 21.9547 12.7346C21.7282 11.4763 20.6977 10.5678 19.4999 10.5704ZM6.52619 14.8408C5.69944 14.8408 5.02923 14.1239 5.02923 13.2394C5.02923 12.355 5.69944 11.638 6.52619 11.638C7.35294 11.638 8.02316 12.355 8.02316 13.2394C8.02316 14.1239 7.35294 14.8408 6.52619 14.8408ZM11.5161 8.43511C11.5161 7.55066 12.1863 6.83368 13.013 6.83368C13.8398 6.83368 14.51 7.55066 14.51 8.43511C14.51 9.31956 13.8398 10.0365 13.013 10.0365C12.1863 10.0365 11.5161 9.31956 11.5161 8.43511ZM13.013 18.5775C11.6351 18.5775 10.5181 17.3825 10.5181 15.9085C10.5181 14.4344 11.6351 13.2394 13.013 13.2394C14.3909 13.2394 15.508 14.4344 15.508 15.9085C15.5063 17.3818 14.3903 18.5757 13.013 18.5775ZM19.4999 14.8408C18.6731 14.8408 18.0029 14.1239 18.0029 13.2394C18.0029 12.355 18.6731 11.638 19.4999 11.638C20.3266 11.638 20.9968 12.355 20.9968 13.2394C20.9968 14.1239 20.3266 14.8408 19.4999 14.8408Z" fill="white"/>
<path d="M14.5 15.3833C14.2239 15.3833 14 15.6225 14 15.9175C14 16.2126 13.7761 16.4518 13.5 16.4518C13.2239 16.4518 13 16.691 13 16.986C13 17.2811 13.2239 17.5203 13.5 17.5203C14.3284 17.5203 15 16.8027 15 15.9175C15 15.6225 14.7761 15.3833 14.5 15.3833Z" fill="white"/>
<ellipse cx="19.5" cy="13" rx="2.5" ry="2" fill="white"/>
</svg>
