<svg width="30" height="61" viewBox="0 0 30 61" fill="none" xmlns="http://www.w3.org/2000/svg">
<circle cx="15" cy="15" r="15" fill="white"/>
<path d="M12.6705 18.2446L12.3893 22.1609C12.7916 22.1609 12.9659 21.9898 13.1749 21.7843L15.0611 19.9994L18.9697 22.8335C19.6866 23.2291 20.1916 23.0208 20.385 22.1806L22.9506 10.2774L22.9513 10.2767C23.1787 9.22752 22.5681 8.81723 21.8697 9.07463L6.78921 14.7912C5.76 15.1868 5.77558 15.7549 6.61425 16.0123L10.4697 17.1996L19.4252 11.6513C19.8467 11.375 20.2299 11.5279 19.9147 11.8042L12.6705 18.2446Z" fill="#E31E24"/>
<circle cx="15" cy="46" r="15" fill="#E31E24"/>
<path d="M12.6705 48.2446L12.3893 52.1609C12.7916 52.1609 12.9659 51.9898 13.1749 51.7843L15.0611 49.9994L18.9697 52.8335C19.6866 53.2291 20.1916 53.0208 20.385 52.1806L22.9506 40.2774L22.9513 40.2767C23.1787 39.2275 22.5681 38.8172 21.8697 39.0746L6.78921 44.7912C5.76 45.1868 5.77558 45.7549 6.61425 46.0123L10.4697 47.1996L19.4252 41.6513C19.8467 41.375 20.2299 41.5279 19.9147 41.8042L12.6705 48.2446Z" fill="white"/>
</svg>
