<svg width="19" height="19" viewBox="0 0 19 19" fill="none" xmlns="http://www.w3.org/2000/svg">
<path d="M16.9643 2.03571H14.9286V0.678584C14.9286 0.303806 14.6248 0 14.25 0C13.8752 0 13.5714 0.303806 13.5714 0.678584V2.03571H5.42855V0.678584C5.42855 0.303806 5.12475 0 4.75001 0C4.37527 0 4.07143 0.303806 4.07143 0.678584V2.03571H2.03571C0.911419 2.03571 0 2.94713 0 4.07143V16.9643C0 18.0886 0.911419 19 2.03571 19H16.9643C18.0886 19 19 18.0886 19 16.9643V4.07143C19 2.94713 18.0886 2.03571 16.9643 2.03571ZM17.6428 16.9643C17.6428 17.3391 17.339 17.6429 16.9642 17.6429H2.03571C1.66093 17.6429 1.35713 17.3391 1.35713 16.9643V8.14285H17.6428V16.9643ZM17.6428 6.78572H1.35713V4.07143C1.35713 3.69665 1.66093 3.39284 2.03571 3.39284H4.07143V4.74997C4.07143 5.12475 4.37523 5.42855 4.75001 5.42855C5.12479 5.42855 5.42859 5.12475 5.42859 4.74997V3.39284H13.5714V4.74997C13.5714 5.12475 13.8753 5.42855 14.25 5.42855C14.6248 5.42855 14.9286 5.12475 14.9286 4.74997V3.39284H16.9643C17.3391 3.39284 17.6429 3.69665 17.6429 4.07143V6.78572H17.6428Z" fill="black"/>
<path d="M5.43025 9.5H4.07312C3.69834 9.5 3.39453 9.8038 3.39453 10.1786C3.39453 10.5534 3.69834 10.8572 4.07312 10.8572H5.43025C5.80503 10.8572 6.10883 10.5534 6.10883 10.1786C6.10883 9.8038 5.80503 9.5 5.43025 9.5Z" fill="black"/>
<path d="M10.1803 9.5H8.82312C8.44834 9.5 8.14453 9.8038 8.14453 10.1786C8.14453 10.5534 8.44834 10.8572 8.82312 10.8572H10.1803C10.555 10.8572 10.8588 10.5534 10.8588 10.1786C10.8588 9.8038 10.555 9.5 10.1803 9.5Z" fill="black"/>
<path d="M14.9302 9.5H13.5731C13.1983 9.5 12.8945 9.8038 12.8945 10.1786C12.8945 10.5534 13.1983 10.8572 13.5731 10.8572H14.9302C15.305 10.8572 15.6088 10.5534 15.6088 10.1786C15.6088 9.8038 15.305 9.5 14.9302 9.5Z" fill="black"/>
<path d="M5.43025 12.2144H4.07312C3.69834 12.2144 3.39453 12.5182 3.39453 12.8929C3.39453 13.2677 3.69834 13.5715 4.07312 13.5715H5.43025C5.80503 13.5715 6.10883 13.2677 6.10883 12.8929C6.10883 12.5182 5.80503 12.2144 5.43025 12.2144Z" fill="black"/>
<path d="M10.1803 12.2144H8.82312C8.44834 12.2144 8.14453 12.5182 8.14453 12.8929C8.14453 13.2677 8.44834 13.5715 8.82312 13.5715H10.1803C10.555 13.5715 10.8588 13.2677 10.8588 12.8929C10.8588 12.5182 10.555 12.2144 10.1803 12.2144Z" fill="black"/>
<path d="M14.9302 12.2144H13.5731C13.1983 12.2144 12.8945 12.5182 12.8945 12.8929C12.8945 13.2677 13.1983 13.5715 13.5731 13.5715H14.9302C15.305 13.5715 15.6088 13.2677 15.6088 12.8929C15.6088 12.5182 15.305 12.2144 14.9302 12.2144Z" fill="black"/>
<path d="M5.43025 14.9287H4.07312C3.69834 14.9287 3.39453 15.2325 3.39453 15.6073C3.39453 15.9821 3.69834 16.2858 4.07312 16.2858H5.43025C5.80503 16.2858 6.10883 15.982 6.10883 15.6073C6.10883 15.2325 5.80503 14.9287 5.43025 14.9287Z" fill="black"/>
<path d="M10.1803 14.9287H8.82312C8.44834 14.9287 8.14453 15.2325 8.14453 15.6073C8.14453 15.9821 8.44834 16.2859 8.82312 16.2859H10.1803C10.555 16.2859 10.8588 15.9821 10.8588 15.6073C10.8588 15.2325 10.555 14.9287 10.1803 14.9287Z" fill="black"/>
<path d="M14.9302 14.9287H13.5731C13.1983 14.9287 12.8945 15.2325 12.8945 15.6073C12.8945 15.9821 13.1983 16.2859 13.5731 16.2859H14.9302C15.305 16.2859 15.6088 15.9821 15.6088 15.6073C15.6088 15.2325 15.305 14.9287 14.9302 14.9287Z" fill="black"/>
</svg>
