<svg width="60" height="60" viewBox="0 0 60 60" fill="none" xmlns="http://www.w3.org/2000/svg">
<path d="M40.3125 6H19.6875C17.7489 6 16.1719 7.57706 16.1719 9.51562V50.4844C16.1719 52.4229 17.7489 54 19.6875 54H40.3125C42.2511 54 43.8281 52.4229 43.8281 50.4844V9.51562C43.8281 7.57706 42.2511 6 40.3125 6ZM42.4219 44.1562H22.5C22.1117 44.1562 21.7969 44.4711 21.7969 44.8594C21.7969 45.2477 22.1117 45.5625 22.5 45.5625H42.4219V50.4844C42.4219 51.6475 41.4757 52.5938 40.3125 52.5938H19.6875C18.5243 52.5938 17.5781 51.6475 17.5781 50.4844V45.5625H19.6875C20.0758 45.5625 20.3906 45.2477 20.3906 44.8594C20.3906 44.4711 20.0758 44.1562 19.6875 44.1562H17.5781V13.0312H42.4219V44.1562ZM42.4219 11.625H17.5781V9.51562C17.5781 8.35247 18.5243 7.40625 19.6875 7.40625H40.3125C41.4757 7.40625 42.4219 8.35247 42.4219 9.51562V11.625Z" fill="#E31E24"/>
<path d="M32.8125 8.8125H30C29.6117 8.8125 29.2969 9.12731 29.2969 9.51562C29.2969 9.90394 29.6117 10.2188 30 10.2188H32.8125C33.2008 10.2188 33.5156 9.90394 33.5156 9.51562C33.5156 9.12731 33.2008 8.8125 32.8125 8.8125Z" fill="#E31E24"/>
<path d="M30 46.9688C28.8368 46.9688 27.8906 47.915 27.8906 49.0781C27.8906 50.2413 28.8368 51.1875 30 51.1875C31.1632 51.1875 32.1094 50.2413 32.1094 49.0781C32.1094 47.915 31.1632 46.9688 30 46.9688ZM30 49.7812C29.6123 49.7812 29.2969 49.4659 29.2969 49.0781C29.2969 48.6904 29.6123 48.375 30 48.375C30.3878 48.375 30.7031 48.6904 30.7031 49.0781C30.7031 49.4659 30.3878 49.7812 30 49.7812Z" fill="#E31E24"/>
<path d="M27.1875 10.2188C27.5758 10.2188 27.8906 9.90395 27.8906 9.51562C27.8906 9.1273 27.5758 8.8125 27.1875 8.8125C26.7992 8.8125 26.4844 9.1273 26.4844 9.51562C26.4844 9.90395 26.7992 10.2188 27.1875 10.2188Z" fill="#E31E24"/>
</svg>
