<svg width="60" height="60" viewBox="0 0 60 60" fill="none" xmlns="http://www.w3.org/2000/svg">
<path d="M53.0449 6.69141H6.95508C4.7742 6.69141 3 8.4656 3 10.6465V40.916C3 43.0969 4.7742 44.8711 6.95508 44.8711H24.2408L23.1445 49.2562C22.8098 50.5952 21.3608 51.7266 19.9805 51.7266H13.6523C13.2154 51.7266 12.8613 52.0807 12.8613 52.5176C12.8613 52.9544 13.2154 53.3086 13.6523 53.3086H46.3477C46.7846 53.3086 47.1387 52.9544 47.1387 52.5176C47.1387 52.0807 46.7846 51.7266 46.3477 51.7266H40.0195C38.6392 51.7266 37.1902 50.5952 36.8555 49.2562L35.7592 44.8711H53.0449C55.2258 44.8711 57 43.0969 57 40.916V10.6465C57 8.4656 55.2258 6.69141 53.0449 6.69141ZM6.95508 8.27344H53.0449C54.0761 8.27344 54.9554 8.93483 55.2819 9.85547H4.71809C5.04462 8.93483 5.92391 8.27344 6.95508 8.27344ZM36.4956 51.7266H23.5044C24.065 51.1377 24.4841 50.4211 24.6794 49.6398L25.8715 44.8711H34.1285L35.3206 49.6398C35.5159 50.421 35.9352 51.1376 36.4956 51.7266ZM55.418 36.8027H10.1191C9.68218 36.8027 9.32812 37.1569 9.32812 37.5938C9.32812 38.0306 9.68218 38.3848 10.1191 38.3848H55.418V40.916C55.418 42.2246 54.3534 43.2891 53.0449 43.2891H6.95508C5.64663 43.2891 4.58203 42.2246 4.58203 40.916V38.3848H6.95508C7.39204 38.3848 7.74609 38.0306 7.74609 37.5938C7.74609 37.1569 7.39204 36.8027 6.95508 36.8027H4.58203V11.4375H55.418V36.8027Z" fill="#E31E24"/>
<path d="M29.998 41.707C30.4349 41.707 30.7891 41.3529 30.7891 40.916C30.7891 40.4791 30.4349 40.125 29.998 40.125C29.5612 40.125 29.207 40.4791 29.207 40.916C29.207 41.3529 29.5612 41.707 29.998 41.707Z" fill="#E31E24"/>
</svg>
