<svg width="30" height="60" viewBox="0 0 30 60" fill="none" xmlns="http://www.w3.org/2000/svg">
<circle cx="15" cy="15" r="15" fill="white"/>
<path d="M12.6705 17.2446L12.3893 21.1609C12.7916 21.1609 12.9659 20.9898 13.1749 20.7843L15.0611 18.9994L18.9697 21.8335C19.6866 22.2291 20.1916 22.0208 20.385 21.1806L22.9506 9.27742L22.9513 9.27672C23.1787 8.22752 22.5681 7.81723 21.8697 8.07463L6.78921 13.7912C5.76 14.1868 5.77558 14.7549 6.61425 15.0123L10.4697 16.1996L19.4252 10.6513C19.8467 10.375 20.2299 10.5279 19.9147 10.8042L12.6705 17.2446Z" fill="#E31E24"/>
<circle cx="15" cy="45" r="15" fill="#E31E24"/>
<path d="M12.6705 47.2446L12.3893 51.1609C12.7916 51.1609 12.9659 50.9898 13.1749 50.7843L15.0611 48.9994L18.9697 51.8335C19.6866 52.2291 20.1916 52.0208 20.385 51.1806L22.9506 39.2774L22.9513 39.2767C23.1787 38.2275 22.5681 37.8172 21.8697 38.0746L6.78921 43.7912C5.76 44.1868 5.77558 44.7549 6.61425 45.0123L10.4697 46.1996L19.4252 40.6513C19.8467 40.375 20.2299 40.5279 19.9147 40.8042L12.6705 47.2446Z" fill="white"/>
</svg>
