<svg width="28" height="28" viewBox="0 0 28 28" fill="none" xmlns="http://www.w3.org/2000/svg">
<path d="M22.4107 7.46664C22.3712 7.39742 22.2624 7.33809 22.2327 7.26887C22.0745 6.95244 21.8075 6.75467 21.6988 6.37891C21.679 6.2998 21.6098 6.20092 21.5406 6.16137C21.056 5.84494 20.8682 5.22197 20.1364 5.14286C20.0573 5.13297 20.0276 5.03409 19.9486 5.00442C19.9386 5.00442 19.9386 5.00442 19.9288 5.00442C19.8497 4.98465 19.7409 5.03409 19.7211 5.10331C19.7014 5.17253 19.5827 5.18242 19.5036 5.1923C19.0487 5.25163 18.8213 5.52851 18.5642 5.78561C18.5049 5.84494 18.4258 5.95371 18.3961 6.02293C18.2675 6.32947 18.1786 6.67556 18.2181 7.15021C18.2478 7.53585 18.4752 8.05994 18.6334 8.47525C18.9499 9.25643 19.3454 9.99806 19.4245 11.0363C19.4443 11.2341 19.4443 11.4813 19.3651 11.6791C19.3355 11.7582 19.2267 11.7879 19.1674 11.7384C19.0586 11.6395 19.0092 11.4912 18.9202 11.3726C18.6829 11.0759 18.3269 10.799 17.9709 10.532C17.5161 10.1761 17.1205 9.8794 16.5767 9.65197C16.3591 9.56297 16.2009 9.58275 15.9141 9.5432C15.5384 9.49376 15.1231 9.33554 14.6781 9.25643C14.332 9.1971 13.8772 9.15755 13.531 9.14766C13.2344 9.13777 12.7498 9.27621 12.5125 9.16744C12.384 9.10811 12.3939 8.93012 12.3148 8.72246C12.2356 8.50492 12.0379 8.09949 11.939 7.93139C11.8401 7.74351 11.672 7.51608 11.5237 7.28864C11.2468 6.89311 10.9205 6.50746 10.5744 6.16137C10.3964 5.98338 10.2382 5.75594 10.0701 5.62739C10.0009 5.57795 9.74377 5.42963 9.62511 5.42963C9.30868 5.42963 9.19991 5.67684 9.05159 5.90427C9.00214 5.97349 8.90326 6.00315 8.81426 6.00315C8.53739 5.97349 8.25063 6.08226 8.07263 6.25036C7.96386 6.35914 7.91442 6.5569 7.78587 6.66568C7.71665 6.72501 7.61777 6.72501 7.53866 6.77445C7.23212 6.99199 7.17279 7.34797 7.01458 7.64463C6.97502 7.71384 6.87614 7.77318 6.78714 7.79295C6.58938 7.83251 6.45094 7.93139 6.34217 8.05005C6.29272 8.10938 6.23339 8.2379 6.21362 8.30715C6.09496 8.63347 5.85763 8.8609 5.8873 9.29599C5.89719 9.3751 5.84775 9.48387 5.78842 9.53331C5.45221 9.79041 5.205 10.0969 5.17533 10.5914C5.16545 10.7397 5.25444 10.888 5.24455 11.0363C5.24455 11.0759 5.23467 11.1253 5.21489 11.1649C5.19511 11.2341 5.10612 11.3231 5.04679 11.3726C4.76991 11.6296 4.59192 11.9659 4.58203 12.4009C4.59192 12.8163 4.78969 13.1623 5.06656 13.4491C5.12589 13.5084 5.12589 13.5974 5.07645 13.6568C4.76991 14.0622 4.80946 14.7148 5.19511 15.0609C5.25444 15.1103 5.31377 15.1993 5.32366 15.2587C5.33355 15.318 5.34344 15.3774 5.34344 15.3872C5.34344 15.3971 5.34344 15.407 5.34344 15.407C5.34344 15.4169 5.34344 15.4268 5.35333 15.4268C5.35333 15.4367 5.38299 15.5158 5.41266 15.585C5.42254 15.6146 5.44232 15.6443 5.4621 15.6641C5.50165 15.7333 5.51154 15.8322 5.47199 15.9113C5.26433 16.3068 5.31377 16.8408 5.64009 17.1572C5.69942 17.2166 5.75875 17.2561 5.75875 17.266C5.75875 17.2759 5.73897 17.3451 5.72908 17.4242V17.4341C5.7192 17.5132 5.70931 17.6121 5.70931 17.6516C5.70931 17.6714 5.70931 17.701 5.70931 17.7208C5.7192 17.7604 5.7192 17.7999 5.72908 17.8395C5.74886 17.8988 5.78842 18.0076 5.82797 18.0867C5.89719 18.2251 6.00596 18.3438 6.1444 18.4328C6.21362 18.4724 6.27295 18.5712 6.29272 18.6503C6.29272 18.6701 6.30261 18.68 6.30261 18.6998C6.32239 18.7789 6.35205 18.8679 6.36194 18.9074C6.37183 18.9272 6.38172 18.947 6.39161 18.9667C6.39161 18.9667 6.39161 18.9767 6.4015 18.9767C6.4015 18.9767 6.44105 19.0459 6.49049 19.1052C6.58938 19.2239 6.70804 19.3228 6.86625 19.3821C6.94536 19.4118 7.02446 19.4909 7.06402 19.5601C7.21234 19.8468 7.48922 20.0545 7.90453 20.0545C7.91442 20.0545 7.92431 20.0545 7.9342 20.0545C7.95397 20.0545 8.00342 20.1138 8.05286 20.1732C8.21107 20.361 8.44839 20.4896 8.77471 20.4896C8.90326 20.4896 9.01203 20.4698 9.11092 20.4303C9.19002 20.4006 9.2988 20.3709 9.34824 20.3709C9.38779 20.3709 9.41746 20.3709 9.45701 20.3709C9.53612 20.3808 9.62511 20.4698 9.56578 20.5291L9.55589 20.539C9.49656 20.5984 9.51634 20.717 9.57567 20.7566C9.64489 20.7961 9.62511 20.9049 9.56578 20.9741C9.42734 21.1323 9.27902 21.2708 9.2098 21.4883C9.18013 21.5674 9.2098 21.7058 9.27902 21.7355C9.36801 21.7652 9.48668 21.7355 9.60534 21.7355C9.68444 21.7355 9.75366 21.8245 9.70422 21.8937C9.57567 22.0915 9.2098 22.1211 9.26913 22.398C9.28891 22.5068 9.42734 22.5661 9.55589 22.576C9.68444 22.5859 9.8031 22.487 9.91188 22.487C10.0108 22.487 10.0503 22.576 10.1591 22.6156C10.2085 22.6353 10.2777 22.6156 10.3173 22.6353C10.4162 22.6848 10.4854 22.8133 10.6041 22.8331C10.9205 22.8924 11.1479 22.576 11.3951 22.4573C11.4644 22.4178 11.5533 22.487 11.5039 22.5562C11.4742 22.6057 11.4248 22.6353 11.3852 22.6749C11.3259 22.7343 11.3951 22.8727 11.4742 22.8924C11.583 22.9122 11.7116 22.8628 11.8006 22.8331C12.0181 22.754 12.206 22.5859 12.3939 22.5068C12.6015 22.4178 12.8586 22.4771 13.0762 22.4079C13.1553 22.3881 13.2838 22.3782 13.2937 22.4672C13.2937 22.5166 13.2838 22.5661 13.2739 22.6155C13.2443 22.6946 13.2245 22.8232 13.2838 22.8726C13.3432 22.9122 13.4124 22.9419 13.4321 23.0308C13.4618 23.1297 13.4124 23.2385 13.4124 23.3473C13.4124 23.4264 13.4915 23.5351 13.5607 23.5747C13.7881 23.6934 14.1441 23.7824 14.5001 23.8021C14.6978 23.812 14.9154 23.7725 15.0143 23.8714C15.0736 23.9307 15.1428 23.9999 15.2219 23.9999H15.5186C15.5977 23.9999 15.6669 23.9406 15.6669 23.8714C15.6669 23.8021 15.7065 23.6736 15.7757 23.6538C15.8449 23.6341 15.9339 23.6242 15.9734 23.5648C16.0031 23.5253 15.9932 23.4857 15.9834 23.4462C15.9734 23.3769 16.0625 23.2978 16.1416 23.2879C16.2899 23.2682 16.4382 23.2978 16.5964 23.2879C16.8041 23.2781 17.0019 23.189 17.1897 23.2187C17.4369 23.2583 17.605 23.545 17.8621 23.6044C17.9413 23.6241 18.0599 23.5648 18.0698 23.4857C18.0797 23.4066 18.0896 23.3176 18.1391 23.2879C18.1984 23.2385 18.3072 23.2682 18.3962 23.278C18.4753 23.2879 18.5247 23.1791 18.4851 23.1099C18.406 22.9913 18.2577 22.8924 18.1391 22.8528C17.6545 22.6847 16.8041 22.8232 16.4185 22.4968C16.0328 22.1705 15.9537 21.3597 16.0032 20.6873C16.013 20.5489 16.0526 20.4005 16.1218 20.2818C16.1712 20.2126 16.2899 20.1731 16.369 20.1829C17.3183 20.2027 17.9511 20.0643 18.7818 19.9555C19.0883 19.9159 19.4047 19.7577 19.6618 19.5995C19.9189 19.4413 20.1167 19.1941 20.3441 19.0656C20.5518 18.9568 20.8386 18.8777 20.9869 18.759C21.5011 18.3338 21.6791 17.5823 21.9362 16.8802C22.0944 16.455 22.2427 16.2671 22.2625 15.6837C22.2921 14.9817 22.3021 14.1313 22.2229 13.4786C22.1933 13.2611 22.0943 13.0831 22.0647 12.8853C22.0351 12.6876 22.0845 12.5096 22.0647 12.3514C22.035 12.0943 21.9362 11.8075 21.8472 11.5801C21.8175 11.501 21.7285 11.4416 21.689 11.3625C21.6494 11.2834 21.6593 11.1747 21.6198 11.0955C21.5703 10.9868 21.4517 10.8978 21.4418 10.7692C21.4319 10.6209 21.5802 10.5517 21.6395 10.3243C21.6791 10.1858 21.6395 10.0078 21.6593 9.87927C21.6791 9.78039 21.7582 9.69139 21.7681 9.61229C21.8274 9.20686 21.5406 8.82122 21.4813 8.41579C21.4319 8.0697 21.4121 7.46651 21.7483 7.39729C21.956 7.35773 22.1142 7.49617 22.2724 7.57528C22.3416 7.61483 22.4405 7.54561 22.4108 7.47639V7.46664H22.4107ZM15.6174 23.1397C15.4691 23.209 15.3801 23.1397 15.1724 23.1397C15.0043 23.1397 14.8362 23.209 14.7076 23.209C14.4802 23.1991 14.0847 23.0606 13.9759 22.9617C13.8473 22.853 13.6397 22.3586 13.7089 22.0817C13.7386 21.9631 13.9363 21.8839 14.0352 21.7752C14.3417 21.4489 14.5593 21.1225 14.7867 20.7962C14.8362 20.727 14.8856 20.6776 14.9054 20.6776C14.9252 20.6776 14.9746 20.7369 15.0142 20.8061C15.3108 21.2808 15.6866 21.7554 15.7261 22.4278C15.736 22.5069 15.7855 22.6157 15.8151 22.6948C15.8943 22.8431 15.7756 23.0705 15.6174 23.1397Z" fill="#E31E24"/>
</svg>
