<svg width="28" height="28" viewBox="0 0 28 28" fill="none" xmlns="http://www.w3.org/2000/svg">
<path d="M0.825781 18.1016C1.89273 20.6478 3.93094 22.7374 6.5625 23.8345V25.4844C6.5625 25.9372 6.93 26.3047 7.38281 26.3047H20.6172C21.07 26.3047 21.4375 25.9372 21.4375 25.4844V23.8345C24.0691 22.7374 26.1073 20.6478 27.1742 18.1016H0.825781ZM27.1797 13.1797H0.820312C0.3675 13.1797 0 13.5472 0 14C0 14.8411 0.0995313 15.6658 0.289844 16.4609H27.7102C27.9005 15.6658 28 14.8411 28 14C28 13.5472 27.6325 13.1797 27.1797 13.1797Z" fill="white"/>
<path d="M8.49846 9.65817C8.1781 9.33781 8.1781 8.81844 8.49846 8.49808C9.0846 7.91189 9.08466 6.96317 8.49846 6.37692C7.27395 5.15241 7.27395 3.16009 8.49846 1.93558C8.81876 1.61522 9.33819 1.61522 9.65855 1.93558C9.97891 2.25594 9.97891 2.77531 9.65855 3.09567C9.07241 3.68186 9.07235 4.63058 9.65855 5.21683C10.8831 6.44134 10.8831 8.43366 9.65855 9.65817C9.33824 9.97847 8.81876 9.97853 8.49846 9.65817Z" fill="white"/>
<path d="M13.4203 9.65817C13.1 9.33781 13.1 8.81844 13.4203 8.49808C14.0065 7.91189 14.0065 6.96317 13.4203 6.37692C12.1958 5.15241 12.1958 3.16009 13.4203 1.93558C13.7406 1.61522 14.2601 1.61522 14.5804 1.93558C14.9008 2.25594 14.9008 2.77531 14.5804 3.09567C13.9943 3.68186 13.9942 4.63058 14.5804 5.21683C15.8049 6.44134 15.8049 8.43366 14.5804 9.65817C14.2601 9.97847 13.7406 9.97853 13.4203 9.65817Z" fill="white"/>
<path d="M18.3422 9.65817C18.0218 9.33781 18.0218 8.81844 18.3422 8.49808C18.9283 7.91194 18.9284 6.96317 18.3422 6.37692C17.1177 5.15241 17.1177 3.16009 18.3422 1.93558C18.6625 1.61522 19.1819 1.61522 19.5023 1.93558C19.8226 2.25594 19.8226 2.77531 19.5023 3.09567C18.9162 3.68181 18.9161 4.63058 19.5023 5.21683C20.7268 6.44134 20.7268 8.43366 19.5023 9.65817C19.182 9.97847 18.6625 9.97853 18.3422 9.65817Z" fill="white"/>
</svg>
