<svg width="26" height="26" viewBox="0 0 26 26" fill="none" xmlns="http://www.w3.org/2000/svg">
<circle cx="13" cy="13" r="13" fill="#36353B"/>
<path d="M14.5396 6.56893C14.1547 5.99768 13.8151 5.47212 13.4981 4.99226C13.4528 4.92371 13.3849 4.85516 13.317 4.80946C13.0453 4.62666 12.683 4.71806 12.5019 4.99226C12.2075 5.47212 11.8679 5.97483 11.4604 6.56893C9.6717 9.21957 7 13.2184 7 15.5034C7 17.1715 7.67925 18.6796 8.76604 19.7764C9.85283 20.8504 11.3472 21.5359 13 21.5359C14.6528 21.5359 16.1472 20.8504 17.234 19.7536C18.3208 18.6568 19 17.1486 19 15.4806C19 13.1955 16.3283 9.21957 14.5396 6.56893ZM16.4189 18.931C15.5358 19.8221 14.3358 20.3477 13 20.3477C11.6642 20.3477 10.4642 19.7993 9.58113 18.931C8.69811 18.0398 8.17736 16.8287 8.17736 15.4806C8.17736 13.5611 10.7358 9.74513 12.434 7.20874C12.6377 6.91169 12.8189 6.61463 13 6.36328C13.1811 6.61463 13.3623 6.91169 13.566 7.20874C15.2642 9.76798 17.8226 13.5611 17.8226 15.4806C17.8226 16.8287 17.2792 18.0398 16.4189 18.931Z" fill="white"/>
<path d="M16.5113 15.0693C16.1943 15.0465 15.9226 15.2978 15.9 15.6177C15.8773 16.1204 15.7188 16.6003 15.4698 17.0116C15.2207 17.4229 14.8584 17.7885 14.4283 18.017C14.1566 18.1769 14.0433 18.5425 14.2018 18.8167C14.383 19.1366 14.7452 19.228 15.0169 19.068C15.6283 18.7253 16.1264 18.2226 16.466 17.6514C16.8283 17.0801 17.032 16.3946 17.0547 15.6863C17.0773 15.3664 16.8283 15.0922 16.5113 15.0693Z" fill="white"/>
</svg>
