<svg width="60" height="60" viewBox="0 0 60 60" fill="none" xmlns="http://www.w3.org/2000/svg">
<path d="M40.2188 41.2187V37.3975C40.2188 36.6996 39.651 36.1318 38.9531 36.1318H21.0469C20.349 36.1318 19.7812 36.6996 19.7812 37.3975V41.2187C19.7812 41.9166 20.349 42.4843 21.0469 42.4843H38.9531C39.651 42.4843 40.2188 41.9165 40.2188 41.2187ZM38.8125 41.0781H21.1875V37.5381H38.8125V41.0781Z" fill="#E31E24"/>
<path d="M43.5938 6H40.0514C39.663 6 39.3483 6.31481 39.3483 6.70312C39.3483 7.09144 39.663 7.40625 40.0514 7.40625H43.5938C44.4983 7.40625 45.2344 8.14228 45.2344 9.04688V33.3281C43.9792 33.3281 16.1154 33.3281 14.7656 33.3281V9.04688C14.7656 8.14228 15.5017 7.40625 16.4062 7.40625H36.7702C37.1586 7.40625 37.4733 7.09144 37.4733 6.70312C37.4733 6.31481 37.1586 6 36.7702 6H16.4062C14.7262 6 13.3594 7.36687 13.3594 9.04688V50.9531C13.3594 52.6331 14.7262 54 16.4062 54H19.5938C19.9821 54 20.2969 53.6852 20.2969 53.2969C20.2969 52.9086 19.9821 52.5938 19.5938 52.5938H16.4062C15.5017 52.5938 14.7656 51.8577 14.7656 50.9531V34.7344H45.2344V50.9531C45.2344 51.8783 44.4839 52.5938 43.5938 52.5938H22.875C22.4867 52.5938 22.1719 52.9086 22.1719 53.2969C22.1719 53.6852 22.4867 54 22.875 54H43.5938C45.2349 54 46.6406 52.6834 46.6406 50.9531C46.6406 49.735 46.6406 9.97425 46.6406 9.04688C46.6406 7.36687 45.2738 6 43.5938 6Z" fill="#E31E24"/>
<path d="M18.7266 9.28125C17.9253 9.28125 17.2734 9.93309 17.2734 10.7344V30C17.2734 30.8013 17.9253 31.4531 18.7266 31.4531H41.2734C42.0747 31.4531 42.7266 30.8013 42.7266 30C42.7266 29.6558 42.7266 10.9508 42.7266 10.7344C42.7266 9.93309 42.0747 9.28125 41.2734 9.28125C40.2326 9.28125 19.7345 9.28125 18.7266 9.28125ZM18.6797 10.7344C18.6797 10.7085 18.7007 10.6875 18.7266 10.6875H21.4979V12.9218H18.6797V10.7344ZM18.6797 14.3281H21.4979V16.5624H18.6797V14.3281ZM18.6797 17.9688H21.4979V20.2031H18.6797V17.9688ZM31.8047 30.0469H18.7266C18.7007 30.0469 18.6797 30.0259 18.6797 30V21.6094H31.8047V30.0469ZM38.5021 10.6875H41.2734C41.2992 10.6875 41.3203 10.7085 41.3203 10.7344V12.9218H38.5021V10.6875ZM38.5021 14.3281H41.3203V16.5624H38.5021V14.3281ZM38.5021 17.9688H41.3203V20.2031H38.5021V17.9688ZM41.3203 21.6094V30C41.3203 30.0259 41.2992 30.0469 41.2734 30.0469H33.2109V21.6094H41.3203ZM22.9042 17.2657V13.625V10.6875H37.0958V20.2031C36.4586 20.2031 23.5175 20.2031 22.9042 20.2031V17.2657Z" fill="#E31E24"/>
<path d="M35.4141 26.9531H39.1172C39.7117 26.9531 40.1953 26.4695 40.1953 25.875V23.8125C40.1953 23.218 39.7117 22.7344 39.1172 22.7344H35.4141C34.8196 22.7344 34.3359 23.218 34.3359 23.8125V25.875C34.3359 26.4695 34.8196 26.9531 35.4141 26.9531ZM35.7422 24.1406H38.7891V25.5469H35.7422V24.1406Z" fill="#E31E24"/>
<path d="M20.793 22.6875C20.4047 22.6875 20.0898 23.0023 20.0898 23.3906C20.0898 23.7789 20.4047 24.0938 20.793 24.0938H21.918C22.3063 24.0938 22.6211 23.7789 22.6211 23.3906C22.6211 23.0023 22.3063 22.6875 21.918 22.6875H20.793Z" fill="#E31E24"/>
<path d="M24.6797 24.0938H25.8047C26.193 24.0938 26.5078 23.7789 26.5078 23.3906C26.5078 23.0023 26.193 22.6875 25.8047 22.6875H24.6797C24.2914 22.6875 23.9766 23.0023 23.9766 23.3906C23.9766 23.7789 24.2914 24.0938 24.6797 24.0938Z" fill="#E31E24"/>
<path d="M28.5664 24.0938H29.6914C30.0797 24.0938 30.3945 23.7789 30.3945 23.3906C30.3945 23.0023 30.0797 22.6875 29.6914 22.6875H28.5664C28.1781 22.6875 27.8633 23.0023 27.8633 23.3906C27.8633 23.7789 28.1781 24.0938 28.5664 24.0938Z" fill="#E31E24"/>
<path d="M21.918 25.125H20.793C20.4047 25.125 20.0898 25.4398 20.0898 25.8281C20.0898 26.2164 20.4047 26.5312 20.793 26.5312H21.918C22.3063 26.5312 22.6211 26.2164 22.6211 25.8281C22.6211 25.4398 22.3063 25.125 21.918 25.125Z" fill="#E31E24"/>
<path d="M24.6797 26.5312H25.8047C26.193 26.5312 26.5078 26.2164 26.5078 25.8281C26.5078 25.4398 26.193 25.125 25.8047 25.125H24.6797C24.2914 25.125 23.9766 25.4398 23.9766 25.8281C23.9766 26.2164 24.2914 26.5312 24.6797 26.5312Z" fill="#E31E24"/>
<path d="M28.5664 26.5312H29.6914C30.0797 26.5312 30.3945 26.2164 30.3945 25.8281C30.3945 25.4398 30.0797 25.125 29.6914 25.125H28.5664C28.1781 25.125 27.8633 25.4398 27.8633 25.8281C27.8633 26.2164 28.1781 26.5312 28.5664 26.5312Z" fill="#E31E24"/>
<path d="M21.918 27.5625H20.793C20.4047 27.5625 20.0898 27.8773 20.0898 28.2656C20.0898 28.6539 20.4047 28.9688 20.793 28.9688H21.918C22.3063 28.9688 22.6211 28.6539 22.6211 28.2656C22.6211 27.8773 22.3063 27.5625 21.918 27.5625Z" fill="#E31E24"/>
<path d="M24.6797 28.9688H25.8047C26.193 28.9688 26.5078 28.6539 26.5078 28.2656C26.5078 27.8773 26.193 27.5625 25.8047 27.5625H24.6797C24.2914 27.5625 23.9766 27.8773 23.9766 28.2656C23.9766 28.6539 24.2914 28.9688 24.6797 28.9688Z" fill="#E31E24"/>
<path d="M28.5664 28.9688H29.6914C30.0797 28.9688 30.3945 28.6539 30.3945 28.2656C30.3945 27.8773 30.0797 27.5625 29.6914 27.5625H28.5664C28.1781 27.5625 27.8633 27.8773 27.8633 28.2656C27.8633 28.6539 28.1781 28.9688 28.5664 28.9688Z" fill="#E31E24"/>
<path d="M24.375 40.0112H35.625C36.0134 40.0112 36.3281 39.6964 36.3281 39.3081C36.3281 38.9198 36.0134 38.605 35.625 38.605H24.375C23.9867 38.605 23.6719 38.9198 23.6719 39.3081C23.6719 39.6964 23.9867 40.0112 24.375 40.0112Z" fill="#E31E24"/>
</svg>
