<svg width="8" height="13" viewBox="0 0 8 13" fill="none" xmlns="http://www.w3.org/2000/svg">
<path fill-rule="evenodd" clip-rule="evenodd" d="M0.228 8.635C0.085 8.462 0 8.241 0 8C0 7.448 0.448 7 1 7H7C7.552 7 8 7.448 8 8C8 8.241 7.915 8.462 7.772 8.635L4.808 12.589C4.626 12.838 4.332 13 4 13C3.668 13 3.374 12.838 3.192 12.589L0.228 8.635Z" fill="#E31E24"/>
<path fill-rule="evenodd" clip-rule="evenodd" d="M7.772 4.365C7.915 4.538 8 4.759 8 5C8 5.552 7.552 6 7 6L1 6C0.448 6 -2.38419e-07 5.552 -2.38419e-07 5C-2.38419e-07 4.759 0.0849998 4.538 0.228 4.365L3.192 0.411C3.374 0.162 3.668 -1.78814e-07 4 -1.78814e-07C4.332 -1.78814e-07 4.626 0.162 4.808 0.411L7.772 4.365Z" fill="#E31E24"/>
</svg>
