<svg width="28" height="28" viewBox="0 0 28 28" fill="none" xmlns="http://www.w3.org/2000/svg">
<g clip-path="url(#clip0)">
<path d="M21.5998 7.07533C21.2366 6.82684 21.2366 6.82684 21.0459 6.46448C20.9456 6.27384 20.9089 6.07796 20.8846 5.94827C20.8618 5.82675 20.8505 5.76575 20.7878 5.76575C20.7715 5.76575 20.7582 5.77183 20.7474 5.7799C20.7382 5.75286 20.7284 5.71649 20.7209 5.68893C20.6866 5.56164 20.6542 5.44149 20.566 5.44149L20.5563 5.44206C20.4643 5.45265 20.45 5.54839 20.4414 5.60556C20.4409 5.60886 20.4404 5.61237 20.4398 5.61604C20.4218 5.57841 20.4097 5.50358 20.4017 5.45469C20.3832 5.34004 20.3639 5.2215 20.2689 5.2215C20.1791 5.2215 20.1563 5.31415 20.1427 5.36949C20.1401 5.38023 20.1366 5.39438 20.1331 5.40533C20.0966 5.3741 20.0788 5.28905 20.0642 5.21935C20.0427 5.11654 20.0183 5 19.9172 5C19.8877 5 19.8616 5.01053 19.8418 5.03055C19.7949 5.0775 19.7952 5.1647 19.7956 5.24152C19.7956 5.25499 19.7957 5.2717 19.7952 5.2868C19.7785 5.27385 19.7592 5.25766 19.7441 5.24503C19.6576 5.17245 19.5965 5.12493 19.5388 5.12493C19.5195 5.12493 19.4555 5.13216 19.4451 5.22486C19.4341 5.32442 19.4912 5.42786 19.5415 5.51909C19.5654 5.56253 19.6056 5.63527 19.5986 5.65481C19.5771 5.66556 19.5317 5.67593 19.4791 5.68793C19.2867 5.73179 18.9285 5.81349 18.6745 6.16285C18.5578 6.32336 18.3982 6.46537 18.2292 6.61587C17.9447 6.86902 17.6505 7.13082 17.4877 7.53175C17.3743 7.81074 17.2456 8.29723 17.1094 8.81229C16.9405 9.45071 16.7659 10.1108 16.6258 10.3379C16.186 11.0504 15.1203 11.4117 13.4582 11.4118C12.9457 11.4118 12.4911 11.3761 12.2196 11.3548C12.1263 11.3474 12.0517 11.3416 12.0005 11.3392C11.7405 11.2497 11.5477 11.1028 11.4273 10.9028C11.1796 10.4911 10.7702 9.5029 10.3742 8.54724C9.62524 6.73974 9.3671 6.17695 9.2111 6.17695L9.20361 6.17731C9.08046 6.189 9.05012 6.28731 9.04509 6.37393C9.02078 6.33573 8.99683 6.29674 8.98289 6.27415C8.75966 5.91153 8.50279 5.71188 8.25948 5.71188C8.14713 5.71188 8.0416 5.75637 7.9543 5.84053C7.7449 6.04248 7.70271 6.18989 7.66881 6.30837C7.64151 6.40395 7.62175 6.47302 7.52423 6.55298C7.49515 6.57683 7.41948 6.59574 7.33941 6.61587C7.11041 6.67325 6.7643 6.75992 6.74266 7.13879C6.71593 7.60663 6.58325 7.77751 6.47661 7.91486C6.3651 8.05844 6.26884 8.18242 6.34189 8.53661C6.39434 8.79076 6.39576 8.85856 6.11834 9.26122C5.85638 9.6415 5.01072 11.4 5.51881 12.1659C5.68849 12.4217 5.63158 12.6665 5.54543 13.0371C5.40353 13.6474 5.1891 14.5693 5.89055 16.3008C6.30023 17.3124 7.12608 17.9383 7.6195 18.3125C7.71372 18.384 7.79515 18.445 7.86128 18.4997C8.25624 18.8263 9.2394 19.308 10.0954 19.308C10.2905 19.308 10.4722 19.2802 10.6355 19.2308C10.8144 19.1769 11.0272 19.3688 11.3083 19.6315C11.6971 19.9949 12.2328 20.4889 13.0842 20.7235C13.1903 21.0925 13.262 21.3572 13.2631 21.3997C13.2548 21.4906 13.0106 21.6261 12.7521 21.7696C12.5676 21.8719 12.4707 21.9845 12.4929 22.0705C12.5095 22.1344 12.5827 22.1602 12.6765 22.1309C12.7013 22.1232 12.7256 22.1145 12.7504 22.1057C12.8357 22.0753 12.924 22.0439 13.0583 22.0439C13.1444 22.0439 13.2401 22.0565 13.3508 22.0826C13.5587 22.1315 13.6114 22.2005 13.6672 22.2735C13.7216 22.3448 13.7833 22.4255 13.9702 22.477C14.0416 22.4966 14.1184 22.5144 14.1998 22.5332C14.5172 22.6065 14.8769 22.6896 14.9866 22.9115C14.9999 22.9384 15.0082 22.9608 15.0149 22.9789C15.0294 23.0182 15.0475 23.0672 15.1098 23.0672C15.1268 23.0672 15.1461 23.0633 15.1744 23.0541C15.2491 23.0299 15.3228 22.9541 15.354 22.8696C15.3817 22.7943 15.3747 22.7166 15.3343 22.6509C15.269 22.5447 15.1619 22.4544 15.0474 22.3809C15.1408 22.3947 15.2412 22.4045 15.3446 22.407C15.776 22.4175 16.0856 22.494 16.2876 22.5591C16.2291 22.6523 16.035 22.7848 15.831 22.9239C15.6575 23.0422 15.5731 23.1586 15.5992 23.2432C15.619 23.3076 15.6958 23.3295 15.789 23.2907C15.8129 23.2807 15.8363 23.2699 15.8601 23.2589C15.9596 23.2128 16.0625 23.1651 16.251 23.1651C16.3128 23.1651 16.3817 23.1703 16.4558 23.1807C16.6674 23.2103 16.7262 23.2742 16.7885 23.3418C16.8492 23.4078 16.9181 23.4826 17.1089 23.5166C17.1818 23.5296 17.2599 23.5403 17.3426 23.5515C17.6653 23.5954 18.0312 23.6451 18.1608 23.8561C18.1765 23.8816 18.1868 23.9032 18.1951 23.9206C18.213 23.9579 18.2332 24.0002 18.2883 24.0002C18.3077 24.0002 18.3287 23.9945 18.3608 23.9808C18.433 23.9499 18.4995 23.8676 18.5228 23.7806C18.5435 23.7031 18.5294 23.6264 18.4832 23.5647C18.4083 23.4649 18.2932 23.3847 18.1725 23.3221C18.2687 23.3274 18.3743 23.3274 18.4709 23.3209C18.5574 23.3151 18.6438 23.3121 18.7277 23.3121C19.1639 23.3121 19.4593 23.3918 19.6013 23.4301C19.6581 23.4455 19.6894 23.4539 19.7124 23.4539C19.7455 23.4539 19.7614 23.4361 19.768 23.4255C19.7746 23.4148 19.7834 23.3926 19.7687 23.3631C19.7008 23.2274 19.5752 23.081 19.1192 22.9307C18.9633 22.8792 18.6829 22.8551 18.4354 22.8337C18.3061 22.8226 18.1543 22.8095 18.0652 22.7941C18.1151 22.7765 18.1712 22.7665 18.2127 22.759C18.2772 22.7473 18.3239 22.7389 18.3248 22.6884C18.3259 22.6309 18.2794 22.6206 18.0552 22.5712C17.9672 22.5517 17.8835 22.5423 17.7992 22.5423C17.6966 22.5423 17.6132 22.5565 17.5462 22.568C17.4764 22.58 17.4216 22.5881 17.3882 22.576C17.2955 22.4811 16.7895 21.3849 16.3557 20.4139C16.5648 20.3377 16.7782 20.2521 16.9961 20.1557C17.0908 20.1304 17.1783 20.1172 17.2636 20.092C18.7865 19.6431 21.1711 17.8492 21.499 14.7471C21.8543 11.3854 21.1477 10.1007 20.9155 9.67855C20.5972 9.09956 20.349 8.36426 20.6076 8.03669C20.835 7.74864 20.819 7.39267 20.8105 7.20141C20.8088 7.16284 20.8068 7.12013 20.8082 7.09723C20.8128 7.09686 20.8189 7.0966 20.8266 7.0966C20.9126 7.0966 21.0851 7.12741 21.2373 7.15456C21.3779 7.17966 21.4993 7.20141 21.5594 7.20141C21.5758 7.20141 21.626 7.20141 21.6398 7.15681C21.6491 7.1272 21.6355 7.09985 21.5998 7.07533ZM14.1221 20.8579C14.574 20.8579 15.0646 20.7904 15.5889 20.6541C15.8167 21.2188 16.0449 21.7924 16.1809 22.1506C16.1342 22.1269 16.0829 22.1026 16.0259 22.0778C15.8753 22.0123 15.5984 21.9626 15.354 21.9186C15.2263 21.8957 15.0761 21.8687 14.9889 21.8451C15.0402 21.8322 15.0969 21.8273 15.1388 21.8237C15.2042 21.8181 15.2514 21.8139 15.257 21.7637C15.2634 21.7066 15.2179 21.6921 14.9993 21.6223C14.8792 21.5839 14.7622 21.5652 14.6416 21.5652C14.5852 21.5652 14.5361 21.569 14.4927 21.5724C14.4593 21.575 14.4304 21.5773 14.4049 21.5773C14.3735 21.5773 14.3515 21.5738 14.3346 21.5659C14.2953 21.5176 14.1856 21.2409 14.0447 20.8568C14.0703 20.8572 14.0956 20.8579 14.1216 20.8579C14.1218 20.8579 14.1219 20.8579 14.1221 20.8579ZM15.1097 23.0143V23.0147V23.0143Z" fill="#E31E24"/>
</g>
<defs>
<clipPath id="clip0">
<rect width="19" height="19" fill="white" transform="translate(4 5)"/>
</clipPath>
</defs>
</svg>
