<svg width="20" height="20" viewBox="0 0 20 20" fill="none" xmlns="http://www.w3.org/2000/svg">
<g clip-path="url(#clip0)">
<path d="M9.84766 6.83273L12.7106 9.69571L12.7243 9.54574C12.7243 8.04153 11.5018 6.81909 9.99762 6.81909L9.84766 6.83273Z" fill="white"/>
<path d="M9.99782 5.0012C12.5063 5.0012 14.5423 7.03712 14.5423 9.54564C14.5423 10.1319 14.4241 10.6908 14.2196 11.2043L16.8781 13.8628C18.2505 12.7176 19.3321 11.2362 20.0001 9.54564C18.4232 5.55565 14.5468 2.729 9.99786 2.729C8.72541 2.729 7.50754 2.95621 6.37598 3.36521L8.33917 5.32384C8.85263 5.1239 9.41159 5.0012 9.99782 5.0012Z" fill="white"/>
<path d="M0.90887 2.52455L2.98113 4.59681L3.39468 5.01036C1.89502 6.18282 0.70893 7.74157 0 9.54568C1.57238 13.5357 5.45331 16.3623 9.99774 16.3623C11.4065 16.3623 12.7517 16.0896 13.9832 15.5943L14.3695 15.9806L17.0189 18.6345L18.1777 17.4802L2.0677 1.36572L0.90887 2.52455ZM5.93503 7.54615L7.33925 8.95038C7.29836 9.1458 7.27109 9.34118 7.27109 9.54568C7.27109 11.0499 8.49352 12.2723 9.99774 12.2723C10.2022 12.2723 10.3977 12.2451 10.5885 12.2042L11.9928 13.6084C11.3883 13.9083 10.7158 14.0901 9.99774 14.0901C7.48922 14.0901 5.45331 12.0542 5.45331 9.54568C5.45331 8.82768 5.6351 8.15509 5.93503 7.54615Z" fill="white"/>
</g>
<defs>
<clipPath id="clip0">
<rect width="20" height="20" fill="white"/>
</clipPath>
</defs>
</svg>
