<svg width="37" height="77" viewBox="0 0 37 77" fill="none" xmlns="http://www.w3.org/2000/svg">
<path d="M30.4961 47.1543V45.4199C30.4961 42.4314 28.0647 40 25.0762 40H11.7793C8.79075 40 6.35938 42.4314 6.35938 45.4199V47.1543H30.4961Z" fill="#585858"/>
<path d="M8.52734 63.0527V71.8691V73.748V74.832C8.52734 76.0293 9.49794 77 10.6953 77H26.1602C27.3575 77 28.3281 76.0293 28.3281 74.832V73.748V71.8691V63.0527H8.52734ZM21.3184 72.3027H15.5371C14.9385 72.3027 14.4531 71.8174 14.4531 71.2188C14.4531 70.6201 14.9385 70.1348 15.5371 70.1348H21.3184C21.917 70.1348 22.4023 70.6201 22.4023 71.2188C22.4023 71.8174 21.917 72.3027 21.3184 72.3027ZM21.3184 67.6777H15.5371C14.9385 67.6777 14.4531 67.1924 14.4531 66.5938C14.4531 65.9951 14.9385 65.5098 15.5371 65.5098H21.3184C21.917 65.5098 22.4023 65.9951 22.4023 66.5938C22.4023 67.1924 21.917 67.6777 21.3184 67.6777Z" fill="#585858"/>
<path d="M31.5078 49.3223H5.41992C2.43138 49.3223 0 51.7536 0 54.7422V63.4141C0 66.4026 2.43138 68.834 5.41992 68.834H6.35938V63.0527H5.70898C5.11034 63.0527 4.625 62.5674 4.625 61.9688C4.625 61.3701 5.11034 60.8848 5.70898 60.8848H7.44336H29.4121H31.1465C31.7451 60.8848 32.2305 61.3701 32.2305 61.9688C32.2305 62.5674 31.7451 63.0527 31.1465 63.0527H30.4961V68.834H31.5078C34.4964 68.834 36.9277 66.4026 36.9277 63.4141V54.7422C36.9277 51.7536 34.4964 49.3223 31.5078 49.3223ZM9.17773 56.1152H5.70898C5.11034 56.1152 4.625 55.6299 4.625 55.0312C4.625 54.4326 5.11034 53.9473 5.70898 53.9473H9.17773C9.77638 53.9473 10.2617 54.4326 10.2617 55.0312C10.2617 55.6299 9.77638 56.1152 9.17773 56.1152Z" fill="#585858"/>
<path d="M30.4961 7.1543V5.41992C30.4961 2.43138 28.0647 0 25.0762 0H11.7793C8.79075 0 6.35938 2.43138 6.35938 5.41992V7.1543H30.4961Z" fill="#E31E24"/>
<path d="M8.52734 23.0527V31.8691V33.748V34.832C8.52734 36.0293 9.49794 37 10.6953 37H26.1602C27.3575 37 28.3281 36.0293 28.3281 34.832V33.748V31.8691V23.0527H8.52734ZM21.3184 32.3027H15.5371C14.9385 32.3027 14.4531 31.8174 14.4531 31.2188C14.4531 30.6201 14.9385 30.1348 15.5371 30.1348H21.3184C21.917 30.1348 22.4023 30.6201 22.4023 31.2188C22.4023 31.8174 21.917 32.3027 21.3184 32.3027ZM21.3184 27.6777H15.5371C14.9385 27.6777 14.4531 27.1924 14.4531 26.5938C14.4531 25.9951 14.9385 25.5098 15.5371 25.5098H21.3184C21.917 25.5098 22.4023 25.9951 22.4023 26.5938C22.4023 27.1924 21.917 27.6777 21.3184 27.6777Z" fill="#E31E24"/>
<path d="M31.5078 9.32227H5.41992C2.43138 9.32227 0 11.7536 0 14.7422V23.4141C0 26.4026 2.43138 28.834 5.41992 28.834H6.35938V23.0527H5.70898C5.11034 23.0527 4.625 22.5674 4.625 21.9688C4.625 21.3701 5.11034 20.8848 5.70898 20.8848H7.44336H29.4121H31.1465C31.7451 20.8848 32.2305 21.3701 32.2305 21.9688C32.2305 22.5674 31.7451 23.0527 31.1465 23.0527H30.4961V28.834H31.5078C34.4964 28.834 36.9277 26.4026 36.9277 23.4141V14.7422C36.9277 11.7536 34.4964 9.32227 31.5078 9.32227ZM9.17773 16.1152H5.70898C5.11034 16.1152 4.625 15.6299 4.625 15.0312C4.625 14.4326 5.11034 13.9473 5.70898 13.9473H9.17773C9.77638 13.9473 10.2617 14.4326 10.2617 15.0312C10.2617 15.6299 9.77638 16.1152 9.17773 16.1152Z" fill="#E31E24"/>
</svg>
