<svg width="13" height="13" viewBox="0 0 13 13" fill="none" xmlns="http://www.w3.org/2000/svg">
<path d="M11.8982 1.09889C10.4733 -0.366578 8.19557 -0.366259 6.77112 1.09962L0.796882 7.37976C-0.283381 8.5421 -0.262736 10.4049 0.842995 11.5405C1.93053 12.6574 3.66741 12.6574 4.75495 11.5405L10.1647 5.85373C10.868 5.11444 10.868 3.9158 10.1647 3.17651C9.46144 2.43723 8.32118 2.43723 7.6179 3.17651L2.44332 8.61598C2.26284 8.81243 2.26802 9.12547 2.4549 9.3152C2.6372 9.50029 2.9262 9.50029 3.10851 9.3152L8.28306 3.87572C8.62619 3.53017 9.17085 3.54249 9.49954 3.90319C9.81831 4.253 9.81831 4.80471 9.49954 5.15452L4.08979 10.8412C3.35898 11.5985 2.18249 11.5897 1.46207 10.8214C0.748922 10.061 0.748922 8.83944 1.46207 8.07897L7.43631 1.79883C8.50048 0.679778 10.2261 0.67946 11.2907 1.79808C12.3552 2.9167 12.3555 4.7307 11.2914 5.84976L5.3171 12.1299C5.11978 12.3075 5.09679 12.6197 5.26578 12.8271C5.43477 13.0346 5.73174 13.0587 5.92906 12.8811C5.94748 12.8645 5.96462 12.8465 5.98039 12.8271L11.9547 6.547C13.3702 5.02616 13.345 2.58694 11.8982 1.09889Z" fill="#E31E24"/>
</svg>
