<svg width="104" height="105" viewBox="0 0 104 105" fill="none" xmlns="http://www.w3.org/2000/svg">
<path d="M104 52.5C104 81.4949 80.7188 105 52 105C23.2812 105 0 81.4949 0 52.5C0 23.5051 23.2812 0 52 0C80.7188 0 104 23.5051 104 52.5Z" fill="#E31E24"/>
<path d="M71.3534 33.457C71.3534 29.0396 68.5072 22.0312 60.8697 22.0312C57.7317 22.0312 55.0921 23.5337 53.0009 26.5037C50.9098 23.5337 48.2701 22.0312 45.1322 22.0312C37.4946 22.0312 34.6484 29.0396 34.6484 33.457C34.6484 41.0733 40.5012 45.8375 48.4968 52.7815C49.6717 53.8017 50.8866 54.8568 52.1818 55.9981C52.4168 56.2051 52.7088 56.3086 53.0009 56.3086C53.2931 56.3086 53.5851 56.2051 53.8201 55.9981C55.1153 54.8568 56.3302 53.8017 57.5051 52.7815C65.8758 45.5117 71.3534 40.9124 71.3534 33.457ZM53.0009 53.3602C52.0021 52.4848 51.0494 51.6574 50.1216 50.8515C41.7563 43.5869 37.1484 39.5851 37.1484 33.457C37.1484 29.3002 39.8261 24.5703 45.1322 24.5703C47.9013 24.5703 50.1164 26.1852 51.9042 29.507C52.1233 29.9143 52.5439 30.1677 53.0009 30.1677C53.4579 30.1677 53.8786 29.9143 54.0977 29.507C55.8854 26.1852 58.1006 24.5703 60.8697 24.5703C66.1017 24.5703 68.8534 29.23 68.8534 33.457C68.8534 39.5851 64.2456 43.5869 55.8803 50.8516C54.9524 51.6574 53.9998 52.4848 53.0009 53.3602Z" fill="white"/>
<path d="M29.9823 71.8113L36 74.8667V81.6992C36 82.4003 36.5597 82.9688 37.25 82.9688H50.5C51.1903 82.9688 51.75 82.4003 51.75 81.6992V65.1255C51.75 61.2359 48.8771 58.0104 45.0769 57.6234L44.9746 57.6123C42.775 57.3883 38.8802 55.8603 37.3424 54.2985L34.5351 51.4486C33.5905 50.4893 32.3351 49.9609 31 49.9609V39.8047C31 37.0046 28.757 34.7266 26 34.7266C23.243 34.7266 21 37.0046 21 39.8047V57.05C21 63.2979 24.4748 69.0139 29.9823 71.8113ZM23.5 39.8047C23.5 38.4046 24.6215 37.2656 26 37.2656C27.3785 37.2656 28.5 38.4046 28.5 39.8047V50.6415C26.9755 51.5368 26 53.206 26 55.0391C26 56.395 26.5203 57.67 27.4649 58.6293L33.8661 65.1318C34.3541 65.6277 35.1456 65.6277 35.6339 65.132C36.122 64.6363 36.1221 63.8325 35.634 63.3366L29.2327 56.8339C28.7601 56.3542 28.5 55.7167 28.5 55.0391C28.5 53.9645 29.1696 53.0022 30.1665 52.6446C30.1666 52.6446 30.1669 52.6445 30.167 52.6443C30.1672 52.6442 30.1676 52.6442 30.1679 52.6441C31.0301 52.3333 32.0529 52.5184 32.7675 53.2443L35.5747 56.0943C38.473 59.0378 44.8051 60.1454 44.8178 60.1489C47.3445 60.4061 49.2499 62.5457 49.2499 65.1255V80.4297H38.4999V74.082C38.4999 73.6011 38.2322 73.1615 37.8089 72.9466L31.1003 69.5404C26.4124 67.1592 23.5 62.3731 23.5 57.05V39.8047Z" fill="white"/>
<path d="M80 34.7266C77.243 34.7266 75 37.0046 75 39.8047V49.9609C73.6649 49.9609 72.4095 50.4893 71.4651 51.4486L68.6574 54.2988C67.1198 55.8605 63.225 57.3885 61.0156 57.6133L60.9329 57.6224C57.1229 58.0104 54.25 61.236 54.25 65.1255V81.6992C54.25 82.4003 54.8098 82.9688 55.5 82.9688H68.75C69.4403 82.9688 70 82.4003 70 81.6992V74.8667L74.0913 72.7895C74.7086 72.4759 74.959 71.7135 74.6504 71.0863C74.3416 70.4593 73.5907 70.2048 72.9734 70.5185L68.191 72.9466C67.7676 73.1615 67.5 73.6011 67.5 74.082V80.4297H56.75V65.1255C56.75 62.5457 58.6554 60.4061 61.1919 60.1479L61.2746 60.1388C63.986 59.8626 68.4754 58.0744 70.4249 56.0944L73.2326 53.2442C73.9492 52.5161 74.974 52.335 75.832 52.6441C75.8323 52.6442 75.8326 52.6442 75.8329 52.6443C75.833 52.6443 75.8332 52.6445 75.8334 52.6446C76.8304 53.0022 77.5 53.9645 77.5 55.0391C77.5 55.7167 77.2399 56.3542 76.7674 56.8342L70.3661 63.3367C69.878 63.8325 69.8781 64.6363 70.3662 65.1321C70.8541 65.6278 71.6459 65.6278 72.134 65.132L78.5353 58.6296C79.4798 57.67 80 56.395 80 55.0391C80 53.206 79.0245 51.5368 77.5 50.6415V39.8047C77.5 38.4046 78.6215 37.2656 80 37.2656C81.3785 37.2656 82.5 38.4046 82.5 39.8047V57.05C82.5 59.3727 81.9229 61.6787 80.8309 63.7186C80.501 64.3347 80.7254 65.1054 81.332 65.4403C81.9384 65.7752 82.6976 65.5476 83.0272 64.9314C84.3179 62.5204 85 59.7951 85 57.05V39.8047C85 37.0046 82.757 34.7266 80 34.7266Z" fill="white"/>
</svg>
