<svg width="26" height="26" viewBox="0 0 26 26" fill="none" xmlns="http://www.w3.org/2000/svg">
<circle cx="13" cy="13" r="13" fill="#36353B"/>
<path d="M9.23441 21.4885C9.43071 21.6054 9.67409 21.5427 9.80431 21.3434L16.9154 10.4613C17.0134 10.3113 17.0274 10.1129 16.9515 9.94772C16.8755 9.78261 16.7226 9.67866 16.5556 9.67866H14.6712L16.9373 5.45996C17.0192 5.30758 17.021 5.11814 16.942 4.96389C16.863 4.80963 16.7155 4.71436 16.5556 4.71436H11.2223C11.0182 4.71436 10.8403 4.86861 10.791 5.08836L9.01323 13.0116C8.98019 13.1589 9.01012 13.3148 9.09433 13.4344C9.17856 13.554 9.30772 13.6239 9.44449 13.6239H11.4708L9.02816 20.8814C8.95036 21.1125 9.03847 21.3719 9.23441 21.4885ZM12.5275 13.3032C12.5785 13.1519 12.5593 12.9823 12.4763 12.8496C12.3932 12.7168 12.2568 12.6376 12.1112 12.6376H10.0132L11.5696 5.70065H15.7733L13.5072 9.91935C13.4253 10.0717 13.4235 10.2612 13.5025 10.4154C13.5815 10.5697 13.7291 10.6649 13.889 10.6649H15.6844L11.0058 17.8245L12.5275 13.3032Z" fill="white"/>
</svg>
