<svg width="25" height="25" viewBox="0 0 25 25" fill="none" xmlns="http://www.w3.org/2000/svg">
<g clip-path="url(#clip0)">
<path d="M19.5721 20.1697C23.3253 16.2532 23.1929 10.0358 19.2764 6.28271C15.36 2.52959 9.14258 2.662 5.38946 6.57841C1.74887 10.3775 1.74887 16.3706 5.38946 20.1697L2.83756 23.5716C2.5417 23.9661 2.62164 24.5258 3.01612 24.8216C3.41059 25.1175 3.97029 25.0375 4.26614 24.6431L6.73947 21.3447C10.1611 23.8377 14.8005 23.8377 18.222 21.3447L20.6953 24.6431C20.9912 25.0376 21.5509 25.1175 21.9454 24.8216C22.3399 24.5258 22.4198 23.9661 22.1239 23.5716L19.5721 20.1697ZM13.3737 13.3926C13.3737 13.5859 13.3111 13.7738 13.1952 13.9284L10.5165 17.5C10.2206 17.8945 9.66095 17.9744 9.26647 17.6785C8.87199 17.3826 8.792 16.823 9.08791 16.4285L11.588 13.0953V8.0353C11.588 7.54215 11.9878 7.14239 12.4809 7.14239C12.9741 7.14239 13.3738 7.54215 13.3738 8.0353V13.3926H13.3737Z" fill="#4D4D4D"/>
<path d="M7.60104 1.30713C5.83573 -0.414228 3.00927 -0.3786 1.28785 1.38671C-0.402743 3.12047 -0.402952 5.88588 1.28744 7.6199C1.63613 7.96849 2.20132 7.96849 2.54997 7.6199L7.60104 2.56972C7.94963 2.22102 7.94963 1.65583 7.60104 1.30713Z" fill="#4D4D4D"/>
<path d="M23.673 1.30715C21.9297 -0.435716 19.1037 -0.435716 17.3603 1.30715C17.0117 1.65585 17.0117 2.22103 17.3603 2.56968L22.4105 7.61986C22.7592 7.96846 23.3244 7.96846 23.673 7.61986C25.4159 5.87653 25.4159 3.05053 23.673 1.30715Z" fill="#4D4D4D"/>
</g>
<defs>
<clipPath id="clip0">
<rect width="25" height="25" fill="white"/>
</clipPath>
</defs>
</svg>
